<svg width="17" height="20" viewBox="0 0 17 20" fill="none" xmlns="http://www.w3.org/2000/svg">
<path d="M16.4703 1.06917C11.9672 1.74658 7.80067 0.0958988 3.30159 0.773312C3.06898 0.846766 2.87718 1.11202 2.87718 1.34462V9.41645C2.87718 9.64905 3.06898 9.7674 3.30159 9.69394C7.80271 9.01653 11.9672 10.6672 16.4724 9.9898C16.705 9.91634 16.8968 9.65109 16.8968 9.41849C16.8968 6.7272 16.8968 4.03795 16.8968 1.34666C16.8968 1.11406 16.705 0.995715 16.4724 1.06917H16.4703Z" fill="#F6D04E"/>
<path d="M1.31424 0C0.92044 0 0.600098 0.320343 0.600098 0.71414V19.2859C0.600098 19.6797 0.92044 20 1.31424 20C1.70803 20 2.02838 19.6797 2.02838 19.2859V0.71414C2.02838 0.320343 1.70803 0 1.31424 0Z" fill="#F6D04E"/>
</svg>
