<svg width="20" height="20" viewBox="0 0 20 20" fill="none" xmlns="http://www.w3.org/2000/svg">
<path d="M19.8161 0.959295L18.4721 0.0753082C18.2961 -0.0666896 18.0121 0.00530928 17.8701 0.181307L7.26025 14.0451C6.76426 14.6811 6.02227 15.0351 5.24428 15.0351H1.92033C1.14235 15.0351 0.506355 15.5651 0.328358 16.2731L0.0463625 17.369C-0.201634 18.429 0.576354 19.421 1.63834 19.421H5.17428C6.27027 19.421 7.29625 18.891 7.96824 18.007L19.8861 1.55929C20.0641 1.38329 20.0281 1.09929 19.8161 0.957295V0.959295ZM14.2981 7.81919C13.6262 7.1472 13.6962 7.1832 13.6262 7.1832L14.0501 6.65321L14.6861 7.2892L14.2961 7.81919H14.2981ZM2.52232 18.571L3.51231 15.9191H4.3263L3.33631 18.571H2.52232ZM0.89635 17.615L1.17835 16.5191C1.24834 16.1651 1.56634 15.9171 1.92033 15.9171H2.55632L1.56634 18.569C1.10635 18.499 0.788351 18.073 0.89435 17.613L0.89635 17.615ZM7.26025 17.509C6.76426 18.181 6.02227 18.569 5.20828 18.569H4.2883L5.27828 15.9171C6.33827 15.9171 7.33025 15.4211 8.00224 14.5731L13.0942 7.88919L13.7662 8.56118L7.25825 17.509H7.26025ZM14.5821 5.91122L18.2961 1.03129L18.8981 1.42129L15.2201 6.54921L14.5821 5.91122Z" fill="white"/>
<path d="M2.51032 8.36118V10.1292C2.51032 11.0131 3.78431 11.4731 5.02229 11.4731C6.26027 11.4731 7.53225 11.0131 7.53225 10.1292V8.36118C7.53225 7.4772 6.25827 7.0172 5.02229 7.0172C3.78631 7.0172 2.51032 7.4772 2.51032 8.36118ZM6.64826 10.1292C6.57826 10.2712 6.04627 10.5891 5.02229 10.5891C3.9983 10.5891 3.46631 10.2712 3.39431 10.1292V9.38717C4.3143 9.77716 5.72828 9.77716 6.64826 9.38717V10.1292ZM6.64826 8.36118C6.61226 8.43118 6.54226 8.46718 6.47026 8.50318C5.86827 8.85717 4.56029 8.92717 3.74631 8.57318C3.64031 8.53718 3.46431 8.43118 3.39231 8.36118C3.46231 8.21918 4.0283 7.93719 5.02029 7.93719C6.01227 7.93719 6.54026 8.21918 6.64626 8.36118H6.64826Z" fill="white"/>
</svg>
