<svg width="18" height="20" viewBox="0 0 18 20" fill="none" xmlns="http://www.w3.org/2000/svg">
<path d="M6.34524 5.67133C6.64529 5.77403 6.9534 5.82437 7.26151 5.82437C7.6844 5.82437 8.10326 5.72771 8.49394 5.5364C9.88747 4.85374 10.4654 3.1662 9.78275 1.77267C9.52096 1.237 9.10411 0.808068 8.5765 0.528154C8.56844 0.524126 8.5624 0.520099 8.55435 0.516071C7.76294 0.105262 6.81848 0.095193 6.02102 0.483851C4.62951 1.16652 4.05155 2.85406 4.73221 4.24558C5.06247 4.92019 5.63639 5.42565 6.34725 5.66931L6.34524 5.67133ZM5.04837 2.62449L5.15107 2.24792C5.35044 1.69816 5.74715 1.25513 6.27073 0.999377C6.58488 0.84633 6.92118 0.769807 7.25748 0.769807C7.50517 0.769807 7.75085 0.812096 7.98848 0.89466L8.32679 1.04368C8.7376 1.26519 9.06383 1.60552 9.27125 2.0264C9.46256 2.41506 9.53506 2.85003 9.48471 3.26688L9.43235 3.55284C9.27125 4.19725 8.83829 4.73291 8.24423 5.02289C7.60586 5.33503 6.84868 5.32295 6.21837 4.9947L6.12977 4.94637C5.74715 4.72284 5.44106 4.3946 5.24572 3.99587C5.03226 3.56089 4.96782 3.08162 5.0524 2.62248L5.04837 2.62449Z" fill="white"/>
<path d="M9.47061 3.19439L9.31555 3.12592L9.15445 3.49041L9.3075 3.55888L9.47061 3.19439Z" fill="white"/>
<path d="M8.45366 1.15041L8.06903 1.04368L8.02473 1.2068L8.40936 1.31353L8.45366 1.15041Z" fill="white"/>
<path d="M9.08598 3.0494L8.92085 3.01113L8.83225 3.40181L8.99738 3.43805L9.08598 3.0494Z" fill="white"/>
<path d="M7.96525 1.36029L7.88951 1.51154L8.24604 1.69007L8.32178 1.53882L7.96525 1.36029Z" fill="white"/>
<path d="M8.68323 2.98294L8.51407 2.9769L8.49998 3.37563L8.66712 3.38167L8.68323 2.98294Z" fill="white"/>
<path d="M7.79973 1.65464L7.69949 1.78839L8.01855 2.02752L8.11879 1.89377L7.79973 1.65464Z" fill="white"/>
<path d="M8.27858 2.98574L8.11086 3.00773L8.16296 3.40507L8.33068 3.38308L8.27858 2.98574Z" fill="white"/>
<path d="M7.58688 1.91671L7.46418 2.03315L7.73864 2.32238L7.86135 2.20594L7.58688 1.91671Z" fill="white"/>
<path d="M7.87938 3.05907L7.71922 3.10691L7.83333 3.48896L7.99349 3.44112L7.87938 3.05907Z" fill="white"/>
<path d="M7.55552 2.46943L7.32997 2.13917L7.19102 2.23583L7.41657 2.56408L7.55552 2.46943Z" fill="white"/>
<path d="M7.49913 3.19036L7.3481 3.26286L7.51927 3.62332L7.6703 3.55083L7.50719 3.20848L7.49913 3.19036Z" fill="white"/>
<path d="M7.21318 2.68088L7.20512 2.66477L7.03999 2.32041L6.88896 2.39291L7.06214 2.75337L7.21318 2.68088Z" fill="white"/>
<path d="M7.00374 3.4743L7.22929 3.80456L7.36824 3.70991L7.14269 3.37966L7.00374 3.4743Z" fill="white"/>
<path d="M6.84264 2.83795L6.72786 2.45533L6.56676 2.50366L6.68154 2.88628L6.84264 2.83795Z" fill="white"/>
<path d="M6.69966 3.73811L6.71175 3.7522L6.97354 4.02809L7.09638 3.9133L6.82049 3.62332L6.69966 3.73811Z" fill="white"/>
<path d="M6.28281 2.95878L6.44996 2.93663L6.3976 2.54193L6.23247 2.56206L6.2808 2.93864L6.28281 2.95878Z" fill="white"/>
<path d="M6.456 4.06232L6.76008 4.28988L6.86077 4.15496L6.54058 3.91532L6.43989 4.05024L6.456 4.06232Z" fill="white"/>
<path d="M5.89533 2.56247L5.87855 2.96286L6.04554 2.96986L6.06233 2.56947L5.89533 2.56247Z" fill="white"/>
<path d="M6.2365 4.40467L6.25865 4.41473L6.59495 4.58389L6.66946 4.43286L6.31302 4.25565L6.2365 4.40467Z" fill="white"/>
<path d="M5.64445 2.91045L5.72701 2.54193L5.56188 2.50568L5.47932 2.87218L5.47529 2.89635L5.63841 2.9326L5.64445 2.91045Z" fill="white"/>
<path d="M6.53655 4.73694L6.1499 4.63222L6.1056 4.79332L6.49023 4.90005L6.53655 4.73694Z" fill="white"/>
<path d="M5.40682 2.45332L5.25378 2.38485L5.10878 2.70706L5.09066 2.74934L5.24371 2.81781L5.40682 2.45332Z" fill="white"/>
<path d="M17.2337 2.72115C17.2035 2.10695 16.9357 1.54511 16.4785 1.13631C16.0738 0.77182 15.5542 0.568429 15.0145 0.568429C14.9541 0.568429 14.8917 0.570443 14.8313 0.576485C14.2332 0.624815 13.6955 0.914798 13.3189 1.39005L1.29873 17.1579C1.15978 17.0773 1.00874 17.031 0.857711 17.027C0.847643 17.027 0.83556 17.027 0.823477 17.027C0.612031 17.027 0.430792 17.1096 0.309965 17.2586C0.185112 17.4116 0.144836 17.6231 0.19518 17.8385C0.241497 18.0359 0.362323 18.2232 0.533494 18.3661L1.97334 19.5623C2.03375 19.6127 2.09618 19.655 2.16264 19.6892C2.30159 19.7617 2.45262 19.8 2.59962 19.8C2.80503 19.8 2.98425 19.7234 3.10508 19.5865C3.23799 19.4375 3.28833 19.2341 3.24403 19.0166C3.21382 18.8776 3.14938 18.7467 3.05474 18.63L16.6497 4.34627C17.0545 3.90726 17.2599 3.32931 17.2317 2.72115H17.2337ZM2.61573 19.1676C2.58754 19.1998 2.54324 19.216 2.49692 19.216C2.44054 19.216 2.38012 19.1938 2.32776 19.1515L0.881877 17.9473C0.83556 17.909 0.801326 17.8587 0.789243 17.8063C0.775147 17.7519 0.785216 17.7036 0.813408 17.6674C0.841601 17.6331 0.885904 17.617 0.934235 17.617C0.988607 17.617 1.04902 17.6392 1.09936 17.6815L2.55532 18.8938C2.60164 18.932 2.63386 18.9824 2.64594 19.0347C2.65601 19.0871 2.64594 19.1354 2.61573 19.1696V19.1676ZM15.9308 3.67971L2.48887 18.1225L1.88474 17.6452L14.0781 2.01835C14.2835 1.7626 14.5816 1.60552 14.9118 1.57733C14.94 1.57532 14.9722 1.5733 15.0024 1.5733C15.3085 1.5733 15.5925 1.68205 15.82 1.88745C16.0758 2.11702 16.2268 2.43117 16.2449 2.77552C16.2631 3.11384 16.1503 3.43604 15.9308 3.67769V3.67971Z" fill="white"/>
</svg>
