<svg width="34" height="38" viewBox="0 0 34 38" fill="none" xmlns="http://www.w3.org/2000/svg">
<g clip-path="url(#clip0_30_384)">
<path d="M11.9652 10.6061C12.547 10.8053 13.1445 10.9029 13.742 10.9029C14.562 10.9029 15.3743 10.7155 16.1318 10.3445C18.8341 9.02069 19.9549 5.74827 18.6311 3.04598C18.1234 2.00723 17.3151 1.17546 16.292 0.632657C16.2763 0.624847 16.2646 0.617037 16.249 0.609227C14.7143 -0.187403 12.8828 -0.206928 11.3364 0.546746C8.63806 1.87056 7.51731 5.14298 8.83722 7.84137C9.47765 9.14956 10.5906 10.1297 11.9691 10.6022L11.9652 10.6061ZM9.45031 4.69781L9.64947 3.96757C10.0361 2.90149 10.8054 2.04238 11.8207 1.54644C12.4299 1.24965 13.082 1.10126 13.7341 1.10126C14.2145 1.10126 14.6909 1.18327 15.1517 1.34338L15.8077 1.63235C16.6044 2.0619 17.237 2.72186 17.6392 3.53801C18.0102 4.29168 18.1508 5.13517 18.0531 5.94352L17.9516 6.49804C17.6392 7.74765 16.7996 8.78639 15.6476 9.34872C14.4097 9.954 12.9414 9.93057 11.7191 9.29405L11.5473 9.20033C10.8054 8.76687 10.2118 8.13035 9.83301 7.35715C9.41907 6.51366 9.29411 5.58425 9.45812 4.6939L9.45031 4.69781Z" fill="white"/>
<path d="M18.0257 5.80294L17.725 5.67017L17.4126 6.37698L17.7094 6.50975L18.0257 5.80294Z" fill="white"/>
<path d="M16.0537 1.83929L15.3078 1.63232L15.2219 1.94863L15.9678 2.1556L16.0537 1.83929Z" fill="white"/>
<path d="M17.2799 5.52171L16.9597 5.44751L16.7878 6.20509L17.1081 6.27538L17.2799 5.52171Z" fill="white"/>
<path d="M15.1066 2.24625L14.9597 2.53955L15.6511 2.88576L15.798 2.59245L15.1066 2.24625Z" fill="white"/>
<path d="M16.4989 5.39282L16.1709 5.3811L16.1436 6.1543L16.4677 6.16602L16.4989 5.39282Z" fill="white"/>
<path d="M14.7854 2.81705L14.5911 3.07642L15.2098 3.54012L15.4042 3.28076L14.7854 2.81705Z" fill="white"/>
<path d="M15.7142 5.39827L15.3889 5.44092L15.4899 6.21143L15.8152 6.16878L15.7142 5.39827Z" fill="white"/>
<path d="M14.3727 3.32523L14.1348 3.55103L14.667 4.11188L14.9049 3.88609L14.3727 3.32523Z" fill="white"/>
<path d="M14.94 5.54054L14.6294 5.6333L14.8507 6.37416L15.1612 6.2814L14.94 5.54054Z" fill="white"/>
<path d="M14.312 4.39714L13.8747 3.75671L13.6052 3.94416L14.0426 4.58068L14.312 4.39714Z" fill="white"/>
<path d="M14.2025 5.79504L13.9097 5.93563L14.2416 6.63463L14.5345 6.49405L14.2182 5.83019L14.2025 5.79504Z" fill="white"/>
<path d="M13.6482 4.80716L13.6326 4.77592L13.3124 4.10815L13.0195 4.24874L13.3554 4.94774L13.6482 4.80716Z" fill="white"/>
<path d="M13.2419 6.34565L13.6793 6.98607L13.9488 6.80254L13.5114 6.16211L13.2419 6.34565Z" fill="white"/>
<path d="M12.9295 5.11171L12.7069 4.36975L12.3945 4.46347L12.6171 5.20543L12.9295 5.11171Z" fill="white"/>
<path d="M12.6523 6.85723L12.6758 6.88457L13.1834 7.41956L13.4216 7.19697L12.8866 6.63464L12.6523 6.85723Z" fill="white"/>
<path d="M11.844 5.34606L12.1681 5.30311L12.0666 4.53772L11.7463 4.57677L11.8401 5.30701L11.844 5.34606Z" fill="white"/>
<path d="M12.1799 7.486L12.7696 7.92727L12.9648 7.66563L12.3439 7.20093L12.1487 7.46257L12.1799 7.486Z" fill="white"/>
<path d="M11.0926 4.57746L11.0601 5.35388L11.3839 5.36745L11.4164 4.59103L11.0926 4.57746Z" fill="white"/>
<path d="M11.7542 8.14981L11.7971 8.16934L12.4492 8.49736L12.5937 8.20448L11.9025 7.86084L11.7542 8.14981Z" fill="white"/>
<path d="M10.6061 5.25232L10.7662 4.5377L10.446 4.46741L10.2859 5.17813L10.2781 5.22499L10.5944 5.29528L10.6061 5.25232Z" fill="white"/>
<path d="M12.3359 8.79413L11.5862 8.59106L11.5002 8.90347L12.2461 9.11044L12.3359 8.79413Z" fill="white"/>
<path d="M10.1453 4.3658L9.84854 4.23303L9.56737 4.85784L9.53223 4.93985L9.82901 5.07262L10.1453 4.3658Z" fill="white"/>
<path d="M33.0796 4.88519C33.021 3.69415 32.5016 2.60464 31.6152 1.81192C30.8303 1.1051 29.8228 0.710693 28.7762 0.710693C28.6591 0.710693 28.538 0.714598 28.4209 0.726314C27.2611 0.820035 26.2184 1.38236 25.4882 2.30395L2.17894 32.8805C1.9095 32.7243 1.61662 32.6344 1.32374 32.6266C1.30421 32.6266 1.28078 32.6266 1.25735 32.6266C0.847324 32.6266 0.495869 32.7867 0.261567 33.0757C0.0194538 33.3725 -0.0586471 33.7825 0.0389791 34.2004C0.128795 34.5831 0.363098 34.9462 0.695027 35.2235L3.48713 37.5431C3.60429 37.6407 3.72534 37.7227 3.85421 37.7891C4.12366 37.9297 4.41654 38.0039 4.7016 38.0039C5.09992 38.0039 5.44747 37.8555 5.68177 37.5899C5.9395 37.301 6.03713 36.9066 5.95122 36.4848C5.89264 36.2154 5.76768 35.9615 5.58414 35.7351L31.9471 8.03656C32.732 7.18526 33.1303 6.06451 33.0757 4.88519H33.0796ZM4.73284 36.7777C4.67817 36.8402 4.59226 36.8714 4.50245 36.8714C4.39311 36.8714 4.27595 36.8285 4.17442 36.7465L1.3706 34.4112C1.28078 34.337 1.2144 34.2394 1.19097 34.1379C1.16363 34.0324 1.18316 33.9387 1.23783 33.8684C1.2925 33.8021 1.37841 33.7708 1.47213 33.7708C1.57757 33.7708 1.69472 33.8138 1.79234 33.8958L4.61569 36.2466C4.70551 36.3208 4.76799 36.4184 4.79142 36.52C4.81095 36.6215 4.79142 36.7152 4.73284 36.7816V36.7777ZM30.553 6.74399L4.48683 34.751L3.31531 33.8255L26.9604 3.52233C27.3587 3.02639 27.9366 2.72179 28.5771 2.66712C28.6317 2.66322 28.6942 2.65931 28.7528 2.65931C29.3463 2.65931 29.897 2.87018 30.3382 3.2685C30.8342 3.71367 31.1271 4.32286 31.1622 4.99062C31.1973 5.64667 30.9787 6.27148 30.553 6.74008V6.74399Z" fill="white"/>
</g>
<defs>
<clipPath id="clip0_30_384">
<rect width="33.0835" height="38" fill="white"/>
</clipPath>
</defs>
</svg>
