<svg width="17" height="17" viewBox="0 0 17 17" fill="none" xmlns="http://www.w3.org/2000/svg">
<path d="M8.33333 16.7502C12.9357 16.7502 16.6667 13.0192 16.6667 8.41683C16.6667 3.81446 12.9357 0.0834961 8.33333 0.0834961C3.73096 0.0834961 0 3.81446 0 8.41683C0 13.0192 3.73096 16.7502 8.33333 16.7502Z" fill="#F0F0FF"/>
<path d="M12.7958 8.72122H6.36343V6.34355L11.4748 4.59762C11.6357 4.54019 11.7448 4.39661 11.7563 4.23006C11.7677 4.06351 11.6701 3.9027 11.5208 3.83378L6.12221 1.2953C5.99586 1.23213 5.8408 1.24362 5.72594 1.31828C5.60533 1.39294 5.53067 1.52503 5.53067 1.66861V6.03916C5.53067 6.03916 5.53067 6.05065 5.53067 6.05639V9.13473C5.53067 9.13473 5.53067 9.16344 5.53067 9.17493C5.53067 9.18641 5.53067 9.1979 5.53067 9.20364C5.53067 9.2381 5.54215 9.26682 5.55938 9.29554L8.07489 15.3201C8.14381 15.4809 8.29313 15.5728 8.45968 15.5728C8.51137 15.5728 8.5688 15.5613 8.62049 15.5384C8.83299 15.4522 8.93062 15.2053 8.84447 14.9985L7.86239 12.6438C9.62555 11.6675 9.80933 10.3006 9.75764 9.54823H12.7958C13.0255 9.54823 13.2093 9.36445 13.2093 9.13473C13.2093 8.905 13.0255 8.72122 12.7958 8.72122ZM6.36343 2.32333L10.2343 4.14391L6.36343 5.46484V2.32333ZM7.54078 11.8742L6.57018 9.54823H8.93062C8.98805 10.0364 8.91339 11.0759 7.54078 11.8742Z" fill="#0B0075"/>
</svg>
