<svg width="20" height="20" viewBox="0 0 20 20" fill="none" xmlns="http://www.w3.org/2000/svg">
<path d="M10 20C15.5228 20 20 15.5228 20 10C20 4.47715 15.5228 0 10 0C4.47715 0 0 4.47715 0 10C0 15.5228 4.47715 20 10 20Z" fill="#F0F0FF"/>
<path d="M18.0772 9.73122L15.0793 4.5348L12.0813 9.73122H13.9697V10.1378C13.9697 12.991 11.144 15.3136 7.67057 15.3136V17.5396C12.3708 17.5396 16.2026 14.2178 16.2026 10.1378V9.73122H18.091H18.0772Z" fill="#FF3333"/>
<path d="M12.3363 4.68642V2.46037C7.63611 2.46037 3.80427 5.78222 3.80427 9.86216V10.2688H1.91592L4.91385 15.4652L7.91178 10.2688H6.02343V9.86216C6.02343 7.00896 8.84907 4.68642 12.3225 4.68642H12.3363Z" fill="#299439"/>
</svg>
