<svg width="34" height="34" viewBox="0 0 34 34" fill="none" xmlns="http://www.w3.org/2000/svg">
<path d="M17.0359 0.666504C14.5056 0.686396 12.013 1.28218 9.74714 2.40867C7.4813 3.53516 5.5017 5.16279 3.95846 7.16813C2.41522 9.17347 1.34884 11.5039 0.840196 13.9826C0.33155 16.4614 0.393987 19.0235 1.02277 21.4745C1.65156 23.9255 2.83019 26.2012 4.46928 28.129C6.10838 30.0568 8.16491 31.5861 10.4829 32.6009C12.801 33.6157 15.3196 34.0893 17.8479 33.9859C20.3762 33.8825 22.8478 33.2048 25.0752 32.0042L23.5507 29.2284C21.7466 30.1966 19.7458 30.7418 17.6999 30.8226C15.6539 30.9034 13.6164 30.5178 11.7415 29.695C9.86657 28.8721 8.20339 27.6335 6.87781 26.073C5.55222 24.5125 4.59896 22.6709 4.09016 20.6876C3.58137 18.7043 3.53037 16.6312 3.94102 14.6253C4.35168 12.6194 5.21323 10.7331 6.46048 9.10931C7.70773 7.48549 9.308 6.16665 11.1402 5.2526C12.9724 4.33854 14.9885 3.85321 17.0359 3.83334V0.666504Z" fill="#FF5500"/>
<path d="M25.3048 31.878C28.5137 30.0826 31.0388 27.2765 32.4869 23.8967C33.9349 20.5168 34.2247 16.753 33.311 13.1913C32.3973 9.62966 30.3314 6.47012 27.4351 4.20476C24.5389 1.93941 20.9747 0.695409 17.2979 0.666504V3.83334C20.2718 3.8622 23.153 4.87231 25.494 6.70679C27.8349 8.54126 29.5046 11.0974 30.2436 13.9782C30.9826 16.859 30.7497 19.9033 29.581 22.6381C28.4122 25.373 26.3731 27.6453 23.7803 29.1023L25.3048 31.878Z" fill="#031B57"/>
<path d="M22.2751 17.3865L15.5002 23.1667V20.5103L19.6065 17.3865V17.259L15.5002 14.1563V11.5L22.2751 17.259V17.3865Z" fill="#626262"/>
</svg>
