<svg width="39" height="39" viewBox="0 0 39 39" fill="none" xmlns="http://www.w3.org/2000/svg">
<path d="M27.9885 2.76231C18.6105 -1.93053 7.18425 1.83514 2.49521 11.2132C-2.19383 20.5913 1.57184 32.0175 10.9499 36.7066C20.3964 41.464 31.7542 37.5653 36.4471 28.2518C41.2007 18.8054 37.3058 7.44755 27.9923 2.75851L27.9885 2.76231ZM36.7054 21.4539C34.8549 16.9624 31.2906 13.1968 26.4686 11.1486L24.5535 10.2899C23.2995 9.69708 22.1747 8.9029 21.2514 7.91114C25.2792 5.79841 28.5813 5.13723 28.6497 5.13723H28.7143C34.3951 8.63691 37.3666 15.0435 36.7054 21.4501V21.4539ZM26.6016 3.94787C25.1462 4.41145 22.7713 5.20183 20.195 6.58878C19.4008 5.33482 18.8727 3.94787 18.6751 2.42792C21.3844 2.29493 24.0899 2.75851 26.6016 3.94787ZM17.0259 2.56092C17.2235 4.34306 17.8163 5.996 18.8081 7.38295C16.8929 8.50392 15.1108 9.82627 13.5262 11.2816C10.3571 9.83007 7.71244 8.9029 6.26088 8.50772C9.03479 5.20563 12.9335 3.1575 17.0259 2.56472V2.56092ZM25.2792 36.0492C25.2108 36.0492 25.1462 35.9846 25.0816 35.9846C25.0816 35.9846 21.9126 35.654 18.3445 33.0131C15.9012 31.1625 13.9176 28.6546 12.5991 25.7477L11.7403 23.8326C11.0791 22.3126 10.0874 20.9257 8.8334 19.8693C10.0874 17.426 11.6719 15.2449 13.72 13.2652C21.9771 17.293 29.3071 23.6996 30.8916 32.7509C29.2387 34.2024 27.3236 35.3272 25.2792 36.053V36.0492ZM5.13612 9.95927C6.19249 10.2253 8.9018 11.0802 12.2039 12.5356C10.3533 14.4507 8.8372 16.5634 7.57944 18.8776C5.99489 17.8212 4.21275 17.16 2.29762 16.9624C2.7612 14.4545 3.68457 12.0758 5.13612 9.96307V9.95927ZM2.16462 18.6116C3.88217 18.8092 5.53131 19.4057 6.85367 20.3291C5.7327 22.837 4.93853 25.5463 4.54334 28.5178C2.8258 25.6109 1.96703 22.1113 2.16462 18.6116ZM5.99489 30.6344V30.5014C6.26089 27.1993 6.98666 24.1594 8.17602 21.4539C9.03479 22.3126 9.76057 23.369 10.2887 24.5584L11.1475 26.4735C12.5345 29.6426 14.7156 32.3519 17.4211 34.4C19.074 35.654 20.7232 36.4482 21.9772 36.908C15.8328 37.7667 9.75677 35.3234 5.99489 30.6344ZM32.347 31.3601C30.3635 22.5102 23.2311 16.2367 15.107 12.072C16.4939 10.8826 18.0785 9.69328 19.796 8.70151C20.917 10.0239 22.3039 11.0118 23.9569 11.7414L25.872 12.6002C28.8435 13.9225 31.4198 15.9707 33.2704 18.5432C35.3831 21.5147 35.9797 24.224 36.0443 24.8852C35.2501 27.2639 33.9961 29.5096 32.347 31.3563V31.3601Z" fill="white"/>
</svg>
