<svg width="39" height="39" viewBox="0 0 39 39" fill="none" xmlns="http://www.w3.org/2000/svg">
<path d="M27.9888 2.76207C18.6107 -1.93077 7.1845 1.8349 2.49546 11.213C-2.19358 20.5911 1.57209 32.0173 10.9502 36.7063C20.3966 41.4638 31.7545 37.5651 36.4473 28.2516C41.2009 18.8051 37.3061 7.44731 27.9926 2.75827L27.9888 2.76207ZM36.7057 21.4536C34.8552 16.9622 31.2909 13.1965 26.4688 11.1484L24.5537 10.2896C23.2998 9.69683 22.175 8.90266 21.2516 7.91089C25.2795 5.79816 28.5816 5.13699 28.65 5.13699H28.7146C34.3954 8.63667 37.3669 15.0433 36.7057 21.4498V21.4536ZM26.6018 3.94763C25.1465 4.41121 22.7716 5.20158 20.1953 6.58854C19.4011 5.33458 18.8729 3.94763 18.6753 2.42768C21.3846 2.29468 24.0901 2.75827 26.6018 3.94763ZM17.0262 2.56067C17.2238 4.34281 17.8165 5.99576 18.8083 7.38271C16.8932 8.50367 15.111 9.82603 13.5265 11.2814C10.3574 9.82983 7.71268 8.90266 6.26113 8.50747C9.03504 5.20538 12.9337 3.15725 17.0262 2.56447V2.56067ZM25.2795 36.0489C25.2111 36.0489 25.1465 35.9843 25.0819 35.9843C25.0819 35.9843 21.9128 35.6538 18.3447 33.0128C15.9014 31.1623 13.9179 28.6544 12.5993 25.7475L11.7405 23.8324C11.0794 22.3124 10.0876 20.9255 8.83364 19.8691C10.0876 17.4258 11.6721 15.2446 13.7203 13.2649C21.9774 17.2928 29.3073 23.6994 30.8919 32.7507C29.2389 34.2022 27.3238 35.327 25.2795 36.0527V36.0489ZM5.13637 9.95902C6.19273 10.225 8.90204 11.08 12.2041 12.5353C10.3536 14.4505 8.83744 16.5632 7.57968 18.8773C5.99514 17.821 4.213 17.1598 2.29786 16.9622C2.76145 14.4543 3.68482 12.0756 5.13637 9.96282V9.95902ZM2.16487 18.6113C3.88241 18.8089 5.53155 19.4055 6.85391 20.3289C5.73295 22.8368 4.93877 25.5461 4.54359 28.5176C2.82605 25.6107 1.96728 22.111 2.16487 18.6113ZM5.99514 30.6341V30.5011C6.26113 27.199 6.9869 24.1591 8.17626 21.4536C9.03504 22.3124 9.76081 23.3688 10.289 24.5581L11.1478 26.4733C12.5347 29.6424 14.7158 32.3517 17.4214 34.3998C19.0743 35.6538 20.7234 36.4479 21.9774 36.9077C15.833 37.7665 9.75701 35.3232 5.99514 30.6341ZM32.3472 31.3599C30.3637 22.51 23.2314 16.2364 15.1072 12.0718C16.4942 10.8824 18.0787 9.69303 19.7963 8.70127C20.9172 10.0236 22.3042 11.0116 23.9571 11.7412L25.8723 12.5999C28.8438 13.9223 31.4201 15.9704 33.2706 18.5429C35.3833 21.5144 35.9799 24.2237 36.0445 24.8849C35.2503 27.2636 33.9964 29.5094 32.3472 31.3561V31.3599Z" fill="white"/>
</svg>
