<svg width="39" height="39" viewBox="0 0 39 39" fill="none" xmlns="http://www.w3.org/2000/svg">
<path d="M23.2444 1.17027C13.3989 -0.931062 3.76624 4.93976 1.01513 14.3597C-0.869603 20.7359 0.654145 27.9101 5.65097 32.9829C13.1101 40.5903 25.4179 40.7385 32.877 32.9829C36.2095 29.506 38.2349 24.8664 38.2349 19.7213C38.2349 10.7346 31.8625 3.05502 23.2444 1.17027ZM34.1804 19.9379L36.1335 16.5332C36.5667 18.7789 36.4945 21.0969 36.0613 23.1982C35.9169 23.0538 34.2526 20.1545 34.1804 19.9379ZM31.7903 31.5352H26.6491L23.6092 26.3179L26.6491 21.1007H32.6605L35.3394 25.7365C34.5414 27.8379 33.3102 29.867 31.7903 31.5352ZM13.2545 19.9379C15.7168 15.5908 16.15 14.9373 16.2222 14.7207H22.3058L25.2013 19.7935L22.1614 25.0107H16.15L13.2545 19.9379ZM32.7326 18.8511H26.7935L23.898 13.7061C24.5515 12.5471 26.4325 9.35903 27.01 8.41666H32.1513C33.599 10.081 34.758 12.0379 35.4838 14.1431L32.7326 18.8511ZM26.6491 6.60791L24.9125 3.6364C26.8695 4.28998 28.606 5.30075 30.1981 6.60791H26.6491ZM22.4502 2.91062C22.739 3.41981 24.8403 7.11329 25.1291 7.55028C24.9847 7.76687 25.4901 6.8967 22.1614 12.7675H16.0056L13.0379 7.69468L15.789 2.91062C18.0348 2.47743 20.2767 2.47743 22.4502 2.91062ZM13.3989 3.5604L11.4458 6.9651H7.7523C9.34445 5.51734 11.3014 4.35458 13.3989 3.5604ZM5.93976 8.78144H11.5142L14.4819 13.8543C13.6117 15.302 12.0196 18.2014 11.3698 19.2159H5.50278L2.82387 14.5041C3.47365 12.4749 4.56041 10.518 5.93597 8.77764L5.93976 8.78144ZM2.17409 17.1146C2.89987 18.3458 3.33305 19.0715 3.91063 20.1583L2.24629 22.9854C1.9575 21.1007 1.8853 19.0715 2.17409 17.1146ZM5.50658 21.0969H11.518C11.879 21.6783 14.1247 25.5883 14.4135 26.1697L11.3736 31.5314H6.52114C4.929 29.791 3.62564 27.7619 2.89987 25.5161L5.50658 21.0969ZM11.7308 33.3439L13.1785 35.9506C11.5142 35.297 9.91823 34.4307 8.54268 33.3439H11.727H11.7308ZM15.7168 36.6802L13.2545 32.2609C14.2691 30.5206 15.2836 28.7118 16.2944 26.8993H21.941L24.9087 32.1165L22.302 36.6802C20.1285 37.1134 17.8144 37.1134 15.713 36.6802H15.7168ZM24.6959 36.0988L26.2881 33.3439H29.8371C28.3172 34.5029 26.5769 35.4452 24.6959 36.0988Z" fill="white"/>
</svg>
