<svg width="31" height="38" viewBox="0 0 31 38" fill="none" xmlns="http://www.w3.org/2000/svg">
<path d="M24.9397 27.4618C24.6158 27.0046 24.1282 26.6846 23.5681 26.5551C20.9812 23.5414 21.2707 20.2573 21.3317 19.7772C21.846 18.5771 22.0937 17.2017 22.0594 15.6892C21.9984 12.6984 20.8517 9.49049 18.8324 6.65973C16.817 3.82897 14.1577 1.69923 11.3459 0.662938C8.4466 -0.396215 5.73395 -0.182861 3.70708 1.26871C-0.411428 4.20615 -0.33523 11.4107 3.88234 17.3237C5.90921 20.1582 8.56852 22.2842 11.3688 23.3128C12.5537 23.751 13.7233 23.9758 14.8396 23.9796C15.3235 24.1015 18.7257 25.0806 20.7717 28.6048C20.7221 29.161 20.8669 29.702 21.1831 30.144L26.1017 37.0399C26.4636 37.5428 26.9932 37.8743 27.5952 37.9695C27.7247 37.9924 27.8543 38 27.9838 38C28.4638 38 28.9248 37.8514 29.3173 37.5733C29.5763 37.3866 29.7897 37.1542 29.9497 36.8875C30.1021 36.6361 30.2012 36.3618 30.2507 36.0722C30.3536 35.4626 30.2126 34.853 29.8545 34.3539L24.9397 27.458V27.4618ZM11.7955 22.1584C9.2162 21.2098 6.76262 19.2362 4.88815 16.6036C1.81737 12.306 1.00205 7.09025 2.90319 3.92803C3.30323 3.26129 3.81376 2.70505 4.42334 2.27453C5.39106 1.58494 6.55689 1.23823 7.84464 1.23823C8.81235 1.23823 9.84484 1.43254 10.9154 1.82877C13.4985 2.78125 15.9521 4.75097 17.8266 7.3798C19.7049 10.0163 20.7716 12.9766 20.8288 15.7159C20.8859 18.379 19.983 20.5087 18.2914 21.7127C16.5998 22.9166 14.2948 23.0766 11.7993 22.1622L11.7955 22.1584ZM21.3698 27.2408C20.0897 25.3778 18.4971 24.2577 17.2437 23.61C17.8761 23.4005 18.4667 23.1033 19.0077 22.7185C19.4115 22.4251 19.7849 22.0898 20.1125 21.7165C20.2687 23.0652 20.7564 24.8901 22.1051 26.7113C21.9603 26.7722 21.8346 26.8446 21.7165 26.9246C21.5946 27.0122 21.4765 27.1189 21.366 27.2408H21.3698ZM29.0315 35.8741C28.9858 36.156 28.8334 36.4037 28.6048 36.5675C28.3686 36.7351 28.0829 36.7999 27.8009 36.7504C27.5152 36.7046 27.2713 36.5484 27.1075 36.316L22.1889 29.4239C22.0213 29.1915 21.9565 28.9096 22.0061 28.6238C22.0251 28.4981 22.0746 28.3724 22.147 28.2467C22.2232 28.1209 22.3185 28.0143 22.4366 27.9304C22.6195 27.8009 22.8366 27.7323 23.0576 27.7323C23.1186 27.7323 23.1757 27.7361 23.2367 27.7476C23.5186 27.7933 23.7662 27.9495 23.9301 28.1819L28.8525 35.074C29.0163 35.3026 29.0811 35.5845 29.0315 35.8741Z" fill="white"/>
<path d="M26.6008 9.68098C27.3971 9.68098 28.201 9.44096 28.8982 8.94567C29.3401 8.63326 29.7097 8.23322 29.9916 7.7646C30.8069 6.41209 30.7384 4.70144 29.824 3.41369C29.2106 2.55265 28.2962 1.98117 27.2523 1.80972C26.2122 1.63446 25.1607 1.87449 24.2958 2.49169C23.431 3.10128 22.8595 4.01566 22.6842 5.06719C22.509 6.1111 22.749 7.15883 23.3662 8.02368C24.1396 9.10569 25.3626 9.68479 26.6008 9.68479V9.68098ZM23.9034 5.2653C23.9605 4.92241 24.0786 4.60238 24.2539 4.30902C24.4482 3.98899 24.6997 3.71467 25.0083 3.4937C25.4769 3.15843 26.0255 2.98698 26.5894 2.98698C26.7418 2.98698 26.8904 2.99841 27.0428 3.02508C27.7628 3.147 28.3915 3.53942 28.8144 4.13376C29.2373 4.7243 29.4011 5.44818 29.283 6.16825C29.1611 6.88832 28.7724 7.51696 28.1781 7.93986C27.5876 8.36276 26.8675 8.53039 26.1436 8.40848C25.4235 8.28656 24.7911 7.89414 24.3682 7.29979C23.9453 6.70926 23.7777 5.98919 23.8996 5.2653H23.9034Z" fill="white"/>
<path d="M19.2667 19.701C19.9754 18.52 20.2878 16.9579 20.1697 15.1863C20.0097 12.687 18.9924 9.9553 17.3808 7.69221C15.7654 5.43294 13.5138 3.58133 11.2012 2.61742C8.70568 1.57351 6.43116 1.63827 4.79671 2.80411C3.16607 3.96613 2.36218 6.09586 2.53744 8.8009C2.70507 11.3078 3.71851 14.0395 5.32629 16.2912C6.9836 18.6152 9.30002 20.4859 11.685 21.4231C12.7937 21.8613 13.8757 22.0784 14.8663 22.0784C16.0321 22.0784 17.076 21.7774 17.9066 21.1831C18.4476 20.7945 18.9048 20.2992 19.2629 19.7048L19.2667 19.701ZM17.0189 20.2878L15.6168 18.1047L16.516 15.9788L17.9447 18.2037L17.0798 20.2497C17.0608 20.2611 17.0417 20.2763 17.0189 20.2878ZM10.7706 19.6439L9.69625 17.9751L10.5954 15.8492L12.0241 18.0742L11.2507 19.9068C11.0907 19.8268 10.9307 19.7391 10.7706 19.6477V19.6439ZM3.77185 8.71708C3.69946 7.60078 3.82138 6.60258 4.11474 5.76821L4.82338 6.86928L3.92424 8.9952L3.77947 8.76661C3.77947 8.76661 3.77566 8.73613 3.77566 8.72089L3.77185 8.71708ZM4.03473 10.1801L5.46345 12.4051L5.05198 13.3804C4.56812 12.3708 4.20999 11.3192 3.99282 10.283L4.03473 10.1801ZM4.29381 9.5705L5.19294 7.44457L6.62166 9.66956L5.72252 11.7955L4.29381 9.5705ZM6.35115 4.70906L7.77987 6.93404L6.88073 9.05997L5.45202 6.83499L6.35115 4.70906ZM6.23686 3.52037L6.18733 3.44036C6.22162 3.42512 6.25591 3.40988 6.2902 3.39464L6.23686 3.52037ZM9.30764 4.77383L10.7364 6.99881L9.83722 9.12474L8.4085 6.90356L9.30764 4.77764V4.77383ZM9.19715 3.58514L8.96856 3.23081C9.08667 3.25367 9.20096 3.27272 9.31907 3.29939L9.19715 3.58895V3.58514ZM18.219 11.9479C18.4552 12.6032 18.6343 13.2661 18.7562 13.9214L17.9295 12.6337L18.219 11.9479ZM18.9315 15.2053C18.9315 15.2244 18.9353 15.2473 18.9391 15.2663C18.9505 15.4568 18.9505 15.6359 18.9505 15.8187L18.2 17.5903L16.7712 15.3654L17.6704 13.2394L18.9315 15.2015V15.2053ZM16.3979 14.7901L14.9692 12.5651L15.8683 10.4392L17.297 12.6641L16.3979 14.7901ZM14.5996 11.9898L13.1709 9.7648L14.07 7.63888L15.4987 9.86386L14.5996 11.9898ZM11.7536 13.1137L13.1823 15.3387L12.2832 17.4646L10.8545 15.2396L11.7536 13.1137ZM10.4811 14.6605L9.05238 12.4355L9.95152 10.3096L11.3802 12.5346L10.4811 14.6605ZM12.0127 12.5041L12.9118 10.3782L14.3405 12.6032L13.4414 14.7291L12.0127 12.5041ZM13.9557 6.45019L13.0833 5.09386C13.4528 5.36055 13.8109 5.65392 14.1615 5.96252L13.9557 6.44638V6.45019ZM13.6967 7.06358L12.7975 9.18951L11.3688 6.96833L12.2679 4.84241L13.6967 7.06739V7.06358ZM12.5384 9.79909L11.6393 11.925L10.2106 9.70004L11.1097 7.57411L12.5384 9.79909ZM9.55147 9.6848L9.58195 9.73432L8.68282 11.8603L7.2541 9.63527L8.15324 7.50934L9.55147 9.6848ZM6.99503 10.2449L8.42374 12.466L7.5246 14.592L6.09589 12.3708L6.99503 10.2449ZM8.7933 13.0489L10.222 15.2739L9.32288 17.3999L7.89417 15.1787L8.7933 13.0528V13.0489ZM9.43718 18.5847L9.65815 18.9276C9.56672 18.859 9.47147 18.7905 9.38003 18.7219L9.43718 18.5847ZM12.3975 18.6533L13.7652 20.7792C13.1175 20.6649 12.4432 20.4516 11.765 20.1506L12.3975 18.6533ZM12.6565 18.0399L13.5557 15.914L14.9844 18.1352L14.0853 20.2611L12.6565 18.0361V18.0399ZM13.8109 15.3044L14.7101 13.1785L16.1388 15.4035L15.2397 17.5294L13.8109 15.3044ZM18.3143 18.7829L18.3409 18.8248C18.299 18.9086 18.2457 18.981 18.2 19.0572L18.3143 18.7829ZM18.5733 18.1695L18.6991 17.8685C18.6648 17.9828 18.6381 18.1047 18.6 18.2152L18.5733 18.1695ZM17.9218 11.1935L17.5561 12.0546L16.1274 9.83338L16.5922 8.73994C17.1141 9.51716 17.5637 10.3439 17.9218 11.1973V11.1935ZM16.2036 8.19131L15.754 9.25428L14.3253 7.02929L14.6034 6.37018C15.1825 6.92642 15.7197 7.53982 16.2036 8.1875V8.19131ZM11.8679 4.32426L10.9954 6.38542L9.56672 4.16424L9.8677 3.44798C10.1496 3.53561 10.4354 3.63466 10.7249 3.75658C11.1097 3.9166 11.4907 4.11471 11.8679 4.32426ZM7.87131 3.11652C7.99703 3.11652 8.13038 3.13176 8.25992 3.13938L8.87712 4.09566L8.94189 4.19472L8.04275 6.32065L6.61404 4.09566L6.99503 3.19653C7.27696 3.14319 7.57032 3.11271 7.87512 3.11271L7.87131 3.11652ZM5.52059 3.80992C5.57774 3.76801 5.6387 3.73372 5.69966 3.69562L5.98159 4.13376L5.08246 6.25969L4.38143 5.16625C4.42334 5.08243 4.46525 4.99861 4.51097 4.92241C4.78147 4.47284 5.12055 4.09947 5.5244 3.81373L5.52059 3.80992ZM5.38725 14.0433L5.83682 12.9804L7.26553 15.2053L6.8312 16.2264C6.65976 16.0131 6.49212 15.7959 6.3321 15.5711C5.9854 15.0834 5.66918 14.5691 5.38344 14.0433H5.38725ZM7.24267 16.7179L7.6389 15.7845L9.06762 18.0094L8.91903 18.3599C8.3323 17.8761 7.76844 17.3275 7.24267 16.7217V16.7179ZM14.4663 20.8592L14.4548 20.8402L15.354 18.7143L16.5274 20.5392C15.914 20.8021 15.213 20.905 14.4663 20.8592Z" fill="white"/>
</svg>
