<svg width="20" height="20" viewBox="0 0 20 20" fill="none" xmlns="http://www.w3.org/2000/svg">
<path d="M10 0C4.51 0 0 4.472 0 10C0 15.528 4.472 20 10 20C15.528 20 20 15.528 20 10C20 4.472 15.528 0 10 0ZM8.908 19.018C7.272 18.836 5.744 18.182 4.508 17.2C5.054 16.982 5.998 16.508 6.944 15.782C8.872 14.328 10.072 12.436 10.434 10.292C11.706 9.82 13.088 9.71 14.47 10.038C14.36 10.584 14.106 11.71 13.56 13.02C12.832 14.766 11.45 17.202 8.906 19.02L8.908 19.018ZM10.072 9.49C9.018 8.618 8.254 7.49 7.818 6.108C8.364 5.926 9.454 5.562 10.872 5.38C12.726 5.162 15.49 5.162 18.362 6.434C19.016 7.962 19.234 9.634 19.016 11.198C18.508 10.834 17.67 10.252 16.652 9.816C14.36 8.834 12.106 8.688 10.07 9.488L10.072 9.49ZM17.71 5.2C15.02 4.254 12.474 4.254 10.728 4.51C9.274 4.692 8.182 5.018 7.564 5.236C7.128 3.31 7.346 1.708 7.382 1.308C11.31 0.108 15.528 1.708 17.71 5.198V5.2ZM6.472 1.6C6.4 2.436 6.326 4.072 6.836 5.928C7.31 7.674 8.218 9.128 9.526 10.182C9.308 11.564 8.726 12.764 7.744 13.854C7.308 13.49 6.434 12.69 5.562 11.526C4.434 10.036 3.052 7.636 2.726 4.544C3.672 3.272 4.98 2.254 6.472 1.598V1.6ZM1.964 5.71C2.472 8.51 3.782 10.692 4.836 12.11C5.746 13.31 6.618 14.11 7.09 14.51C6.872 14.692 6.654 14.91 6.4 15.092C5.128 16.074 3.89 16.51 3.71 16.582C0.692 13.672 0.11 9.236 1.964 5.71ZM10.29 19.09C12.472 17.236 13.708 15.018 14.4 13.382C14.946 12.036 15.236 10.91 15.346 10.29C15.636 10.4 15.928 10.508 16.256 10.618C17.566 11.2 18.51 11.89 18.838 12.182C17.856 16.072 14.402 18.946 10.292 19.09H10.29Z" fill="white"/>
</svg>
