<svg width="15" height="19" viewBox="0 0 15 19" fill="none" xmlns="http://www.w3.org/2000/svg">
<g clip-path="url(#clip0_149_68456)">
<path d="M11.4824 10.7031L11.1876 10.9573L10.5483 10.094C11.9973 7.87488 11.9868 4.79948 10.3394 2.57412C8.34174 -0.125339 4.68118 -0.56723 2.1798 1.58869C-0.321576 3.74461 -0.731101 7.69409 1.26691 10.3932C2.41207 11.94 4.10303 12.7454 5.80908 12.7454C6.60584 12.7454 7.40584 12.5696 8.15514 12.2115L8.76925 13.041L8.41078 13.3498L11.4997 17.4246C11.8872 17.9484 12.4597 18.2211 13.0374 18.2211C13.4675 18.2211 13.9007 18.0698 14.2621 17.7583C15.1088 17.0285 15.2476 15.6912 14.5691 14.7744L11.482 10.7024L11.4824 10.7031ZM5.80837 12.125C4.27166 12.125 2.74789 11.3991 1.71634 10.0056C-0.0835548 7.57421 0.285342 4.01579 2.53899 2.07364C3.50114 1.24456 4.65314 0.841857 5.79794 0.841857C7.33465 0.841857 8.85841 1.56774 9.88996 2.96131C11.6899 5.39307 11.321 8.95109 9.06731 10.8932C8.10516 11.7223 6.95317 12.125 5.80837 12.125ZM8.67972 11.9256C8.93752 11.7665 9.1874 11.5846 9.4265 11.3782C9.70515 11.138 9.95755 10.8758 10.1837 10.5953L10.7381 11.3441L9.21868 12.6534L8.67972 11.9252V11.9256ZM13.9032 17.2737C13.3042 17.7901 12.4277 17.6842 11.9473 17.0351L9.22479 13.4437L11.3975 11.5714L14.1222 15.1659C14.6008 15.8122 14.5026 16.7581 13.9036 17.2741L13.9032 17.2737Z" fill="black"/>
</g>
<defs>
<clipPath id="clip0_149_68456">
<rect width="15" height="18" fill="white" transform="translate(0 0.221619)"/>
</clipPath>
</defs>
</svg>
