<svg width="16" height="18" viewBox="0 0 16 18" fill="none" xmlns="http://www.w3.org/2000/svg">
<g clip-path="url(#clip0_309_14048)">
<path d="M11.806 10.4817L11.5065 10.7358L10.8572 9.8726C12.329 7.65344 12.3184 4.57805 10.645 2.35268C8.61578 -0.346774 4.89742 -0.788666 2.35654 1.36725C-0.184331 3.52317 -0.600323 7.47265 1.42924 10.1717C2.59248 11.7185 4.31013 12.5239 6.04313 12.5239C6.85247 12.5239 7.6651 12.3482 8.42623 11.9901L9.05003 12.8196L8.6859 13.1284L11.8236 17.2032C12.2173 17.7269 12.7987 17.9997 13.3856 17.9997C13.8224 17.9997 14.2625 17.8484 14.6296 17.5368C15.4897 16.8071 15.6307 15.4698 14.9415 14.553L11.8057 10.4809L11.806 10.4817ZM6.0424 11.9036C4.48142 11.9036 2.9336 11.1777 1.88577 9.78414C0.0574482 7.35277 0.43217 3.79436 2.7214 1.85221C3.69875 1.02313 4.86893 0.620421 6.03181 0.620421C7.59278 0.620421 9.14061 1.3463 10.1884 2.73987C12.0168 5.17163 11.642 8.72966 9.3528 10.6718C8.37546 11.5009 7.20528 11.9036 6.0424 11.9036ZM8.95909 11.7042C9.22096 11.5451 9.47479 11.3632 9.71766 11.1568C10.0007 10.9166 10.2571 10.6543 10.4868 10.3738L11.05 11.1226L9.50656 12.432L8.95909 11.7038V11.7042ZM14.2651 17.0523C13.6566 17.5687 12.7662 17.4627 12.2783 16.8137L9.51277 13.2223L11.7198 11.35L14.4875 14.9445C14.9736 15.5908 14.8739 16.5367 14.2655 17.0527L14.2651 17.0523Z" fill="black"/>
</g>
<defs>
<clipPath id="clip0_309_14048">
<rect width="15.2368" height="18" fill="white" transform="translate(0.14209)"/>
</clipPath>
</defs>
</svg>
