<svg width="15" height="18" viewBox="0 0 15 18" fill="none" xmlns="http://www.w3.org/2000/svg">
<g clip-path="url(#clip0_149_68456)">
<path d="M11.4824 10.4815L11.1876 10.7356L10.5483 9.87242C11.9973 7.65326 11.9868 4.57786 10.3394 2.3525C8.34174 -0.346957 4.68118 -0.788849 2.1798 1.36707C-0.321576 3.52299 -0.731101 7.47247 1.26691 10.1715C2.41207 11.7184 4.10303 12.5238 5.80908 12.5238C6.60584 12.5238 7.40584 12.348 8.15514 11.9899L8.76925 12.8194L8.41078 13.1282L11.4997 17.203C11.8872 17.7268 12.4597 17.9995 13.0374 17.9995C13.4675 17.9995 13.9007 17.8482 14.2621 17.5367C15.1088 16.8069 15.2476 15.4696 14.5691 14.5528L11.482 10.4807L11.4824 10.4815ZM5.80837 11.9034C4.27166 11.9034 2.74789 11.1775 1.71634 9.78396C-0.0835548 7.35259 0.285342 3.79418 2.53899 1.85203C3.50114 1.02295 4.65314 0.620238 5.79794 0.620238C7.33465 0.620238 8.85841 1.34612 9.88996 2.73969C11.6899 5.17145 11.321 8.72947 9.06731 10.6716C8.10516 11.5007 6.95317 11.9034 5.80837 11.9034ZM8.67972 11.704C8.93752 11.5449 9.1874 11.363 9.4265 11.1566C9.70515 10.9164 9.95755 10.6542 10.1837 10.3737L10.7381 11.1224L9.21868 12.4318L8.67972 11.7036V11.704ZM13.9032 17.0521C13.3042 17.5685 12.4277 17.4626 11.9473 16.8135L9.22479 13.2221L11.3975 11.3498L14.1222 14.9443C14.6008 15.5906 14.5026 16.5365 13.9036 17.0525L13.9032 17.0521Z" fill="black"/>
</g>
<defs>
<clipPath id="clip0_149_68456">
<rect width="15" height="18" fill="white"/>
</clipPath>
</defs>
</svg>
