<svg width="41" height="20" viewBox="0 0 41 20" fill="none" xmlns="http://www.w3.org/2000/svg">
<rect x="0.933838" y="0.936035" width="39.6912" height="18" rx="3.375" fill="#F8F8F8"/>
<rect x="0.933838" y="0.936035" width="39.6912" height="18" rx="3.375" stroke="#B9B9B9" stroke-width="0.75"/>
<path d="M23.5972 11.1092L23.3433 11.3104L22.7929 10.627C24.0405 8.87012 24.0315 6.43539 22.613 4.67361C20.8933 2.5365 17.7415 2.18666 15.5878 3.89346C13.434 5.60026 13.0814 8.72699 14.8017 10.8638C15.7878 12.0884 17.2437 12.726 18.7127 12.726C19.3987 12.726 20.0875 12.5869 20.7327 12.3034L21.2614 12.96L20.9528 13.2045L23.6124 16.4305C23.9461 16.8451 24.4389 17.061 24.9364 17.061C25.3067 17.061 25.6797 16.9412 25.9909 16.6946C26.7199 16.1169 26.8394 15.0581 26.2553 14.3324L23.5972 11.1092ZM18.712 12.2349C17.3889 12.2349 16.0769 11.6602 15.1887 10.557C13.639 8.63177 13.9566 5.81496 15.897 4.27739C16.7255 3.62103 17.7174 3.30221 18.7031 3.30221C20.0262 3.30221 21.3382 3.87688 22.2264 4.98014C23.7761 6.90532 23.4585 9.72214 21.5181 11.2597C20.6896 11.9161 19.6977 12.2349 18.712 12.2349ZM21.184 12.077C21.406 11.9511 21.6212 11.807 21.827 11.6436C22.067 11.4535 22.2843 11.2459 22.479 11.0238L22.9564 11.6166L21.6481 12.6532L21.184 12.077ZM25.6816 16.311C25.1658 16.7198 24.4111 16.6359 23.9975 16.1221L21.6534 13.2789L23.5241 11.7966L25.8701 14.6423C26.2822 15.154 26.1974 15.9025 25.6816 16.311Z" fill="#558FE3"/>
<path d="M18.4933 9.53973C19.2137 9.46902 19.7399 8.8323 19.6687 8.11757C19.5974 7.40284 18.9556 6.88076 18.2352 6.95147C17.5148 7.02218 16.9886 7.6589 17.0599 8.37363C17.1312 9.08836 17.7729 9.61044 18.4933 9.53973Z" fill="#558FE3"/>
<path d="M13.2885 14.5547C13.6915 14.5547 14.0182 14.2306 14.0182 13.8308C14.0182 13.431 13.6915 13.1069 13.2885 13.1069C12.8855 13.1069 12.5588 13.431 12.5588 13.8308C12.5588 14.2306 12.8855 14.5547 13.2885 14.5547Z" fill="#558FE3"/>
<path d="M25.2383 9.94451C25.4315 9.94451 25.5884 9.78909 25.5884 9.59713C25.5884 9.40516 25.4318 9.24975 25.2383 9.24975C25.0448 9.24975 24.8881 9.40516 24.8881 9.59713C24.8881 9.78909 25.0448 9.94451 25.2383 9.94451Z" fill="#558FE3"/>
<path d="M28.0247 5.29806C28.6551 5.23619 29.1155 4.67902 29.0532 4.05359C28.9908 3.42816 28.4292 2.97131 27.7988 3.03318C27.1685 3.09506 26.708 3.65223 26.7703 4.27766C26.8327 4.90309 27.3943 5.35994 28.0247 5.29806Z" fill="#558FE3"/>
<path d="M27.1686 5.41585L25.2571 9.03118L25.6957 9.25947L27.6073 5.64413L27.1686 5.41585Z" fill="#558FE3"/>
<path d="M20.2326 8.39181L20.1312 8.87284L22.6079 9.38662L22.7092 8.90559L20.2326 8.39181Z" fill="#558FE3"/>
<path d="M23.8887 9.09279L23.7952 9.57537L24.6455 9.73768L24.739 9.25509L23.8887 9.09279Z" fill="#558FE3"/>
<path d="M17.1079 9.30254L15.808 10.7414L16.1769 11.0694L17.4768 9.63055L17.1079 9.30254Z" fill="#558FE3"/>
<path d="M15.0716 11.5704L13.7717 13.0093L14.1405 13.3373L15.4404 11.8984L15.0716 11.5704Z" fill="#558FE3"/>
</svg>
