<svg width="34" height="34" viewBox="0 0 34 34" fill="none" xmlns="http://www.w3.org/2000/svg">
<path d="M16.7029 0.666504C14.4375 0.684313 12.1994 1.16379 10.1255 2.07565C8.05165 2.9875 6.18543 4.3126 4.64089 5.96997C3.09634 7.62735 1.90591 9.58221 1.14229 11.7151C0.37868 13.8481 0.0579268 16.1143 0.199627 18.3754C0.341326 20.6364 0.942504 22.8449 1.96644 24.8658C2.99037 26.8867 4.41555 28.6776 6.15493 30.1292C7.89431 31.5808 9.91137 32.6625 12.0829 33.3083C14.2544 33.9541 16.5348 34.1504 18.7847 33.8853L18.3893 30.7432C16.5686 30.9544 14.7239 30.7926 12.9677 30.2677C11.2115 29.7427 9.58059 28.8657 8.17439 27.6899C6.76818 26.5142 5.61613 25.0644 4.78845 23.429C3.96076 21.7935 3.47479 20.0067 3.36014 18.1773C3.2455 16.3479 3.50458 14.5144 4.12161 12.7884C4.73863 11.0624 5.70067 9.48013 6.94908 8.13804C8.1975 6.79595 9.70614 5.72214 11.383 4.98206C13.06 4.24198 14.87 3.85113 16.7029 3.83334V0.666504Z" fill="#FF5500"/>
<path d="M19.0446 33.8526C23.2246 33.2932 27.0371 31.17 29.7137 27.911C32.3903 24.652 33.7319 20.4995 33.4681 16.2905C33.2043 12.0815 31.3548 8.12893 28.2923 5.22959C25.2297 2.33024 21.182 0.699656 16.9648 0.666504V3.83334C20.3764 3.86645 23.6488 5.18998 26.1242 7.53778C28.5996 9.88558 30.0942 13.0835 30.3076 16.4885C30.521 19.8935 29.4373 23.253 27.2744 25.8915C25.1115 28.53 22.0299 30.2517 18.6492 30.7105L19.0446 33.8526Z" fill="#031B57"/>
</svg>
