<svg width="34" height="34" viewBox="0 0 34 34" fill="none" xmlns="http://www.w3.org/2000/svg">
<path d="M16.7029 0.666504C13.9533 0.68812 11.2517 1.3897 8.83899 2.70871C6.42628 4.02771 4.37739 5.92317 2.87495 8.22613C1.37251 10.5291 0.463192 13.168 0.228049 15.9076C-0.00709299 18.6473 0.439244 21.4025 1.52728 23.9278C2.61531 26.4531 4.31124 28.67 6.4639 30.3809C8.61656 32.0917 11.1591 33.2434 13.8648 33.7332C16.5705 34.2231 19.3554 34.0359 21.9713 33.1883C24.5871 32.3408 26.9526 30.8592 28.8569 28.8756L26.5553 26.7004C25.0113 28.3028 23.0952 29.4986 20.9774 30.1815C18.8596 30.8645 16.6059 31.0134 14.4167 30.6149C12.2275 30.2165 10.1707 29.2832 8.42933 27.8979C6.68797 26.5126 5.31602 24.7184 4.43554 22.6748C3.55507 20.6312 3.19337 18.4017 3.38263 16.1846C3.5719 13.9675 4.30625 11.8316 5.52036 9.96684C6.73447 8.10209 8.39068 6.56636 10.3416 5.49627C12.2926 4.42619 14.4778 3.85494 16.7029 3.83334V0.666504Z" fill="#FF5500"/>
<path d="M29.0368 28.6852C31.2396 26.3173 32.7059 23.3597 33.257 20.173C33.8081 16.9863 33.4201 13.7081 32.1405 10.738C30.8608 7.7679 28.7447 5.23427 26.0501 3.44596C23.3555 1.65766 20.1988 0.691927 16.9648 0.666504V3.83334C19.58 3.85872 22.1316 4.64318 24.3093 6.09137C26.4871 7.53957 28.1973 9.58914 29.2322 11.991C30.2671 14.3929 30.582 17.0436 30.1387 19.6211C29.6954 22.1986 28.513 24.5919 26.7352 26.51L29.0368 28.6852Z" fill="#031B57"/>
<path d="M16.9416 17.3865L10.1667 23.1667V20.5103L14.273 17.3865V17.259L10.1667 14.1563V11.5L16.9416 17.259V17.3865Z" fill="#626262"/>
<path d="M21.1083 17.3865L14.3334 23.1667V20.5103L18.4397 17.3865V17.259L14.3334 14.1563V11.5L21.1083 17.259V17.3865Z" fill="#626262"/>
<path d="M25.2749 17.3865L18.5001 23.1667V20.5103L22.6064 17.3865V17.259L18.5001 14.1563V11.5L25.2749 17.259V17.3865Z" fill="#626262"/>
</svg>
