<svg width="39" height="39" viewBox="0 0 39 39" fill="none" xmlns="http://www.w3.org/2000/svg">
<path d="M19.1689 0.743896C8.73794 0.743896 0.168945 9.2407 0.168945 19.7439C0.168945 30.2471 8.66575 38.7439 19.1689 38.7439C29.6721 38.7439 38.1689 30.2471 38.1689 19.7439C38.1689 9.2407 29.6721 0.743896 19.1689 0.743896ZM17.0941 36.8781C13.9857 36.5323 11.0825 35.2897 8.73415 33.4239C9.77155 33.0097 11.5651 32.1091 13.3625 30.7297C17.0257 27.9671 19.3057 24.3723 19.9935 20.2987C22.4103 19.4019 25.0361 19.1929 27.6619 19.8161C27.4529 20.8535 26.9703 22.9929 25.9329 25.4819C24.5497 28.7993 21.9239 33.4277 17.0903 36.8819L17.0941 36.8781ZM19.3057 18.7749C17.3031 17.1181 15.8515 14.9749 15.0231 12.3491C16.0605 12.0033 18.1315 11.3117 20.8257 10.9659C24.3483 10.5517 29.5999 10.5517 35.0567 12.9685C36.2993 15.8717 36.7135 19.0485 36.2993 22.0201C35.3341 21.3285 33.7419 20.2227 31.8077 19.3943C27.4529 17.5285 23.1703 17.2511 19.3019 18.7711L19.3057 18.7749ZM33.8179 10.6239C28.7069 8.8265 23.8695 8.8265 20.5521 9.3129C17.7895 9.6587 15.7147 10.2781 14.5405 10.6923C13.7121 7.0329 14.1263 3.9891 14.1947 3.2291C21.6579 0.949096 29.6721 3.9891 33.8179 10.6201V10.6239ZM12.4657 3.7839C12.3289 5.3723 12.1883 8.4807 13.1573 12.0071C14.0579 15.3245 15.7831 18.0871 18.2683 20.0897C17.8541 22.7155 16.7483 24.9955 14.8825 27.0665C14.0541 26.3749 12.3935 24.8549 10.7367 22.6433C8.59354 19.8123 5.96775 15.2523 5.34835 9.3775C7.14575 6.9607 9.63095 5.0265 12.4657 3.7801V3.7839ZM3.90055 11.5929C4.86575 16.9129 7.35475 21.0587 9.35735 23.7529C11.0863 26.0329 12.7431 27.5529 13.6399 28.3129C13.2257 28.6587 12.8115 29.0729 12.3289 29.4187C9.91215 31.2845 7.55995 32.1129 7.21795 32.2497C1.48374 26.7207 0.377945 18.2923 3.90055 11.5929ZM19.7199 37.0149C23.8657 33.4923 26.2141 29.2781 27.5289 26.1697C28.5663 23.6123 29.1173 21.4729 29.3263 20.2949C29.8773 20.5039 30.4321 20.7091 31.0553 20.9181C33.5443 22.0239 35.3379 23.3349 35.9611 23.8897C34.0953 31.2807 27.5327 36.7413 19.7237 37.0149H19.7199Z" fill="white"/>
</svg>
