<svg width="34" height="39" viewBox="0 0 34 39" fill="none" xmlns="http://www.w3.org/2000/svg">
<path d="M12.0089 11.3541C12.5908 11.5532 13.1883 11.6509 13.7857 11.6509C14.6058 11.6509 15.418 11.4634 16.1756 11.0924C18.8779 9.76862 19.9987 6.49619 18.6748 3.7939C18.1672 2.75516 17.3588 1.92338 16.3357 1.38058C16.3201 1.37277 16.3084 1.36496 16.2928 1.35715C14.7581 0.560522 12.9266 0.540997 11.3802 1.29467C8.68184 2.61848 7.56109 5.89091 8.88099 8.5893C9.52142 9.89749 10.6344 10.8777 12.0128 11.3502L12.0089 11.3541ZM9.49409 5.44573L9.69324 4.71549C10.0798 3.64941 10.8491 2.7903 11.8644 2.29436C12.4736 1.99758 13.1258 1.84919 13.7779 1.84919C14.2582 1.84919 14.7347 1.93119 15.1955 2.0913L15.8515 2.38027C16.6481 2.80983 17.2807 3.46978 17.683 4.28594C18.0539 5.03961 18.1945 5.8831 18.0969 6.69144L17.9954 7.24596C17.683 8.49557 16.8434 9.53432 15.6914 10.0966C14.4535 10.7019 12.9852 10.6785 11.7629 10.042L11.5911 9.94825C10.8491 9.51479 10.2556 8.87827 9.87678 8.10507C9.46285 7.26158 9.33788 6.33218 9.5019 5.44183L9.49409 5.44573Z" fill="white"/>
<path d="M18.0696 6.55086L17.7689 6.41809L17.4565 7.1249L17.7533 7.25768L18.0696 6.55086Z" fill="white"/>
<path d="M16.0975 2.58724L15.3517 2.38027L15.2657 2.69658L16.0116 2.90355L16.0975 2.58724Z" fill="white"/>
<path d="M17.3237 6.2697L17.0035 6.1955L16.8317 6.95308L17.1519 7.02337L17.3237 6.2697Z" fill="white"/>
<path d="M15.1504 2.99423L15.0035 3.28753L15.6949 3.63374L15.8418 3.34044L15.1504 2.99423Z" fill="white"/>
<path d="M16.5427 6.14083L16.2147 6.12912L16.1873 6.90232L16.5115 6.91403L16.5427 6.14083Z" fill="white"/>
<path d="M14.8294 3.56504L14.6351 3.8244L15.2538 4.2881L15.4482 4.02874L14.8294 3.56504Z" fill="white"/>
<path d="M15.758 6.14626L15.4328 6.18891L15.5338 6.95942L15.859 6.91677L15.758 6.14626Z" fill="white"/>
<path d="M14.4167 4.07323L14.1787 4.29903L14.711 4.85989L14.9489 4.63409L14.4167 4.07323Z" fill="white"/>
<path d="M14.9839 6.28846L14.6733 6.38122L14.8946 7.12208L15.2052 7.02932L14.9839 6.28846Z" fill="white"/>
<path d="M14.3559 5.14505L13.9185 4.50462L13.6491 4.69206L14.0864 5.32858L14.3559 5.14505Z" fill="white"/>
<path d="M14.2465 6.54305L13.9536 6.68363L14.2856 7.38264L14.5785 7.24206L14.2621 6.5782L14.2465 6.54305Z" fill="white"/>
<path d="M13.692 5.55508L13.6764 5.52384L13.3562 4.85607L13.0633 4.99665L13.3991 5.69566L13.692 5.55508Z" fill="white"/>
<path d="M13.2859 7.09366L13.7232 7.73409L13.9927 7.55055L13.5553 6.91013L13.2859 7.09366Z" fill="white"/>
<path d="M12.9735 5.85967L12.7509 5.11771L12.4385 5.21143L12.6611 5.95339L12.9735 5.85967Z" fill="white"/>
<path d="M12.6962 7.60522L12.7197 7.63256L13.2273 8.16755L13.4655 7.94496L12.9305 7.38264L12.6962 7.60522Z" fill="white"/>
<path d="M11.8879 6.09397L12.212 6.05102L12.1105 5.28563L11.7903 5.32468L11.884 6.05492L11.8879 6.09397Z" fill="white"/>
<path d="M12.2237 8.23394L12.8134 8.67521L13.0086 8.41357L12.3877 7.94887L12.1925 8.21051L12.2237 8.23394Z" fill="white"/>
<path d="M11.1365 5.32547L11.1039 6.10189L11.4278 6.11546L11.4603 5.33904L11.1365 5.32547Z" fill="white"/>
<path d="M11.7981 8.8978L11.841 8.91732L12.4932 9.24534L12.6376 8.95247L11.9465 8.60882L11.7981 8.8978Z" fill="white"/>
<path d="M10.65 6.00025L10.8101 5.28563L10.4899 5.21534L10.3298 5.92606L10.322 5.97292L10.6383 6.04321L10.65 6.00025Z" fill="white"/>
<path d="M12.3799 9.54213L11.6301 9.33906L11.5442 9.65147L12.2901 9.85844L12.3799 9.54213Z" fill="white"/>
<path d="M10.1892 5.11381L9.8924 4.98103L9.61124 5.60584L9.57609 5.68785L9.87287 5.82062L10.1892 5.11381Z" fill="white"/>
<path d="M33.1235 5.63318C33.0649 4.44214 32.5456 3.35263 31.6591 2.55991C30.8742 1.85309 29.8667 1.45868 28.8202 1.45868C28.703 1.45868 28.582 1.46259 28.4648 1.4743C27.305 1.56802 26.2624 2.13035 25.5321 3.05194L2.22289 33.6284C1.95344 33.4722 1.66056 33.3824 1.36768 33.3746C1.34816 33.3746 1.32473 33.3746 1.3013 33.3746C0.891269 33.3746 0.539815 33.5347 0.305512 33.8237C0.0633992 34.1205 -0.0147018 34.5305 0.0829244 34.9484C0.17274 35.3311 0.407043 35.6942 0.738972 35.9715L3.53108 38.2911C3.64823 38.3887 3.76929 38.4707 3.89815 38.5371C4.1676 38.6777 4.46048 38.7519 4.74555 38.7519C5.14386 38.7519 5.49141 38.6035 5.72572 38.3379C5.98345 38.049 6.08108 37.6546 5.99516 37.2328C5.93659 36.9634 5.81163 36.7095 5.62809 36.483L31.9911 8.78455C32.776 7.93325 33.1743 6.8125 33.1196 5.63318H33.1235ZM4.77679 37.5257C4.72212 37.5882 4.63621 37.6194 4.54639 37.6194C4.43705 37.6194 4.3199 37.5765 4.21837 37.4944L1.41455 35.1592C1.32473 35.085 1.25834 34.9874 1.23491 34.8859C1.20758 34.7804 1.2271 34.6867 1.28177 34.6164C1.33644 34.55 1.42236 34.5188 1.51608 34.5188C1.62151 34.5188 1.73866 34.5618 1.83629 34.6438L4.65964 36.9946C4.74945 37.0688 4.81194 37.1664 4.83537 37.268C4.85489 37.3695 4.83537 37.4632 4.77679 37.5296V37.5257ZM30.597 7.49198L4.53077 35.499L3.35926 34.5735L27.0043 4.27032C27.4026 3.77437 27.9806 3.46978 28.621 3.41511C28.6757 3.41121 28.7382 3.4073 28.7967 3.4073C29.3903 3.4073 29.9409 3.61817 30.3822 4.01649C30.8781 4.46166 31.171 5.07085 31.2061 5.73861C31.2413 6.39466 31.0226 7.01947 30.597 7.48807V7.49198Z" fill="white"/>
</svg>
