<svg width="330" height="90" viewBox="0 0 330 90" fill="none" xmlns="http://www.w3.org/2000/svg">
<g clip-path="url(#clip0_391_7545)">
<path d="M330 27.665H0V44.3101H330V27.665Z" fill="#FFD4CF"/>
<path d="M330 11.0166H0V27.6616H330V11.0166Z" fill="#FFEDED"/>
<path d="M330 60.9551H0V77.6001H330V60.9551Z" fill="#EFF5FF"/>
<path d="M330 44.3101H0V60.9551H330V44.3101Z" fill="#D1E1FF"/>
<path d="M6.39947 42.5945H3.85372V30.5332H0V44.3098H3.13274H3.85372H6.39947H6.98646H10.2532V33.4272H6.39947V42.5945Z" fill="#FF5500"/>
<path d="M20.2102 33.9097H16.3564V44.31H20.2102V33.9097Z" fill="#FF5500"/>
<path d="M26.7431 38.8672H22.8894V44.3069H26.7431V38.8672Z" fill="#FF5500"/>
<path d="M33.1682 16.8081H29.3145V44.3103H33.1682H37.0251V33.4276H33.1682V16.8081Z" fill="#FF5500"/>
<path d="M42.5377 37.139H39.3252V44.31H42.5377H43.1821H46.3946V16.728H42.5377V37.139Z" fill="#FF5500"/>
<path d="M56.5141 29.9683H52.6572V44.3103H56.0835H56.5141H59.9404V31.6324H56.5141V29.9683Z" fill="#FF5500"/>
<path d="M66.416 42.0835H62.5623V44.3099H66.416V42.0835Z" fill="#FF5500"/>
<path d="M82.8008 16.728H78.947V25.6814H75.575V43.7542H72.3625V44.31H75.575H76.2163H78.947H79.4288H82.319H82.8008H86.176V37.6341H82.8008V16.728Z" fill="#FF5500"/>
<path d="M95.545 42.0837H92.76V27.665H88.9062V44.3101H91.6881H92.76H95.545H99.3987V27.665H95.545V42.0837Z" fill="#FF5500"/>
<path d="M109.305 31.6323H105.451V44.3101H108.823H109.305H112.677V37.1008H109.305V31.6323Z" fill="#FF5500"/>
<path d="M132.328 18.4976H128.471V42.7289H125.635V25.7325H122.422V16.728H115.248V44.31H121.778H122.422H124.617H125.635H128.471H132.328H138.938V37.6884H132.328V18.4976Z" fill="#FF5500"/>
<path d="M152.19 22.8384H148.336V44.3099H151.548H152.19H155.402V36.615H152.19V22.8384Z" fill="#FF5500"/>
<path d="M164.721 35.3824H161.613V36.0276H158.133V44.3102H161.613H161.99H164.721H165.47H168.574V30.5176H164.721V35.3824Z" fill="#FF5500"/>
<path d="M188.44 16.728H184.583V44.31H187.741H188.44H191.598V39.886H188.44V16.728Z" fill="#FF5500"/>
<path d="M197.647 41.0137H194.543V44.3102H197.647H198.397H201.504V30.0225H197.647V41.0137Z" fill="#FF5500"/>
<path d="M211.569 16.728H207.712V44.31H210.924H211.569H214.781V33.4274H211.569V16.728Z" fill="#FF5500"/>
<path d="M224.632 27.7163H220.778V44.307H224.632V27.7163Z" fill="#FF5500"/>
<path d="M231.271 33.4272H227.417V44.3099H231.271V33.4272Z" fill="#FF5500"/>
<path d="M244.498 16.728H240.641V44.31H243.962H244.498H247.815V42.138H244.498V16.728Z" fill="#FF5500"/>
<path d="M270.89 32.1655H267.036V44.3067H270.89V32.1655Z" fill="#FF5500"/>
<path d="M287.328 40.4482H283.475V44.3069H287.328V40.4482Z" fill="#FF5500"/>
<path d="M293.862 24.394H290.005V44.3099H293.38H293.862H297.234V32.1144H293.862V24.394Z" fill="#FF5500"/>
<path d="M303.285 29.8624H299.805V44.3098H303.285H303.658H307.139V23.375H303.285V29.8624Z" fill="#FF5500"/>
<path d="M323.737 27.8246V22.3018H319.88V39.9945H317.044V16.7822H313.188V44.3099H316.027H317.044H319.88H322.988H323.737H326.841V27.8246H323.737Z" fill="#FF5500"/>
<path d="M12.8245 44.3101H9.66309V71.6493H13.6253V53.9246H16.7867V44.3101H13.6253H12.8245Z" fill="#001A32"/>
<path d="M23.5308 44.3101H19.5686V53.9246H23.5308V44.3101Z" fill="#001A32"/>
<path d="M30.1184 44.3101H26.1562V60.8081H30.1184V44.3101Z" fill="#001A32"/>
<path d="M49.2311 44.3101H46.0186V48.8267H49.2311V52.0369H53.1932V44.3101H49.9807H49.2311Z" fill="#001A32"/>
<path d="M63.1526 44.3101H59.1904V49.3888H63.1526V44.3101Z" fill="#001A32"/>
<path d="M69.0419 44.3101H65.6699V63.5424H69.6321V59.7636H73.0041V44.3101H69.6321H69.0419Z" fill="#001A32"/>
<path d="M89.4934 44.3101H85.5312V71.6493H89.4934V44.3101Z" fill="#001A32"/>
<path d="M102.72 44.3101H98.7581V71.6493H102.72V44.3101Z" fill="#001A32"/>
<path d="M115.944 44.3101H111.981V53.618H115.944V44.3101Z" fill="#001A32"/>
<path d="M148.872 44.3101H144.91V53.618H148.872V44.3101Z" fill="#001A32"/>
<path d="M158.615 44.3101H154.652V71.6493H158.615V44.3101Z" fill="#001A32"/>
<path d="M195.129 44.3101H191.167V53.519H195.129V44.3101Z" fill="#001A32"/>
<path d="M208.248 44.3101H204.285V60.1917H208.248V44.3101Z" fill="#001A32"/>
<path d="M218.153 44.3101H214.19V60.7538H218.153V44.3101Z" fill="#001A32"/>
<path d="M228.113 44.3101H224.15V53.6787H228.113V44.3101Z" fill="#001A32"/>
<path d="M237.106 44.3101H234.592H234.056H230.63V56.3299H234.056V71.6493H238.018V50.6027H241.068V44.3101H238.018H237.106Z" fill="#001A32"/>
<path d="M253.813 44.3101H251.082H250.333H247.12V61.9197H251.082V56.8952H253.813V71.6493H257.775V44.3101H254.295H253.813Z" fill="#001A32"/>
<path d="M267.626 44.3101H263.664V56.3714H267.626V44.3101Z" fill="#001A32"/>
<path d="M276.781 44.3101H274.21H273.301H270.248V66.3437H274.21V60.8752H276.781V67.9121H280.744V44.3101H277.263H276.781Z" fill="#001A32"/>
<path d="M290.595 44.3101H286.633V71.6493H290.595V44.3101Z" fill="#001A32"/>
<path d="M300.555 44.3101H296.593V53.717H300.555V44.3101Z" fill="#001A32"/>
<path d="M330.003 44.3101H326.469V64.1333H330.003V44.3101Z" fill="#001A32"/>
<path d="M313.724 44.3101H306.549V71.6493H313.724V44.3101Z" fill="#001A32"/>
<path d="M181.102 44.3101H171.896H171.465H167.933V62.9259H171.465V71.6493H181.747V49.737H185.065V44.3101H181.747H181.102Z" fill="#001A32"/>
<path d="M84.7276 9.2696C87.284 9.2696 89.3565 7.19453 89.3565 4.6348C89.3565 2.07507 87.284 0 84.7276 0C82.1711 0 80.0986 2.07507 80.0986 4.6348C80.0986 7.19453 82.1711 9.2696 84.7276 9.2696Z" fill="#F0F0FF"/>
<path d="M87.2062 4.80429H83.6332V3.48188L86.4725 2.51084C86.5618 2.4789 86.6224 2.39905 86.6288 2.30642C86.6352 2.21378 86.5809 2.12435 86.498 2.08601L83.5024 0.674174C83.4322 0.639038 83.3461 0.645426 83.2823 0.686951C83.2153 0.728476 83.1738 0.801943 83.1738 0.881798V3.31259C83.1738 3.31259 83.1738 3.31898 83.1738 3.32217V5.03427C83.1738 5.03427 83.1738 5.05024 83.1738 5.05663C83.1738 5.06302 83.1738 5.06941 83.1738 5.0726C83.1738 5.09177 83.1802 5.10774 83.1898 5.12371L84.5871 8.47443C84.6253 8.56387 84.7083 8.61498 84.8008 8.61498C84.8295 8.61498 84.8614 8.60859 84.8901 8.59581C85.0082 8.5479 85.0624 8.41055 85.0145 8.29556L84.469 6.98593C85.4484 6.44292 85.5505 5.68269 85.5218 5.26425H87.2094C87.337 5.26425 87.4391 5.16204 87.4391 5.03427C87.4391 4.9065 87.337 4.80429 87.2094 4.80429H87.2062ZM83.6332 1.24594L85.7834 2.2585L83.6332 2.99317V1.24594ZM84.2872 6.55791L83.7481 5.26425H85.0592C85.0911 5.53576 85.0496 6.11391 84.2872 6.55791Z" fill="#0B0075"/>
<path d="M98.0908 9.2696C100.647 9.2696 102.72 7.19453 102.72 4.6348C102.72 2.07507 100.647 0 98.0908 0C95.5344 0 93.4619 2.07507 93.4619 4.6348C93.4619 7.19453 95.5344 9.2696 98.0908 9.2696Z" fill="#F0F0FF"/>
<path d="M100.569 4.80429H96.9965V3.48188L99.8357 2.51084C99.9251 2.4789 99.9857 2.39905 99.9921 2.30642C99.9984 2.21378 99.9442 2.12435 99.8613 2.08601L96.8657 0.674174C96.7955 0.639038 96.7094 0.645426 96.6456 0.686951C96.5786 0.728476 96.5371 0.801943 96.5371 0.881798V3.31259C96.5371 3.31259 96.5371 3.31898 96.5371 3.32217V5.03427C96.5371 5.03427 96.5371 5.05024 96.5371 5.05663C96.5371 5.06302 96.5371 5.06941 96.5371 5.0726C96.5371 5.09177 96.5435 5.10774 96.5531 5.12371L97.9504 8.47443C97.9886 8.56387 98.0716 8.61498 98.1641 8.61498C98.1928 8.61498 98.2247 8.60859 98.2534 8.59581C98.3715 8.5479 98.4257 8.41055 98.3778 8.29556L97.8323 6.98593C98.8117 6.44292 98.9138 5.68269 98.8851 5.26425H100.573C100.7 5.26425 100.802 5.16204 100.802 5.03427C100.802 4.9065 100.7 4.80429 100.573 4.80429H100.569ZM96.9933 1.24594L99.1435 2.2585L96.9933 2.99317V1.24594ZM97.6505 6.55791L97.1113 5.26425H98.4225C98.4544 5.53576 98.4129 6.11391 97.6505 6.55791Z" fill="#0B0075"/>
<path d="M198.022 9.2696C200.579 9.2696 202.651 7.19453 202.651 4.6348C202.651 2.07507 200.579 0 198.022 0C195.466 0 193.394 2.07507 193.394 4.6348C193.394 7.19453 195.466 9.2696 198.022 9.2696Z" fill="#F0F0FF"/>
<path d="M200.501 4.80429H196.928V3.48188L199.767 2.51084C199.857 2.4789 199.917 2.39905 199.924 2.30642C199.93 2.21378 199.876 2.12435 199.793 2.08601L196.797 0.674174C196.727 0.639038 196.641 0.645426 196.577 0.686951C196.51 0.728476 196.469 0.801943 196.469 0.881798V3.31259C196.469 3.31259 196.469 3.31898 196.469 3.32217V5.03427C196.469 5.03427 196.469 5.05024 196.469 5.05663C196.469 5.06302 196.469 5.06941 196.469 5.0726C196.469 5.09177 196.475 5.10774 196.485 5.12371L197.882 8.47443C197.92 8.56387 198.003 8.61498 198.096 8.61498C198.124 8.61498 198.156 8.60859 198.185 8.59581C198.303 8.5479 198.357 8.41055 198.309 8.29556L197.764 6.98593C198.743 6.44292 198.845 5.68269 198.817 5.26425H200.504C200.632 5.26425 200.734 5.16204 200.734 5.03427C200.734 4.9065 200.632 4.80429 200.504 4.80429H200.501ZM196.928 1.24594L199.078 2.2585L196.928 2.99317V1.24594ZM197.582 6.55791L197.043 5.26425H198.354C198.386 5.53576 198.345 6.11391 197.582 6.55791Z" fill="#0B0075"/>
<path d="M46.3945 89.1182C48.951 89.1182 51.0235 87.0432 51.0235 84.4834C51.0235 81.9237 48.951 79.8486 46.3945 79.8486C43.8381 79.8486 41.7656 81.9237 41.7656 84.4834C41.7656 87.0432 43.8381 89.1182 46.3945 89.1182Z" fill="#F0F0FF"/>
<path d="M47.4154 81.3916H45.3705C44.7785 81.3916 44.2986 81.8721 44.2986 82.4649V86.5023C44.2986 87.0951 44.7785 87.5756 45.3705 87.5756H47.4154C48.0074 87.5756 48.4873 87.0951 48.4873 86.5023V82.4649C48.4873 81.8721 48.0074 81.3916 47.4154 81.3916Z" fill="#FFBD33"/>
<path d="M119.877 9.2696C122.433 9.2696 124.506 7.19453 124.506 4.6348C124.506 2.07507 122.433 0 119.877 0C117.32 0 115.248 2.07507 115.248 4.6348C115.248 7.19453 117.32 9.2696 119.877 9.2696Z" fill="#F0F0FF"/>
<path d="M120.898 1.54297H118.853C118.261 1.54297 117.781 2.02348 117.781 2.61622V6.6537C117.781 7.24645 118.261 7.72696 118.853 7.72696H120.898C121.49 7.72696 121.969 7.24645 121.969 6.6537V2.61622C121.969 2.02348 121.49 1.54297 120.898 1.54297Z" fill="#FFBD33"/>
<path d="M148.872 9.2696C151.429 9.2696 153.501 7.19453 153.501 4.6348C153.501 2.07507 151.429 0 148.872 0C146.316 0 144.243 2.07507 144.243 4.6348C144.243 7.19453 146.316 9.2696 148.872 9.2696Z" fill="#F0F0FF"/>
<path d="M149.893 1.54297H147.848C147.256 1.54297 146.776 2.02348 146.776 2.61622V6.6537C146.776 7.24645 147.256 7.72696 147.848 7.72696H149.893C150.485 7.72696 150.965 7.24645 150.965 6.6537V2.61622C150.965 2.02348 150.485 1.54297 149.893 1.54297Z" fill="#FFBD33"/>
<path d="M207.712 9.2696C210.268 9.2696 212.341 7.19453 212.341 4.6348C212.341 2.07507 210.268 0 207.712 0C205.155 0 203.083 2.07507 203.083 4.6348C203.083 7.19453 205.155 9.2696 207.712 9.2696Z" fill="#F0F0FF"/>
<path d="M208.736 1.54297H206.691C206.099 1.54297 205.619 2.02348 205.619 2.61622V6.6537C205.619 7.24645 206.099 7.72696 206.691 7.72696H208.736C209.328 7.72696 209.808 7.24645 209.808 6.6537V2.61622C209.808 2.02348 209.328 1.54297 208.736 1.54297Z" fill="#FFBD33"/>
<path d="M201.503 89.1182C204.059 89.1182 206.132 87.0432 206.132 84.4834C206.132 81.9237 204.059 79.8486 201.503 79.8486C198.946 79.8486 196.874 81.9237 196.874 84.4834C196.874 87.0432 198.946 89.1182 201.503 89.1182Z" fill="#F0F0FF"/>
<path d="M205.242 84.3586L203.854 81.9502L202.466 84.3586H203.341V84.5471C203.341 85.8695 202.033 86.9459 200.425 86.9459V87.9777C202.6 87.9777 204.374 86.4381 204.374 84.5471V84.3586H205.248H205.242Z" fill="#FF3333"/>
<path d="M202.581 82.0205V80.9888C200.406 80.9888 198.632 82.5284 198.632 84.4194V84.6078H197.758L199.146 87.0162L200.533 84.6078H199.659V84.4194C199.659 83.0969 200.967 82.0205 202.575 82.0205H202.581Z" fill="#299439"/>
<path d="M220.778 9.2696C223.335 9.2696 225.407 7.19453 225.407 4.6348C225.407 2.07507 223.335 0 220.778 0C218.222 0 216.149 2.07507 216.149 4.6348C216.149 7.19453 218.222 9.2696 220.778 9.2696Z" fill="#F0F0FF"/>
<path d="M224.517 4.51L223.13 2.10156L221.742 4.51H222.616V4.69845C222.616 6.02086 221.308 7.09731 219.7 7.09731V8.12904C221.876 8.12904 223.65 6.58943 223.65 4.69845V4.51H224.524H224.517Z" fill="#FF3333"/>
<path d="M221.857 2.17187V1.14014C219.681 1.14014 217.907 2.67975 217.907 4.57072V4.75918H217.033L218.421 7.16761L219.809 4.75918H218.935V4.57072C218.935 3.24832 220.242 2.17187 221.85 2.17187H221.857Z" fill="#299439"/>
<path d="M261.016 9.2696C263.572 9.2696 265.645 7.19453 265.645 4.6348C265.645 2.07507 263.572 0 261.016 0C258.459 0 256.387 2.07507 256.387 4.6348C256.387 7.19453 258.459 9.2696 261.016 9.2696Z" fill="#F0F0FF"/>
<path d="M264.755 4.51L263.367 2.10156L261.979 4.51H262.854V4.69845C262.854 6.02086 261.546 7.09731 259.938 7.09731V8.12904C262.113 8.12904 263.887 6.58943 263.887 4.69845V4.51H264.761H264.755Z" fill="#FF3333"/>
<path d="M262.097 2.17187V1.14014C259.922 1.14014 258.148 2.67975 258.148 4.57072V4.75918H257.274L258.661 7.16761L260.049 4.75918H259.175V4.57072C259.175 3.24832 260.483 2.17187 262.091 2.17187H262.097Z" fill="#299439"/>
<path d="M264.755 89.1182C267.311 89.1182 269.384 87.0432 269.384 84.4834C269.384 81.9237 267.311 79.8486 264.755 79.8486C262.198 79.8486 260.126 81.9237 260.126 84.4834C260.126 87.0432 262.198 89.1182 264.755 89.1182Z" fill="#F0F0FF"/>
<path d="M268.494 84.3586L267.106 81.9502L265.718 84.3586H266.593V84.5471C266.593 85.8695 265.285 86.9459 263.677 86.9459V87.9777C265.852 87.9777 267.626 86.4381 267.626 84.5471V84.3586H268.5H268.494Z" fill="#FF3333"/>
<path d="M265.836 82.0205V80.9888C263.661 80.9888 261.887 82.5284 261.887 84.4194V84.6078H261.013L262.4 87.0162L263.788 84.6078H262.914V84.4194C262.914 83.0969 264.222 82.0205 265.83 82.0205H265.836Z" fill="#299439"/>
<path d="M275.496 89.1182C278.053 89.1182 280.125 87.0432 280.125 84.4834C280.125 81.9237 278.053 79.8486 275.496 79.8486C272.94 79.8486 270.867 81.9237 270.867 84.4834C270.867 87.0432 272.94 89.1182 275.496 89.1182Z" fill="#F0F0FF"/>
<path d="M279.235 84.3586L277.848 81.9502L276.46 84.3586H277.334V84.5471C277.334 85.8695 276.026 86.9459 274.418 86.9459V87.9777C276.594 87.9777 278.368 86.4381 278.368 84.5471V84.3586H279.242H279.235Z" fill="#FF3333"/>
<path d="M276.578 82.0205V80.9888C274.402 80.9888 272.628 82.5284 272.628 84.4194V84.6078H271.754L273.142 87.0162L274.53 84.6078H273.655V84.4194C273.655 83.0969 274.963 82.0205 276.571 82.0205H276.578Z" fill="#299439"/>
<path d="M205.242 89.1182C207.799 89.1182 209.871 87.0432 209.871 84.4834C209.871 81.9237 207.799 79.8486 205.242 79.8486C202.686 79.8486 200.613 81.9237 200.613 84.4834C200.613 87.0432 202.686 89.1182 205.242 89.1182Z" fill="#F0F0FF"/>
<path d="M207.721 84.6529H204.148V83.3305L206.987 82.3595C207.076 82.3275 207.137 82.2477 207.143 82.1551C207.15 82.0624 207.096 81.973 207.013 81.9347L204.017 80.5228C203.947 80.4877 203.861 80.4941 203.797 80.5356C203.73 80.5771 203.688 80.6506 203.688 80.7304V83.1612C203.688 83.1612 203.688 83.1676 203.688 83.1708V84.8829C203.688 84.8829 203.688 84.8989 203.688 84.9053C203.688 84.9117 203.688 84.918 203.688 84.9212C203.688 84.9404 203.695 84.9564 203.704 84.9723L205.102 88.3231C205.14 88.4125 205.223 88.4636 205.315 88.4636C205.344 88.4636 205.376 88.4572 205.405 88.4445C205.523 88.3965 205.577 88.2592 205.529 88.1442L204.984 86.8346C205.963 86.2916 206.065 85.5313 206.036 85.1129H207.724C207.852 85.1129 207.954 85.0107 207.954 84.8829C207.954 84.7551 207.852 84.6529 207.724 84.6529H207.721ZM204.148 81.0978L206.298 82.1103L204.148 82.845V81.0946V81.0978ZM204.802 86.4097L204.263 85.1161H205.574C205.606 85.3876 205.564 85.9657 204.802 86.4097Z" fill="#0B0075"/>
<path d="M216.172 89.1182C218.728 89.1182 220.801 87.0432 220.801 84.4834C220.801 81.9237 218.728 79.8486 216.172 79.8486C213.615 79.8486 211.543 81.9237 211.543 84.4834C211.543 87.0432 213.615 89.1182 216.172 89.1182Z" fill="#F0F0FF"/>
<path d="M218.651 84.6529H215.078V83.3305L217.917 82.3595C218.006 82.3275 218.067 82.2477 218.073 82.1551C218.08 82.0624 218.025 81.973 217.943 81.9347L214.947 80.5228C214.877 80.4877 214.791 80.4941 214.727 80.5356C214.66 80.5771 214.618 80.6506 214.618 80.7304V83.1612C214.618 83.1612 214.618 83.1676 214.618 83.1708V84.8829C214.618 84.8829 214.618 84.8989 214.618 84.9053C214.618 84.9117 214.618 84.918 214.618 84.9212C214.618 84.9404 214.625 84.9564 214.634 84.9723L216.032 88.3231C216.07 88.4125 216.153 88.4636 216.245 88.4636C216.274 88.4636 216.306 88.4572 216.335 88.4445C216.453 88.3965 216.507 88.2592 216.459 88.1442L215.914 86.8346C216.893 86.2916 216.995 85.5313 216.966 85.1129H218.654C218.782 85.1129 218.884 85.0107 218.884 84.8829C218.884 84.7551 218.782 84.6529 218.654 84.6529H218.651ZM215.078 81.0978L217.228 82.1103L215.078 82.845V81.0946V81.0978ZM215.732 86.4097L215.193 85.1161H216.504C216.536 85.3876 216.494 85.9657 215.732 86.4097Z" fill="#0B0075"/>
<path d="M242.49 89.1182C245.047 89.1182 247.119 87.0432 247.119 84.4834C247.119 81.9237 245.047 79.8486 242.49 79.8486C239.934 79.8486 237.861 81.9237 237.861 84.4834C237.861 87.0432 239.934 89.1182 242.49 89.1182Z" fill="#F0F0FF"/>
<path d="M244.969 84.6529H241.396V83.3305L244.235 82.3595C244.324 82.3275 244.385 82.2477 244.391 82.1551C244.398 82.0624 244.344 81.973 244.261 81.9347L241.265 80.5228C241.195 80.4877 241.109 80.4941 241.045 80.5356C240.978 80.5771 240.937 80.6506 240.937 80.7304V83.1612C240.937 83.1612 240.937 83.1676 240.937 83.1708V84.8829C240.937 84.8829 240.937 84.8989 240.937 84.9053C240.937 84.9117 240.937 84.918 240.937 84.9212C240.937 84.9404 240.943 84.9564 240.952 84.9723L242.35 88.3231C242.388 88.4125 242.471 88.4636 242.563 88.4636C242.592 88.4636 242.624 88.4572 242.653 88.4445C242.771 88.3965 242.825 88.2592 242.777 88.1442L242.232 86.8346C243.211 86.2916 243.313 85.5313 243.284 85.1129H244.972C245.1 85.1129 245.202 85.0107 245.202 84.8829C245.202 84.7551 245.1 84.6529 244.972 84.6529H244.969ZM241.396 81.0978L243.546 82.1103L241.396 82.845V81.0946V81.0978ZM242.05 86.4097L241.511 85.1161H242.822C242.854 85.3876 242.812 85.9657 242.05 86.4097Z" fill="#0B0075"/>
<path d="M245.834 89.1182C248.39 89.1182 250.463 87.0432 250.463 84.4834C250.463 81.9237 248.39 79.8486 245.834 79.8486C243.278 79.8486 241.205 81.9237 241.205 84.4834C241.205 87.0432 243.278 89.1182 245.834 89.1182Z" fill="#F0F0FF"/>
<path d="M248.313 84.6529H244.74V83.3305L247.579 82.3595C247.668 82.3275 247.729 82.2477 247.735 82.1551C247.742 82.0624 247.687 81.973 247.604 81.9347L244.609 80.5228C244.539 80.4877 244.453 80.4941 244.389 80.5356C244.322 80.5771 244.28 80.6506 244.28 80.7304V83.1612C244.28 83.1612 244.28 83.1676 244.28 83.1708V84.8829C244.28 84.8829 244.28 84.8989 244.28 84.9053C244.28 84.9117 244.28 84.918 244.28 84.9212C244.28 84.9404 244.287 84.9564 244.296 84.9723L245.694 88.3231C245.732 88.4125 245.815 88.4636 245.907 88.4636C245.936 88.4636 245.968 88.4572 245.997 88.4445C246.115 88.3965 246.169 88.2592 246.121 88.1442L245.575 86.8346C246.555 86.2916 246.657 85.5313 246.628 85.1129H248.316C248.443 85.1129 248.546 85.0107 248.546 84.8829C248.546 84.7551 248.443 84.6529 248.316 84.6529H248.313ZM244.74 81.0978L246.89 82.1103L244.74 82.845V81.0946V81.0978ZM245.394 86.4097L244.855 85.1161H246.166C246.198 85.3876 246.156 85.9657 245.394 86.4097Z" fill="#0B0075"/>
<path d="M250.463 89.1182C253.019 89.1182 255.092 87.0432 255.092 84.4834C255.092 81.9237 253.019 79.8486 250.463 79.8486C247.906 79.8486 245.834 81.9237 245.834 84.4834C245.834 87.0432 247.906 89.1182 250.463 89.1182Z" fill="#F0F0FF"/>
<path d="M252.942 84.6529H249.369V83.3305L252.208 82.3595C252.297 82.3275 252.358 82.2477 252.364 82.1551C252.371 82.0624 252.316 81.973 252.233 81.9347L249.238 80.5228C249.168 80.4877 249.081 80.4941 249.018 80.5356C248.951 80.5771 248.909 80.6506 248.909 80.7304V83.1612C248.909 83.1612 248.909 83.1676 248.909 83.1708V84.8829C248.909 84.8829 248.909 84.8989 248.909 84.9053C248.909 84.9117 248.909 84.918 248.909 84.9212C248.909 84.9404 248.916 84.9564 248.925 84.9723L250.322 88.3231C250.361 88.4125 250.444 88.4636 250.536 88.4636C250.565 88.4636 250.597 88.4572 250.625 88.4445C250.744 88.3965 250.798 88.2592 250.75 88.1442L250.204 86.8346C251.184 86.2916 251.286 85.5313 251.257 85.1129H252.945C253.072 85.1129 253.174 85.0107 253.174 84.8829C253.174 84.7551 253.072 84.6529 252.945 84.6529H252.942ZM249.369 81.0978L251.519 82.1103L249.369 82.845V81.0946V81.0978ZM250.023 86.4097L249.483 85.1161H250.795C250.826 85.3876 250.785 85.9657 250.023 86.4097Z" fill="#0B0075"/>
<path d="M283.475 9.2696C286.031 9.2696 288.104 7.19453 288.104 4.6348C288.104 2.07507 286.031 0 283.475 0C280.918 0 278.846 2.07507 278.846 4.6348C278.846 7.19453 280.918 9.2696 283.475 9.2696Z" fill="#F0F0FF"/>
<path d="M285.953 4.80429H282.38V3.48188L285.22 2.51084C285.309 2.4789 285.369 2.39905 285.376 2.30642C285.382 2.21378 285.328 2.12435 285.245 2.08601L282.249 0.674174C282.179 0.639038 282.093 0.645426 282.029 0.686951C281.962 0.728476 281.921 0.801943 281.921 0.881798V3.31259C281.921 3.31259 281.921 3.31898 281.921 3.32217V5.03427C281.921 5.03427 281.921 5.05024 281.921 5.05663C281.921 5.06302 281.921 5.06941 281.921 5.0726C281.921 5.09177 281.927 5.10774 281.937 5.12371L283.334 8.47443C283.372 8.56387 283.455 8.61498 283.548 8.61498C283.577 8.61498 283.608 8.60859 283.637 8.59581C283.755 8.5479 283.809 8.41055 283.762 8.29556L283.216 6.98593C284.196 6.44292 284.298 5.68269 284.269 5.26425H285.956C286.084 5.26425 286.186 5.16204 286.186 5.03427C286.186 4.9065 286.084 4.80429 285.956 4.80429H285.953ZM282.38 1.24594L284.53 2.2585L282.38 2.99317V1.24594ZM283.034 6.55791L282.495 5.26425H283.806C283.838 5.53576 283.797 6.11391 283.034 6.55791Z" fill="#0B0075"/>
<path d="M290.595 9.2696C293.151 9.2696 295.224 7.19453 295.224 4.6348C295.224 2.07507 293.151 0 290.595 0C288.038 0 285.966 2.07507 285.966 4.6348C285.966 7.19453 288.038 9.2696 290.595 9.2696Z" fill="#F0F0FF"/>
<path d="M294.334 4.51L292.946 2.10156L291.559 4.51H292.433V4.69845C292.433 6.02086 291.125 7.09731 289.517 7.09731V8.12904C291.693 8.12904 293.466 6.58943 293.466 4.69845V4.51H294.34H294.334Z" fill="#FF3333"/>
<path d="M291.676 2.17187V1.14014C289.501 1.14014 287.727 2.67975 287.727 4.57072V4.75918H286.853L288.241 7.16761L289.628 4.75918H288.754V4.57072C288.754 3.24832 290.062 2.17187 291.67 2.17187H291.676Z" fill="#299439"/>
<path d="M287.042 89.2943C289.695 89.2943 291.846 87.1406 291.846 84.4838C291.846 81.8271 289.695 79.6733 287.042 79.6733C284.388 79.6733 282.237 81.8271 282.237 84.4838C282.237 87.1406 284.388 89.2943 287.042 89.2943Z" fill="#CFF2FF"/>
<path d="M288.006 80.0153C285.638 79.5106 283.322 80.9225 282.662 83.1904C282.209 84.7236 282.576 86.4517 283.775 87.6718C285.568 89.5021 288.526 89.5373 290.318 87.6718C291.119 86.835 291.607 85.7202 291.607 84.4808C291.607 82.3184 290.076 80.4689 288.006 80.0153ZM290.634 84.5319L291.103 83.711C291.209 84.2508 291.189 84.8098 291.087 85.3145C291.052 85.2794 290.653 84.583 290.634 84.5287V84.5319ZM290.06 87.3205H288.825L288.095 86.0652L288.825 84.8098H290.271L290.915 85.9246C290.724 86.4293 290.427 86.918 290.063 87.3205H290.06ZM285.603 84.5319C286.194 83.4842 286.299 83.3277 286.318 83.2766H287.779L288.475 84.4968L287.744 85.7521H286.299L285.603 84.5319ZM290.287 84.27H288.861L288.165 83.0307C288.321 82.7528 288.774 81.983 288.915 81.7562H290.149C290.497 82.1586 290.775 82.6282 290.95 83.1329L290.29 84.2668L290.287 84.27ZM288.825 81.3218L288.408 80.6063C288.877 80.7628 289.294 81.0087 289.677 81.3218H288.825ZM287.814 80.4338C287.884 80.5551 288.388 81.4463 288.459 81.5485C288.424 81.5997 288.545 81.392 287.744 82.8039H286.264L285.549 81.5837L286.21 80.4338C286.749 80.3284 287.288 80.3284 287.811 80.4338H287.814ZM285.638 80.5903L285.17 81.4112H284.283C284.665 81.063 285.134 80.7819 285.638 80.5903ZM283.846 81.8456H285.185L285.9 83.0658C285.693 83.414 285.31 84.1135 285.15 84.3563H283.74L283.096 83.2223C283.252 82.7336 283.514 82.2641 283.846 81.8456ZM282.943 83.8516C283.118 84.1486 283.22 84.3211 283.361 84.583L282.962 85.2634C282.892 84.8098 282.876 84.3211 282.946 83.8516H282.943ZM283.744 84.8098H285.189C285.275 84.9504 285.814 85.8895 285.884 86.03L285.154 87.3205H283.986C283.603 86.902 283.291 86.4133 283.115 85.8735L283.74 84.8098H283.744ZM285.24 87.7581L285.587 88.3842C285.189 88.2276 284.806 88.0168 284.474 87.7581H285.24ZM286.197 88.5598L285.607 87.4962C285.849 87.0777 286.095 86.6401 286.337 86.2057H287.696L288.411 87.461L287.785 88.5598C287.262 88.6652 286.707 88.6652 286.203 88.5598H286.197ZM288.353 88.4193L288.736 87.7581H289.588C289.221 88.036 288.806 88.2628 288.353 88.4193Z" fill="#0D80D9"/>
<path d="M277.851 89.2943C280.504 89.2943 282.655 87.1406 282.655 84.4838C282.655 81.8271 280.504 79.6733 277.851 79.6733C275.197 79.6733 273.046 81.8271 273.046 84.4838C273.046 87.1406 275.197 89.2943 277.851 89.2943Z" fill="#CFF2FF"/>
<path d="M278.813 80.0153C276.446 79.5106 274.13 80.9225 273.47 83.1904C273.017 84.7236 273.384 86.4517 274.583 87.6718C276.376 89.5021 279.333 89.5373 281.126 87.6718C281.927 86.835 282.415 85.7202 282.415 84.4808C282.415 82.3184 280.884 80.4689 278.813 80.0153ZM281.442 84.5319L281.911 83.711C282.016 84.2508 281.997 84.8098 281.895 85.3145C281.86 85.2794 281.461 84.583 281.442 84.5287V84.5319ZM280.868 87.3205H279.633L278.903 86.0652L279.633 84.8098H281.078L281.723 85.9246C281.531 86.4293 281.235 86.918 280.871 87.3205H280.868ZM276.411 84.5319C277.001 83.4842 277.107 83.3277 277.126 83.2766H278.587L279.282 84.4968L278.552 85.7521H277.107L276.411 84.5319ZM281.094 84.27H279.668L278.973 83.0307C279.129 82.7528 279.582 81.983 279.723 81.7562H280.957C281.305 82.1586 281.583 82.6282 281.758 83.1329L281.098 84.2668L281.094 84.27ZM279.63 81.3218L279.212 80.6063C279.681 80.7628 280.099 81.0087 280.482 81.3218H279.63ZM278.622 80.4338C278.692 80.5551 279.196 81.4463 279.266 81.5485C279.231 81.5997 279.353 81.392 278.552 82.8039H277.072L276.357 81.5837L277.017 80.4338C277.557 80.3284 278.096 80.3284 278.619 80.4338H278.622ZM276.446 80.5903L275.977 81.4112H275.091C275.473 81.063 275.942 80.7819 276.446 80.5903ZM274.653 81.8456H275.993L276.708 83.0658C276.501 83.414 276.118 84.1135 275.958 84.3563H274.548L273.904 83.2223C274.06 82.7336 274.322 82.2641 274.653 81.8456ZM273.747 83.8516C273.923 84.1486 274.025 84.3211 274.165 84.583L273.767 85.2634C273.696 84.8098 273.68 84.3211 273.751 83.8516H273.747ZM274.548 84.8098H275.993C276.079 84.9504 276.619 85.8895 276.689 86.03L275.958 87.3205H274.791C274.408 86.902 274.095 86.4133 273.92 85.8735L274.545 84.8098H274.548ZM276.044 87.7581L276.392 88.3842C275.993 88.2276 275.611 88.0168 275.279 87.7581H276.044ZM277.005 88.5598L276.414 87.4962C276.657 87.0777 276.903 86.6401 277.145 86.2057H278.504L279.219 87.461L278.593 88.5598C278.07 88.6652 277.515 88.6652 277.011 88.5598H277.005ZM279.161 88.4193L279.544 87.7581H280.396C280.029 88.036 279.614 88.2628 279.161 88.4193Z" fill="#0D80D9"/>
</g>
<defs>
<clipPath id="clip0_391_7545">
<rect width="330" height="89.2941" fill="white"/>
</clipPath>
</defs>
</svg>
