<svg width="40" height="38" viewBox="0 0 40 38" fill="none" xmlns="http://www.w3.org/2000/svg">
<path d="M39.1082 1.87847L36.4784 0.148704C36.134 -0.129154 35.5783 0.0117318 35.3004 0.356119L14.5393 27.4844C13.5688 28.7289 12.1169 29.4216 10.5945 29.4216H4.0903C2.56796 29.4216 1.32347 30.4587 0.975165 31.8441L0.423363 33.9887C-0.0619104 36.0628 1.46044 38.0039 3.5385 38.0039H10.4576C12.6021 38.0039 14.6098 36.9668 15.9247 35.2371L39.2452 3.05251C39.5935 2.70813 39.5231 2.15241 39.1082 1.87455V1.87847ZM28.3109 15.3017C26.996 13.9868 27.1329 14.0573 26.996 14.0573L27.8256 13.0202L29.0701 14.2647L28.307 15.3017H28.3109ZM5.26826 36.3407L7.20544 31.1514H8.79823L6.86106 36.3407H5.26826ZM2.0866 34.47L2.6384 32.3254C2.77537 31.6327 3.39762 31.1475 4.0903 31.1475H5.33479L3.39762 36.3368C2.49751 36.1998 1.87527 35.3662 2.08268 34.4661L2.0866 34.47ZM14.5393 34.2626C13.5688 35.5775 12.1169 36.3368 10.5241 36.3368H8.72388L10.6611 31.1475C12.7352 31.1475 14.6763 30.1769 15.9912 28.5176L25.955 15.4387L27.2699 16.7536L14.5354 34.2626H14.5393ZM28.8666 11.5683L36.134 2.01935L37.3119 2.78248L30.115 12.8167L28.8666 11.5683Z" fill="white"/>
<path d="M5.24478 16.3623V19.8218C5.24478 21.5516 7.73768 22.4517 10.1601 22.4517C12.5826 22.4517 15.0716 21.5516 15.0716 19.8218V16.3623C15.0716 14.6325 12.5787 13.7324 10.1601 13.7324C7.74159 13.7324 5.24478 14.6325 5.24478 16.3623ZM13.3418 19.8218C13.2048 20.0997 12.1638 20.7219 10.1601 20.7219C8.15642 20.7219 7.11543 20.0997 6.97455 19.8218V18.3699C8.77475 19.133 11.5416 19.133 13.3418 18.3699V19.8218ZM13.3418 16.3623C13.2714 16.4993 13.1344 16.5697 12.9935 16.6402C11.8155 17.3328 9.25611 17.4698 7.66332 16.7771C7.45591 16.7067 7.11152 16.4993 6.97063 16.3623C7.10761 16.0844 8.21512 15.5326 10.1562 15.5326C12.0973 15.5326 13.1305 16.0844 13.3379 16.3623H13.3418Z" fill="white"/>
</svg>
