<svg width="19" height="18" viewBox="0 0 19 18" fill="none" xmlns="http://www.w3.org/2000/svg">
<path d="M8.61174 17.1162C8.61174 17.4068 8.37336 17.64 8.08055 17.64H1.68368C1.38898 17.64 1.15248 17.4049 1.15248 17.1162V8.23372H8.61362V17.1162H8.61174Z" fill="#F6D04E"/>
<path d="M17.4675 17.1162C17.4675 17.4068 17.2291 17.64 16.9363 17.64H10.5394C10.2447 17.64 10.0082 17.4049 10.0082 17.1162V8.23372H17.4675V17.1162Z" fill="#F6D04E"/>
<path d="M0.529312 3.51947H7.51181C6.91868 3.38991 6.1979 3.28071 5.44897 3.28071C2.7273 3.28071 1.56543 2.7495 1.56543 1.50384C1.56543 1.29654 1.63863 0.989289 1.98588 0.694996C2.68037 0.106409 4.13318 -0.141611 5.59913 0.0804968C7.40482 0.352579 8.74314 2.2516 9.24054 3.06415C9.77174 2.26086 11.2133 0.352579 13.019 0.0804968C14.4849 -0.13976 15.9377 0.106409 16.6322 0.694996C16.9795 0.989289 17.0527 1.29654 17.0527 1.50384C17.0527 2.7495 15.8908 3.28071 13.1691 3.28071C12.4202 3.28071 11.6732 3.38991 11.0481 3.51947H18.0888C18.3835 3.51947 18.62 3.75454 18.62 4.04328V7.15834C18.62 7.44894 18.3816 7.68215 18.0888 7.68215H0.531189C0.236498 7.68215 -5.72205e-06 7.44708 -5.72205e-06 7.15834V4.04328C-5.72205e-06 3.75269 0.238375 3.51947 0.531189 3.51947H0.529312ZM5.48463 0.813454C5.15428 0.763479 4.83707 0.741269 4.53862 0.741269C3.58134 0.741269 2.81552 0.968929 2.47578 1.25767C2.40445 1.31875 2.31811 1.41129 2.31811 1.50569C2.31811 1.81479 2.31811 2.5422 5.45085 2.5422C6.53576 2.5422 7.54935 2.74579 8.25887 2.93644C7.68262 2.12759 6.68217 0.992991 5.48839 0.813454H5.48463ZM16.3019 1.50569C16.3019 1.41129 16.2155 1.31875 16.1442 1.25767C15.8026 0.968929 15.0386 0.741269 14.0814 0.741269C13.7829 0.741269 13.4638 0.763479 13.1354 0.813454C11.9378 0.992991 10.8717 2.12944 10.2485 2.94199C10.9993 2.7495 12.0711 2.54034 13.171 2.54034C16.3038 2.54034 16.3038 1.81479 16.3038 1.50384L16.3019 1.50569Z" fill="#F6D04E"/>
</svg>
