<svg width="16" height="20" viewBox="0 0 16 20" fill="none" xmlns="http://www.w3.org/2000/svg">
<path d="M12.6762 14.1646C12.5092 13.9288 12.2576 13.7637 11.9688 13.6969C10.6345 12.1426 10.7838 10.4487 10.8153 10.2011C11.0806 9.58207 11.2083 8.87268 11.1906 8.09255C11.1592 6.54997 10.5677 4.89538 9.52619 3.43533C8.48667 1.97528 7.11505 0.876807 5.66483 0.342308C4.16941 -0.203982 2.77028 -0.093938 1.72486 0.654754C-0.399382 2.16982 -0.360081 5.88577 1.81525 8.93556C2.86067 10.3976 4.23229 11.4941 5.67662 12.0247C6.28775 12.2506 6.89103 12.3666 7.4668 12.3685C7.71636 12.4314 9.47117 12.9364 10.5264 14.7541C10.5009 15.041 10.5755 15.3201 10.7386 15.548L13.2755 19.1048C13.4622 19.3642 13.7354 19.5352 14.0459 19.5843C14.1127 19.5961 14.1795 19.6 14.2463 19.6C14.4939 19.6 14.7317 19.5234 14.9341 19.3799C15.0677 19.2836 15.1777 19.1638 15.2603 19.0262C15.3389 18.8965 15.39 18.755 15.4155 18.6057C15.4686 18.2913 15.3959 17.9769 15.2111 17.7194L12.6762 14.1626V14.1646ZM5.8967 11.4292C4.56635 10.9399 3.30085 9.92203 2.33403 8.56416C0.750184 6.34756 0.329659 3.65738 1.31023 2.02637C1.51656 1.68249 1.77988 1.39559 2.09429 1.17353C2.59342 0.817855 3.19473 0.639033 3.85893 0.639033C4.35805 0.639033 4.89059 0.739252 5.44277 0.943619C6.77509 1.43489 8.0406 2.45083 9.00741 3.80673C9.97619 5.16656 10.5264 6.69342 10.5559 8.1063C10.5854 9.47989 10.1196 10.5784 9.24715 11.1993C8.37466 11.8203 7.18579 11.9028 5.89867 11.4312L5.8967 11.4292ZM10.8349 14.0506C10.1747 13.0897 9.35326 12.512 8.70676 12.1779C9.03296 12.0698 9.33754 11.9166 9.61658 11.7181C9.82488 11.5668 10.0175 11.3939 10.1865 11.2013C10.267 11.8969 10.5186 12.8382 11.2142 13.7775C11.1395 13.8089 11.0747 13.8463 11.0137 13.8875C10.9509 13.9327 10.8899 13.9878 10.833 14.0506H10.8349ZM14.7867 18.5035C14.7631 18.6489 14.6845 18.7766 14.5666 18.8611C14.4448 18.9476 14.2974 18.981 14.152 18.9555C14.0046 18.9319 13.8788 18.8513 13.7943 18.7314L11.2574 15.1766C11.171 15.0568 11.1375 14.9113 11.1631 14.764C11.1729 14.6991 11.1985 14.6343 11.2358 14.5694C11.2751 14.5046 11.3242 14.4495 11.3851 14.4063C11.4795 14.3395 11.5915 14.3041 11.7055 14.3041C11.7369 14.3041 11.7664 14.3061 11.7978 14.312C11.9432 14.3356 12.071 14.4161 12.1555 14.536L14.6943 18.0908C14.7788 18.2087 14.8122 18.3541 14.7867 18.5035Z" fill="white"/>
<path d="M13.533 4.99363C13.9437 4.99363 14.3583 4.86983 14.7179 4.61437C14.9459 4.45324 15.1365 4.2469 15.2819 4.0052C15.7024 3.3076 15.667 2.42528 15.1954 1.76109C14.879 1.31698 14.4074 1.02222 13.869 0.933794C13.3325 0.843401 12.7902 0.9672 12.3441 1.28554C11.898 1.59995 11.6033 2.07157 11.5129 2.61393C11.4225 3.15236 11.5463 3.69275 11.8646 4.13882C12.2635 4.6969 12.8943 4.99559 13.533 4.99559V4.99363ZM12.1417 2.71611C12.1712 2.53926 12.2321 2.37419 12.3225 2.22288C12.4227 2.05781 12.5524 1.91633 12.7116 1.80236C12.9533 1.62943 13.2362 1.541 13.5271 1.541C13.6057 1.541 13.6823 1.5469 13.7609 1.56065C14.1323 1.62353 14.4566 1.82594 14.6747 2.13249C14.8928 2.43707 14.9773 2.81044 14.9164 3.18184C14.8535 3.55323 14.6531 3.87747 14.3465 4.09559C14.0419 4.31371 13.6705 4.40018 13.2972 4.3373C12.9258 4.27441 12.5996 4.07201 12.3814 3.76546C12.1633 3.46087 12.0769 3.08948 12.1397 2.71611H12.1417Z" fill="white"/>
<path d="M9.75021 10.1618C10.1157 9.55259 10.2768 8.74691 10.2159 7.83316C10.1334 6.54407 9.60872 5.13512 8.7775 3.96786C7.94431 2.80258 6.78295 1.84755 5.59015 1.35039C4.30303 0.81196 3.12988 0.845366 2.28687 1.44668C1.44582 2.04602 1.03119 3.1445 1.12158 4.5397C1.20805 5.83272 1.73075 7.24167 2.56001 8.40303C3.41482 9.60172 4.60958 10.5666 5.83972 11.05C6.41155 11.276 6.96963 11.388 7.48055 11.388C8.08186 11.388 8.62029 11.2327 9.04868 10.9262C9.32772 10.7257 9.56353 10.4703 9.74824 10.1637L9.75021 10.1618ZM8.59082 10.4644L7.86767 9.3384L8.33143 8.24189L9.06833 9.38949L8.62226 10.4447C8.61243 10.4506 8.60261 10.4585 8.59082 10.4644ZM5.3681 10.1323L4.81395 9.27159L5.27771 8.17508L6.01461 9.32268L5.6157 10.2679C5.53317 10.2266 5.45063 10.1814 5.3681 10.1343V10.1323ZM1.75827 4.49647C1.72093 3.9207 1.78381 3.40585 1.93512 2.9755L2.30062 3.54341L1.83687 4.63992L1.7622 4.52201C1.7622 4.52201 1.76023 4.50629 1.76023 4.49843L1.75827 4.49647ZM1.89386 5.25105L2.63076 6.39866L2.41853 6.90171C2.16897 6.38097 1.98425 5.83861 1.87224 5.30411L1.89386 5.25105ZM2.02748 4.93664L2.49124 3.84013L3.22814 4.98773L2.76438 6.08424L2.02748 4.93664ZM3.08862 2.42921L3.82552 3.57681L3.36176 4.67332L2.62486 3.52572L3.08862 2.42921ZM3.02967 1.81611L3.00412 1.77484C3.02181 1.76698 3.03949 1.75912 3.05718 1.75126L3.02967 1.81611ZM4.61351 2.46262L5.35041 3.61022L4.88666 4.70673L4.14976 3.56109L4.61351 2.46458V2.46262ZM4.55653 1.84952L4.43862 1.66677C4.49954 1.67856 4.55849 1.68838 4.61941 1.70214L4.55653 1.85148V1.84952ZM9.20981 6.16285C9.33165 6.50084 9.42401 6.84276 9.48689 7.18075L9.06047 6.51656L9.20981 6.16285ZM9.57728 7.84298C9.57728 7.85281 9.57925 7.8646 9.58121 7.87442C9.58711 7.97268 9.58711 8.06504 9.58711 8.15936L9.19999 9.07312L8.46309 7.92552L8.92684 6.82901L9.57728 7.84102V7.84298ZM8.27051 7.62879L7.53361 6.48119L7.99736 5.38468L8.73427 6.53228L8.27051 7.62879ZM7.343 6.18446L6.60609 5.03686L7.06985 3.94035L7.80675 5.08795L7.343 6.18446ZM5.87509 6.76416L6.61199 7.91176L6.14823 9.00827L5.41133 7.86067L5.87509 6.76416ZM5.21875 7.56198L4.48185 6.41438L4.94561 5.31787L5.68251 6.46547L5.21875 7.56198ZM6.00871 6.44975L6.47247 5.35324L7.20937 6.50084L6.74561 7.59735L6.00871 6.44975ZM7.0109 3.32725L6.5609 2.62768C6.75151 2.76524 6.93623 2.91655 7.11701 3.07572L7.0109 3.32529V3.32725ZM6.87727 3.64363L6.41352 4.74014L5.67662 3.5945L6.14037 2.49799L6.87727 3.64559V3.64363ZM6.27989 5.05455L5.81614 6.15106L5.07923 5.00346L5.54299 3.90695L6.27989 5.05455ZM4.73928 4.9956L4.755 5.02114L4.29124 6.11765L3.55434 4.97005L4.0181 3.87354L4.73928 4.9956ZM3.42071 5.28446L4.15762 6.4301L3.69386 7.52661L2.95696 6.38097L3.42071 5.28446ZM4.34823 6.73075L5.08513 7.87835L4.62137 8.97486L3.88447 7.82923L4.34823 6.73272V6.73075ZM4.68033 9.586L4.7943 9.76286C4.74714 9.72748 4.69801 9.69211 4.65085 9.65674L4.68033 9.586ZM6.20718 9.62137L6.91265 10.7179C6.57858 10.6589 6.23077 10.5489 5.88098 10.3936L6.20718 9.62137ZM6.34081 9.30499L6.80457 8.20849L7.54147 9.35412L7.07771 10.4506L6.34081 9.30303V9.30499ZM6.93623 7.89407L7.39998 6.79757L8.13688 7.94517L7.67313 9.04167L6.93623 7.89407ZM9.25894 9.68818L9.27269 9.7098C9.25108 9.75303 9.22357 9.79037 9.19999 9.82967L9.25894 9.68818ZM9.39256 9.37181L9.45741 9.21657C9.43973 9.27552 9.42597 9.3384 9.40632 9.39539L9.39256 9.37181ZM9.05654 5.77376L8.86789 6.21787L8.13099 5.07223L8.37073 4.50826C8.63994 4.90913 8.87182 5.33555 9.05654 5.77573V5.77376ZM8.17029 4.22529L7.93841 4.77354L7.20151 3.62594L7.34496 3.28598C7.64365 3.57288 7.92073 3.88926 8.17029 4.22332V4.22529ZM5.93404 2.23074L5.48404 3.29384L4.74714 2.14821L4.90238 1.77877C5.04779 1.82397 5.19517 1.87506 5.34452 1.93795C5.54299 2.02048 5.7395 2.12266 5.93404 2.23074ZM3.87268 1.60781C3.93753 1.60781 4.00631 1.61567 4.07312 1.6196L4.39146 2.11284L4.42487 2.16393L3.96111 3.26044L3.22421 2.11284L3.42071 1.64908C3.56613 1.62157 3.71744 1.60585 3.87465 1.60585L3.87268 1.60781ZM2.66023 1.96546C2.68971 1.94384 2.72115 1.92615 2.75259 1.9065L2.89801 2.13249L2.43425 3.229L2.07268 2.66502C2.09429 2.62179 2.11591 2.57856 2.13949 2.53926C2.27901 2.30738 2.4539 2.1148 2.6622 1.96742L2.66023 1.96546ZM2.59146 7.24364L2.82333 6.69538L3.56023 7.84298L3.33622 8.36962C3.24779 8.25958 3.16133 8.14757 3.07879 8.03163C2.89997 7.7801 2.73687 7.51482 2.58949 7.24364H2.59146ZM3.54844 8.62312L3.75281 8.14167L4.48971 9.28927L4.41308 9.47006C4.11045 9.2205 3.81962 8.93753 3.54844 8.62508V8.62312ZM7.27422 10.7591L7.26832 10.7493L7.73208 9.65281L8.33732 10.5941C8.02095 10.7297 7.65937 10.7827 7.27422 10.7591Z" fill="white"/>
</svg>
