<svg width="40" height="38" viewBox="0 0 40 38" fill="none" xmlns="http://www.w3.org/2000/svg">
<path d="M38.7749 1.87847L36.145 0.148704C35.8006 -0.129154 35.2449 0.0117318 34.967 0.356119L14.206 27.4844C13.2354 28.7289 11.7835 29.4216 10.2612 29.4216H3.75693C2.23458 29.4216 0.990092 30.4587 0.641791 31.8441L0.0899885 33.9887C-0.395284 36.0628 1.12706 38.0039 3.20513 38.0039H10.1242C12.2688 38.0039 14.2764 36.9668 15.5913 35.2371L38.9118 3.05251C39.2601 2.70813 39.1897 2.15241 38.7749 1.87455V1.87847ZM27.9775 15.3017C26.6626 13.9868 26.7996 14.0573 26.6626 14.0573L27.4923 13.0202L28.7367 14.2647L27.9736 15.3017H27.9775ZM4.93489 36.3407L6.87207 31.1514H8.46486L6.52768 36.3407H4.93489ZM1.75322 34.47L2.30502 32.3254C2.442 31.6327 3.06424 31.1475 3.75693 31.1475H5.00142L3.06424 36.3368C2.16414 36.1998 1.54189 35.3662 1.74931 34.4661L1.75322 34.47ZM14.206 34.2626C13.2354 35.5775 11.7835 36.3368 10.1907 36.3368H8.3905L10.3277 31.1475C12.4018 31.1475 14.3429 30.1769 15.6579 28.5176L25.6216 15.4387L26.9365 16.7536L14.202 34.2626H14.206ZM28.5332 11.5683L35.8006 2.01935L36.9786 2.78248L29.7816 12.8167L28.5332 11.5683Z" fill="white"/>
<path d="M4.91141 16.3623V19.8218C4.91141 21.5516 7.4043 22.4517 9.82676 22.4517C12.2492 22.4517 14.7382 21.5516 14.7382 19.8218V16.3623C14.7382 14.6325 12.2453 13.7324 9.82676 13.7324C7.40822 13.7324 4.91141 14.6325 4.91141 16.3623ZM13.0084 19.8218C12.8715 20.0997 11.8305 20.7219 9.82676 20.7219C7.82305 20.7219 6.78206 20.0997 6.64117 19.8218V18.3699C8.44138 19.133 11.2082 19.133 13.0084 18.3699V19.8218ZM13.0084 16.3623C12.938 16.4993 12.801 16.5697 12.6601 16.6402C11.4822 17.3328 8.92274 17.4698 7.32995 16.7771C7.12253 16.7067 6.77815 16.4993 6.63726 16.3623C6.77423 16.0844 7.88175 15.5326 9.82284 15.5326C11.7639 15.5326 12.7971 16.0844 13.0045 16.3623H13.0084Z" fill="white"/>
</svg>
