<svg width="18" height="20" viewBox="0 0 18 20" fill="none" xmlns="http://www.w3.org/2000/svg">
<path d="M6.29711 5.58304C6.60329 5.68784 6.91768 5.73921 7.23208 5.73921C7.6636 5.73921 8.09101 5.64057 8.48966 5.44536C9.91162 4.74876 10.5014 3.02678 9.80477 1.60481C9.53764 1.05821 9.11228 0.620528 8.5739 0.334901C8.56569 0.330791 8.55952 0.326681 8.5513 0.322572C7.74374 -0.0966217 6.78 -0.106896 5.96628 0.289694C4.54636 0.986294 3.95661 2.70827 4.65116 4.12819C4.98816 4.81657 5.5738 5.33234 6.29917 5.58098L6.29711 5.58304ZM4.97377 2.47402L5.07857 2.08976C5.282 1.52878 5.68681 1.07671 6.22108 0.81574C6.54164 0.65957 6.8848 0.581485 7.22797 0.581485C7.48071 0.581485 7.73141 0.624637 7.97388 0.708887L8.3191 0.860947C8.73829 1.08698 9.07118 1.43426 9.28284 1.86372C9.47805 2.26031 9.55202 2.70417 9.50065 3.12952L9.44723 3.42131C9.28284 4.07887 8.84104 4.62547 8.23485 4.92137C7.58346 5.23987 6.81083 5.22754 6.16765 4.8926L6.07724 4.84328C5.68681 4.61519 5.37447 4.28025 5.17515 3.87339C4.95734 3.42953 4.89158 2.94047 4.97788 2.47196L4.97377 2.47402Z" fill="white"/>
<path d="M9.48627 3.05555L9.32804 2.98568L9.16365 3.35761L9.31982 3.42748L9.48627 3.05555Z" fill="white"/>
<path d="M8.44856 0.969855L8.05608 0.860947L8.01087 1.02739L8.40335 1.1363L8.44856 0.969855Z" fill="white"/>
<path d="M9.09379 2.9076L8.92529 2.86855L8.83487 3.2672L9.00337 3.30419L9.09379 2.9076Z" fill="white"/>
<path d="M7.95018 1.18402L7.8729 1.33836L8.2367 1.52053L8.31398 1.36619L7.95018 1.18402Z" fill="white"/>
<path d="M8.68281 2.83979L8.5102 2.83362L8.49582 3.24049L8.66637 3.24665L8.68281 2.83979Z" fill="white"/>
<path d="M7.78128 1.48438L7.679 1.62086L8.00457 1.86486L8.10686 1.72839L7.78128 1.48438Z" fill="white"/>
<path d="M8.2699 2.84264L8.09876 2.86508L8.15192 3.27053L8.32307 3.24809L8.2699 2.84264Z" fill="white"/>
<path d="M7.56409 1.7518L7.43888 1.87061L7.71895 2.16574L7.84416 2.04693L7.56409 1.7518Z" fill="white"/>
<path d="M7.86255 2.91747L7.69913 2.96628L7.81557 3.35613L7.97899 3.30732L7.86255 2.91747Z" fill="white"/>
<path d="M7.53209 2.31579L7.30194 1.9788L7.16015 2.07743L7.3903 2.41237L7.53209 2.31579Z" fill="white"/>
<path d="M7.47455 3.05144L7.32043 3.12541L7.4951 3.49324L7.64921 3.41926L7.48277 3.06993L7.47455 3.05144Z" fill="white"/>
<path d="M7.18276 2.53156L7.17454 2.51512L7.00604 2.16373L6.85192 2.23771L7.02864 2.60553L7.18276 2.53156Z" fill="white"/>
<path d="M6.96905 3.34117L7.1992 3.67817L7.34098 3.58159L7.11084 3.2446L6.96905 3.34117Z" fill="white"/>
<path d="M6.80466 2.69184L6.68754 2.30141L6.52315 2.35073L6.64027 2.74115L6.80466 2.69184Z" fill="white"/>
<path d="M6.65877 3.61036L6.6711 3.62475L6.93823 3.90626L7.06358 3.78914L6.78206 3.49323L6.65877 3.61036Z" fill="white"/>
<path d="M6.23341 2.81513L6.40396 2.79252L6.35054 2.38977L6.18204 2.41032L6.23135 2.79458L6.23341 2.81513Z" fill="white"/>
<path d="M6.41013 3.9412L6.72041 4.1734L6.82316 4.03572L6.49643 3.79119L6.39369 3.92887L6.41013 3.9412Z" fill="white"/>
<path d="M5.83802 2.41073L5.82089 2.81929L5.9913 2.82644L6.00842 2.41788L5.83802 2.41073Z" fill="white"/>
<path d="M6.18615 4.29052L6.20875 4.3008L6.55191 4.47341L6.62794 4.31929L6.26423 4.13846L6.18615 4.29052Z" fill="white"/>
<path d="M5.58202 2.76581L5.66627 2.38977L5.49777 2.35278L5.41352 2.72677L5.40941 2.75143L5.57585 2.78841L5.58202 2.76581Z" fill="white"/>
<path d="M6.49232 4.62958L6.09779 4.52272L6.05258 4.68711L6.44506 4.79602L6.49232 4.62958Z" fill="white"/>
<path d="M5.33954 2.29936L5.18337 2.22949L5.03542 2.55827L5.01693 2.60142L5.1731 2.67129L5.33954 2.29936Z" fill="white"/>
<path d="M17.4078 2.57265C17.377 1.94592 17.1037 1.37261 16.6372 0.955471C16.2242 0.58354 15.694 0.375998 15.1433 0.375998C15.0817 0.375998 15.018 0.378053 14.9563 0.384218C14.346 0.433535 13.7974 0.729436 13.4131 1.21438L1.14761 17.304C1.00582 17.2218 0.851706 17.1746 0.697591 17.1704C0.687317 17.1704 0.674987 17.1704 0.662658 17.1704C0.446897 17.1704 0.261959 17.2547 0.138666 17.4068C0.0112645 17.5629 -0.0298328 17.7787 0.0215389 17.9986C0.0688009 18.1999 0.192093 18.391 0.366757 18.5369L1.83599 19.7575C1.89763 19.8089 1.96134 19.852 2.02915 19.887C2.17093 19.961 2.32505 20 2.47505 20C2.68465 20 2.86753 19.9219 2.99083 19.7822C3.12645 19.6301 3.17782 19.4226 3.13261 19.2007C3.10179 19.0589 3.03603 18.9253 2.93945 18.8061L16.8119 4.23093C17.2249 3.78297 17.4345 3.19322 17.4057 2.57265H17.4078ZM2.49149 19.3548C2.46272 19.3876 2.41752 19.4041 2.37025 19.4041C2.31272 19.4041 2.25107 19.3815 2.19765 19.3383L0.722249 18.1095C0.674987 18.0705 0.640055 18.0191 0.627725 17.9657C0.613341 17.9102 0.623616 17.8609 0.652384 17.8239C0.681152 17.789 0.726359 17.7725 0.775676 17.7725C0.831157 17.7725 0.892804 17.7951 0.944175 17.8383L2.42985 19.0753C2.47711 19.1144 2.50999 19.1657 2.52232 19.2191C2.53259 19.2726 2.52232 19.3219 2.49149 19.3568V19.3548ZM16.0783 3.55077L2.36204 18.2883L1.74557 17.8013L14.1878 1.8555C14.3974 1.59454 14.7015 1.43426 15.0385 1.40549C15.0673 1.40343 15.1002 1.40138 15.131 1.40138C15.4433 1.40138 15.7331 1.51234 15.9653 1.72194C16.2262 1.95619 16.3804 2.27675 16.3988 2.62813C16.4173 2.97335 16.3023 3.30213 16.0783 3.54872V3.55077Z" fill="white"/>
</svg>
