<svg width="21" height="20" viewBox="0 0 21 20" fill="none" xmlns="http://www.w3.org/2000/svg">
<path d="M20.0336 1.83228L20.0211 1.73638C19.9735 1.36911 19.2634 0.681494 18.9219 0.681494L15.4749 1.30178L15.5391 0H4.85668L4.92085 1.30178L1.47598 0.681494C1.13439 0.681494 0.424302 1.36911 0.376686 1.73638L0.364265 1.83228C-0.093257 5.39074 0.40567 7.34136 1.84862 8.44521C3.14252 9.43481 4.80492 8.91655 5.69512 8.59212C6.23545 9.38992 7.06562 10.1387 7.66184 10.604C8.08417 10.9365 8.29534 11.4997 8.20632 12.0588L7.54591 15.2275H12.854L12.1936 12.0588C12.1066 11.4997 12.3157 10.9365 12.7381 10.604C13.3343 10.1367 14.1624 9.38992 14.7048 8.59212C15.595 8.91655 17.2574 9.43277 18.5513 8.44521C19.9942 7.34136 20.4932 5.39074 20.0356 1.83228H20.0336ZM2.75332 7.04346C1.98319 6.45174 1.66023 5.4295 1.80722 3.27076C1.82585 3.00959 2.02252 2.39135 2.26474 2.39135L4.95191 3.00959C4.82976 4.85003 5.00366 5.72944 5.34318 6.92512C4.62688 7.25974 3.6166 7.70659 2.75539 7.04346H2.75332ZM17.6445 7.04346C16.7833 7.70659 15.773 7.25974 15.0567 6.92512C15.3962 5.72944 15.5681 4.85003 15.448 3.00959L18.1352 2.39135C18.3753 2.39135 18.5741 3.00959 18.5927 3.27076C18.7376 5.42746 18.4167 6.4497 17.6466 7.04346H17.6445Z" fill="#F6D04E"/>
<path d="M13.6738 16.0294H6.72196C6.25775 16.0294 5.88144 16.4003 5.88144 16.8578V19.1716C5.88144 19.6291 6.25775 20 6.72196 20H13.6738C14.138 20 14.5143 19.6291 14.5143 19.1716V16.8578C14.5143 16.4003 14.138 16.0294 13.6738 16.0294Z" fill="#F6D04E"/>
</svg>
