<svg width="20" height="20" viewBox="0 0 20 20" fill="none" xmlns="http://www.w3.org/2000/svg">
<path d="M10 0.199951C4.61981 0.199951 0.200012 4.58251 0.200012 9.99995C0.200012 15.4174 4.58257 19.8 10 19.8C15.4175 19.8 19.8 15.4174 19.8 9.99995C19.8 4.58251 15.4175 0.199951 10 0.199951ZM8.92985 18.8376C7.32657 18.6592 5.82913 18.0183 4.61785 17.056C5.15293 16.8423 6.07805 16.3778 7.00513 15.6663C8.89457 14.2414 10.0706 12.3872 10.4253 10.2861C11.6719 9.82355 13.0263 9.71575 14.3806 10.0372C14.2728 10.5723 14.0239 11.6758 13.4888 12.9596C12.7754 14.6706 11.421 17.0579 8.92789 18.8396L8.92985 18.8376ZM10.0706 9.50015C9.03765 8.64559 8.28893 7.54015 7.86165 6.18579C8.39673 6.00743 9.46493 5.65071 10.8546 5.47235C12.6715 5.25871 15.3802 5.25871 18.1948 6.50527C18.8357 8.00271 19.0493 9.64127 18.8357 11.174C18.3379 10.8173 17.5166 10.2469 16.519 9.81963C14.2728 8.85727 12.0639 8.71419 10.0686 9.49819L10.0706 9.50015ZM17.5558 5.29595C14.9196 4.36887 12.4245 4.36887 10.7135 4.61975C9.28853 4.79811 8.21837 5.11759 7.61273 5.33123C7.18545 3.44375 7.39909 1.87379 7.43437 1.48179C11.2838 0.305791 15.4175 1.87379 17.5558 5.29399V5.29595ZM6.54257 1.76795C6.47201 2.58723 6.39949 4.19051 6.89929 6.00939C7.36381 7.72047 8.25365 9.14539 9.53549 10.1783C9.32185 11.5327 8.75149 12.7087 7.78913 13.7769C7.36185 13.4202 6.50533 12.6362 5.65077 11.4954C4.54533 10.0352 3.19097 7.68323 2.87149 4.65307C3.79857 3.40651 5.08041 2.40887 6.54257 1.76599V1.76795ZM2.12473 5.79575C2.62257 8.53975 3.90637 10.6781 4.93929 12.0678C5.83109 13.2438 6.68565 14.0278 7.14821 14.4198C6.93457 14.5981 6.72093 14.8118 6.47201 14.9901C5.22545 15.9525 4.01221 16.3798 3.83581 16.4503C0.878172 13.5985 0.307812 9.25123 2.12473 5.79575ZM10.2842 18.9082C12.4226 17.0912 13.6339 14.9176 14.312 13.3143C14.8471 11.9952 15.1313 10.8918 15.2391 10.2842C15.5233 10.392 15.8095 10.4978 16.1309 10.6056C17.4147 11.176 18.3398 11.8522 18.6613 12.1383C17.6989 15.9505 14.314 18.767 10.2862 18.9082H10.2842Z" fill="white"/>
</svg>
