<svg width="15" height="18" viewBox="0 0 15 18" fill="none" xmlns="http://www.w3.org/2000/svg">
<g clip-path="url(#clip0_149_61023)">
<path d="M11.4824 10.4815L11.1876 10.7356L10.5483 9.87242C11.9973 7.65326 11.9868 4.57786 10.3394 2.3525C8.34173 -0.346957 4.68117 -0.788849 2.17979 1.36707C-0.321591 3.52299 -0.731117 7.47247 1.26689 10.1715C2.41206 11.7184 4.10301 12.5238 5.80907 12.5238C6.60583 12.5238 7.40582 12.348 8.15512 11.9899L8.76923 12.8194L8.41076 13.1282L11.4996 17.203C11.8872 17.7268 12.4596 17.9995 13.0374 17.9995C13.4674 17.9995 13.9007 17.8482 14.2621 17.5367C15.1088 16.8069 15.2476 15.4696 14.5691 14.5528L11.482 10.4807L11.4824 10.4815ZM5.80835 11.9034C4.27164 11.9034 2.74787 11.1775 1.71633 9.78396C-0.0835701 7.35259 0.285327 3.79418 2.53898 1.85203C3.50113 1.02295 4.65312 0.620238 5.79792 0.620238C7.33463 0.620238 8.8584 1.34612 9.88994 2.73969C11.6898 5.17145 11.3209 8.72947 9.0673 10.6716C8.10515 11.5007 6.95315 11.9034 5.80835 11.9034ZM8.6797 11.704C8.9375 11.5449 9.18738 11.363 9.42648 11.1566C9.70513 10.9164 9.95754 10.6542 10.1837 10.3737L10.7381 11.1224L9.21867 12.4318L8.6797 11.7036V11.704ZM13.9032 17.0521C13.3042 17.5685 12.4276 17.4626 11.9473 16.8135L9.22478 13.2221L11.3975 11.3498L14.1222 14.9443C14.6007 15.5906 14.5026 16.5365 13.9036 17.0525L13.9032 17.0521Z" fill="white"/>
</g>
<defs>
<clipPath id="clip0_149_61023">
<rect width="15" height="18" fill="white"/>
</clipPath>
</defs>
</svg>
