<svg width="34" height="38" viewBox="0 0 34 38" fill="none" xmlns="http://www.w3.org/2000/svg">
<path d="M12.2984 10.6061C12.8802 10.8053 13.4777 10.9029 14.0752 10.9029C14.8952 10.9029 15.7075 10.7155 16.465 10.3445C19.1673 9.02069 20.2881 5.74827 18.9643 3.04598C18.4566 2.00723 17.6483 1.17546 16.6252 0.632657C16.6095 0.624847 16.5978 0.617037 16.5822 0.609227C15.0475 -0.187403 13.2161 -0.206928 11.6697 0.546746C8.97127 1.87056 7.85052 5.14298 9.17042 7.84137C9.81085 9.14956 10.9238 10.1297 12.3023 10.6022L12.2984 10.6061ZM9.78351 4.69781L9.98267 3.96757C10.3693 2.90149 11.1386 2.04238 12.1539 1.54644C12.7631 1.24965 13.4152 1.10126 14.0673 1.10126C14.5477 1.10126 15.0241 1.18327 15.4849 1.34338L16.1409 1.63235C16.9376 2.0619 17.5702 2.72186 17.9724 3.53801C18.3434 4.29168 18.484 5.13517 18.3863 5.94352L18.2848 6.49804C17.9724 7.74765 17.1328 8.78639 15.9808 9.34872C14.7429 9.954 13.2746 9.93057 12.0523 9.29405L11.8805 9.20033C11.1386 8.76687 10.545 8.13035 10.1662 7.35715C9.75227 6.51366 9.62731 5.58425 9.79132 4.6939L9.78351 4.69781Z" fill="white"/>
<path d="M18.359 5.80294L18.0583 5.67017L17.7459 6.37698L18.0427 6.50975L18.359 5.80294Z" fill="white"/>
<path d="M16.3869 1.83932L15.6411 1.63235L15.5552 1.94866L16.301 2.15562L16.3869 1.83932Z" fill="white"/>
<path d="M17.6131 5.52177L17.2929 5.44758L17.1211 6.20516L17.4413 6.27545L17.6131 5.52177Z" fill="white"/>
<path d="M15.4398 2.24631L15.293 2.53961L15.9843 2.88582L16.1312 2.59251L15.4398 2.24631Z" fill="white"/>
<path d="M16.8321 5.39291L16.5041 5.38119L16.4768 6.15439L16.8009 6.16611L16.8321 5.39291Z" fill="white"/>
<path d="M15.1189 2.81711L14.9245 3.07647L15.5432 3.54018L15.7376 3.28082L15.1189 2.81711Z" fill="white"/>
<path d="M16.0474 5.39834L15.7222 5.44098L15.8232 6.21149L16.1485 6.16885L16.0474 5.39834Z" fill="white"/>
<path d="M14.7061 3.32531L14.4682 3.5511L15.0004 4.11196L15.2383 3.88617L14.7061 3.32531Z" fill="white"/>
<path d="M15.2733 5.54054L14.9627 5.6333L15.184 6.37416L15.4946 6.2814L15.2733 5.54054Z" fill="white"/>
<path d="M14.6453 4.39712L14.2079 3.75669L13.9385 3.94414L14.3758 4.58066L14.6453 4.39712Z" fill="white"/>
<path d="M14.536 5.79513L14.2431 5.93571L14.575 6.63471L14.8679 6.49413L14.5516 5.83027L14.536 5.79513Z" fill="white"/>
<path d="M13.9814 4.80715L13.9658 4.77591L13.6456 4.10815L13.3527 4.24873L13.6886 4.94773L13.9814 4.80715Z" fill="white"/>
<path d="M13.5753 6.34574L14.0127 6.98617L14.2821 6.80263L13.8448 6.1622L13.5753 6.34574Z" fill="white"/>
<path d="M13.2629 5.11174L13.0403 4.36979L12.7279 4.46351L12.9505 5.20547L13.2629 5.11174Z" fill="white"/>
<path d="M12.9857 6.8573L13.0091 6.88463L13.5167 7.41963L13.7549 7.19704L13.22 6.63471L12.9857 6.8573Z" fill="white"/>
<path d="M12.1773 5.34605L12.5014 5.30309L12.3999 4.5377L12.0797 4.57675L12.1734 5.307L12.1773 5.34605Z" fill="white"/>
<path d="M12.5131 7.48601L13.1028 7.92728L13.2981 7.66564L12.6772 7.20094L12.4819 7.46258L12.5131 7.48601Z" fill="white"/>
<path d="M11.4259 4.57754L11.3934 5.35396L11.7172 5.36754L11.7497 4.59111L11.4259 4.57754Z" fill="white"/>
<path d="M12.0875 8.14987L12.1304 8.1694L12.7826 8.49742L12.9271 8.20454L12.2359 7.8609L12.0875 8.14987Z" fill="white"/>
<path d="M10.9394 5.25233L11.0995 4.5377L10.7793 4.46741L10.6192 5.17813L10.6114 5.22499L10.9277 5.29528L10.9394 5.25233Z" fill="white"/>
<path d="M12.6693 8.7942L11.9196 8.59114L11.8337 8.90354L12.5795 9.11051L12.6693 8.7942Z" fill="white"/>
<path d="M10.4786 4.36588L10.1818 4.23311L9.90067 4.85792L9.86552 4.93992L10.1623 5.07269L10.4786 4.36588Z" fill="white"/>
<path d="M33.4129 4.88525C33.3544 3.69421 32.835 2.6047 31.9486 1.81198C31.1636 1.10517 30.1561 0.710758 29.1096 0.710758C28.9924 0.710758 28.8714 0.714663 28.7542 0.726378C27.5944 0.820099 26.5518 1.38243 25.8215 2.30402L2.51232 32.8805C2.24287 32.7243 1.94999 32.6345 1.65711 32.6267C1.63759 32.6267 1.61416 32.6267 1.59073 32.6267C1.1807 32.6267 0.829243 32.7868 0.594941 33.0758C0.352828 33.3726 0.274727 33.7826 0.372353 34.2004C0.462169 34.5831 0.696472 34.9463 1.0284 35.2236L3.82051 37.5431C3.93766 37.6408 4.05872 37.7228 4.18758 37.7892C4.45703 37.9297 4.74991 38.0039 5.03498 38.0039C5.43329 38.0039 5.78084 37.8556 6.01514 37.59C6.27288 37.301 6.3705 36.9066 6.28459 36.4849C6.22602 36.2154 6.10106 35.9616 5.91752 35.7351L32.2805 8.03662C33.0654 7.18532 33.4637 6.06458 33.409 4.88525H33.4129ZM5.06622 36.7778C5.01155 36.8402 4.92564 36.8715 4.83582 36.8715C4.72648 36.8715 4.60933 36.8285 4.5078 36.7465L1.70397 34.4113C1.61416 34.3371 1.54777 34.2395 1.52434 34.1379C1.49701 34.0325 1.51653 33.9388 1.5712 33.8685C1.62587 33.8021 1.71178 33.7709 1.8055 33.7709C1.91094 33.7709 2.02809 33.8138 2.12572 33.8958L4.94907 36.2467C5.03888 36.3209 5.10136 36.4185 5.12479 36.52C5.14432 36.6216 5.12479 36.7153 5.06622 36.7817V36.7778ZM30.8864 6.74405L4.8202 34.751L3.64869 33.8255L27.2937 3.52239C27.6921 3.02645 28.27 2.72186 28.9104 2.66719C28.9651 2.66328 29.0276 2.65938 29.0862 2.65938C29.6797 2.65938 30.2303 2.87025 30.6716 3.26856C31.1675 3.71374 31.4604 4.32293 31.4956 4.99069C31.5307 5.64674 31.312 6.27154 30.8864 6.74015V6.74405Z" fill="white"/>
</svg>
