<svg width="20" height="20" viewBox="0 0 20 20" fill="none" xmlns="http://www.w3.org/2000/svg">
<path d="M19.8336 1.83228L19.8212 1.73638C19.7736 1.36911 19.0635 0.681494 18.7219 0.681494L15.275 1.30178L15.3391 0H4.65672L4.7209 1.30178L1.27603 0.681494C0.934441 0.681494 0.224351 1.36911 0.176735 1.73638L0.164314 1.83228C-0.293208 5.39074 0.205718 7.34136 1.64867 8.44521C2.94257 9.43481 4.60497 8.91655 5.49517 8.59212C6.0355 9.38992 6.86566 10.1387 7.46189 10.604C7.88422 10.9365 8.09538 11.4997 8.00636 12.0588L7.34596 15.2275H12.654L11.9936 12.0588C11.9067 11.4997 12.1158 10.9365 12.5381 10.604C13.1343 10.1367 13.9624 9.38992 14.5048 8.59212C15.395 8.91655 17.0574 9.43277 18.3513 8.44521C19.7943 7.34136 20.2932 5.39074 19.8357 1.83228H19.8336ZM2.55336 7.04346C1.78324 6.45174 1.46028 5.4295 1.60727 3.27076C1.6259 3.00959 1.82257 2.39135 2.06479 2.39135L4.75195 3.00959C4.62981 4.85003 4.80371 5.72944 5.14323 6.92512C4.42693 7.25974 3.41665 7.70659 2.55544 7.04346H2.55336ZM17.4446 7.04346C16.5833 7.70659 15.5731 7.25974 14.8568 6.92512C15.1963 5.72944 15.3681 4.85003 15.248 3.00959L17.9352 2.39135C18.1754 2.39135 18.3741 3.00959 18.3927 3.27076C18.5376 5.42746 18.2168 6.4497 17.4466 7.04346H17.4446Z" fill="white"/>
<path d="M13.4739 16.0294H6.52201C6.0578 16.0294 5.68149 16.4003 5.68149 16.8578V19.1716C5.68149 19.6291 6.0578 20 6.52201 20H13.4739C13.9381 20 14.3144 19.6291 14.3144 19.1716V16.8578C14.3144 16.4003 13.9381 16.0294 13.4739 16.0294Z" fill="white"/>
</svg>
