<svg width="20" height="20" viewBox="0 0 20 20" fill="none" xmlns="http://www.w3.org/2000/svg">
<path d="M10 20C15.5228 20 20 15.5228 20 10C20 4.47715 15.5228 0 10 0C4.47715 0 0 4.47715 0 10C0 15.5228 4.47715 20 10 20Z" fill="#CFF2FF"/>
<path d="M12.0053 0.710491C7.07835 -0.345286 2.26428 2.59628 0.883134 7.30412C-0.0597609 10.4914 0.703851 14.0837 3.20053 16.6202C6.93227 20.425 13.0876 20.498 16.8194 16.6202C18.4861 14.8805 19.502 12.5631 19.502 9.98672C19.502 5.49137 16.3147 1.64675 12.0053 0.703851V0.710491ZM17.4768 10.0996L18.4529 8.39309C18.672 9.51527 18.6321 10.6773 18.4197 11.7264C18.3466 11.6534 17.5166 10.2058 17.4768 10.093V10.0996ZM13.7118 15.8964L12.1912 13.2869L13.7118 10.6773H16.7198L18.0611 12.9947C17.6627 14.0438 17.0452 15.0598 16.2882 15.8964H13.7118ZM7.00531 10.0996C8.23373 7.92165 8.45286 7.59628 8.4927 7.49004H11.5339L12.9814 10.0266L11.4608 12.6361H8.45286L7.00531 10.0996ZM16.753 9.55511H13.7849L12.3373 6.97875C12.6627 6.40106 13.6056 4.8008 13.8977 4.32935H16.4675C17.1912 5.166 17.7689 6.1421 18.1341 7.19123L16.7596 9.54847L16.753 9.55511ZM13.7118 3.42629L12.842 1.93891C13.8181 2.26428 14.6879 2.77556 15.4847 3.42629H13.7118ZM11.6069 1.58035C11.753 1.83267 12.8021 3.68526 12.9482 3.89774C12.8752 4.00398 13.1275 3.57238 11.4608 6.5073H8.37981L6.89243 3.97078L8.26693 1.58035C9.38911 1.36122 10.5113 1.36122 11.6003 1.58035H11.6069ZM7.07835 1.90571L6.10226 3.61222H4.25631C5.05312 2.88845 6.02922 2.30412 7.07835 1.90571ZM3.34661 4.51527H6.13546L7.62284 7.05179C7.19123 7.77556 6.39442 9.22975 6.06242 9.7344H3.12749L1.78619 7.37716C2.11155 6.36122 2.65604 5.38513 3.34661 4.51527ZM1.46746 8.68526C1.83267 9.30279 2.04515 9.66135 2.33732 10.2058L1.5073 11.6202C1.36122 10.6773 1.32802 9.66135 1.4741 8.68526H1.46746ZM6.1421 10.6773C6.32138 10.9695 7.44356 12.9216 7.58964 13.2138L6.06906 15.8964H3.63878C2.84197 15.0266 2.19124 14.0106 1.82603 12.8884L3.12749 10.6773H6.1421ZM6.24834 16.8061L6.97211 18.1076C6.1421 17.7822 5.34529 17.344 4.65471 16.8061H6.24834ZM8.24037 18.4728L7.01195 16.2616C7.5166 15.3918 8.02789 14.4821 8.53254 13.579H11.3612L12.8486 16.1886L11.5471 18.4728C10.4582 18.6919 9.30279 18.6919 8.25365 18.4728H8.24037ZM12.7291 18.1806L13.5259 16.8061H15.2988C14.5352 17.3838 13.672 17.8552 12.7291 18.1806Z" fill="#0D80D9"/>
</svg>
