<svg width="39" height="39" viewBox="0 0 39 39" fill="none" xmlns="http://www.w3.org/2000/svg">
<path d="M23.2446 1.17003C13.3992 -0.931306 3.76648 4.93952 1.01538 14.3594C-0.869359 20.7356 0.65439 27.9098 5.65122 32.9827C13.1104 40.59 25.4181 40.7382 32.8773 32.9827C36.2098 29.5058 38.2351 24.8661 38.2351 19.7211C38.2351 10.7343 31.8627 3.05477 23.2446 1.17003ZM34.1806 19.9377L36.1338 16.533C36.567 18.7787 36.4948 21.0966 36.0616 23.198C35.9172 23.0536 34.2528 20.1543 34.1806 19.9377ZM31.7905 31.5349H26.6493L23.6094 26.3177L26.6493 21.1004H32.6607L35.3396 25.7363C34.5416 27.8376 33.3105 29.8668 31.7905 31.5349ZM13.2548 19.9377C15.7171 15.5906 16.1503 14.937 16.2225 14.7204H22.3061L25.2015 19.7933L22.1617 25.0105H16.1503L13.2548 19.9377ZM32.7329 18.8509H26.7937L23.8982 13.7058C24.5518 12.5469 26.4327 9.35878 27.0103 8.41641H32.1515C33.5993 10.0808 34.7582 12.0377 35.484 14.1428L32.7329 18.8509ZM26.6493 6.60767L24.9128 3.63616C26.8697 4.28974 28.6062 5.30051 30.1984 6.60767H26.6493ZM22.4504 2.91038C22.7392 3.41956 24.8406 7.11305 25.1294 7.55004C24.985 7.76663 25.4903 6.89646 22.1617 12.7673H16.0059L13.0382 7.69443L15.7893 2.91038C18.035 2.47719 20.2769 2.47719 22.4504 2.91038ZM13.3992 3.56016L11.446 6.96486H7.75255C9.34469 5.5171 11.3016 4.35433 13.3992 3.56016ZM5.94001 8.7812H11.5144L14.4821 13.854C13.6119 15.3018 12.0198 18.2011 11.37 19.2157H5.50302L2.82412 14.5038C3.47389 12.4747 4.56066 10.5177 5.93621 8.7774L5.94001 8.7812ZM2.17434 17.1143C2.90011 18.3455 3.3333 19.0713 3.91088 20.1581L2.24654 22.9852C1.95774 21.1004 1.88555 19.0713 2.17434 17.1143ZM5.50682 21.0966H11.5182C11.8792 21.678 14.1249 25.5881 14.4137 26.1695L11.3738 31.5311H6.52139C4.92924 29.7908 3.62589 27.7616 2.90011 25.5159L5.50682 21.0966ZM11.731 33.3437L13.1788 35.9504C11.5144 35.2968 9.91847 34.4304 8.54292 33.3437H11.7272H11.731ZM15.7171 36.68L13.2548 32.2607C14.2693 30.5203 15.2839 28.7116 16.2947 26.8991H21.9413L24.909 32.1163L22.3022 36.68C20.1287 37.1131 17.8146 37.1131 15.7133 36.68H15.7171ZM24.6962 36.0986L26.2883 33.3437H29.8374C28.3174 34.5026 26.5771 35.445 24.6962 36.0986Z" fill="white"/>
</svg>
