<svg width="34" height="39" viewBox="0 0 34 39" fill="none" xmlns="http://www.w3.org/2000/svg">
<path d="M12.0084 11.3538C12.5903 11.553 13.1878 11.6506 13.7852 11.6506C14.6053 11.6506 15.4176 11.4632 16.1751 11.0922C18.8774 9.76838 19.9982 6.49595 18.6744 3.79366C18.1667 2.75491 17.3584 1.92314 16.3352 1.38034C16.3196 1.37253 16.3079 1.36472 16.2923 1.35691C14.7576 0.560278 12.9261 0.540753 11.3797 1.29443C8.68135 2.61824 7.5606 5.89067 8.8805 8.58905C9.52093 9.89724 10.6339 10.8774 12.0124 11.3499L12.0084 11.3538ZM9.4936 5.44549L9.69275 4.71525C10.0794 3.64917 10.8486 2.79006 11.864 2.29412C12.4731 1.99733 13.1253 1.84894 13.7774 1.84894C14.2578 1.84894 14.7342 1.93095 15.195 2.09106L15.851 2.38003C16.6476 2.80958 17.2803 3.46954 17.6825 4.28569C18.0535 5.03937 18.194 5.88286 18.0964 6.6912L17.9949 7.24572C17.6825 8.49533 16.8429 9.53407 15.6909 10.0964C14.453 10.7017 12.9847 10.6783 11.7624 10.0417L11.5906 9.94801C10.8486 9.51455 10.2551 8.87803 9.87629 8.10483C9.46236 7.26134 9.3374 6.33194 9.50141 5.44159L9.4936 5.44549Z" fill="white"/>
<path d="M18.0691 6.55062L17.7684 6.41785L17.456 7.12466L17.7528 7.25743L18.0691 6.55062Z" fill="white"/>
<path d="M16.097 2.587L15.3512 2.38003L15.2653 2.69634L16.0111 2.90331L16.097 2.587Z" fill="white"/>
<path d="M17.3232 6.26945L17.003 6.19526L16.8312 6.95284L17.1514 7.02313L17.3232 6.26945Z" fill="white"/>
<path d="M15.1499 2.99399L15.0031 3.28729L15.6944 3.6335L15.8413 3.34019L15.1499 2.99399Z" fill="white"/>
<path d="M16.5422 6.14059L16.2142 6.12887L16.1868 6.90207L16.511 6.91379L16.5422 6.14059Z" fill="white"/>
<path d="M14.8289 3.56479L14.6346 3.82415L15.2533 4.28786L15.4477 4.0285L14.8289 3.56479Z" fill="white"/>
<path d="M15.7575 6.14602L15.4323 6.18866L15.5333 6.95917L15.8585 6.91653L15.7575 6.14602Z" fill="white"/>
<path d="M14.4162 4.07299L14.1783 4.29878L14.7105 4.85964L14.9484 4.63385L14.4162 4.07299Z" fill="white"/>
<path d="M14.9834 6.28822L14.6728 6.38098L14.8941 7.12184L15.2047 7.02908L14.9834 6.28822Z" fill="white"/>
<path d="M14.3554 5.1448L13.918 4.50437L13.6486 4.69182L14.0859 5.32834L14.3554 5.1448Z" fill="white"/>
<path d="M14.246 6.54281L13.9532 6.68339L14.2851 7.38239L14.578 7.24181L14.2617 6.57795L14.246 6.54281Z" fill="white"/>
<path d="M13.6915 5.55483L13.6759 5.52359L13.3557 4.85583L13.0628 4.99641L13.3986 5.69541L13.6915 5.55483Z" fill="white"/>
<path d="M13.2854 7.09342L13.7228 7.73385L13.9922 7.55031L13.5548 6.90988L13.2854 7.09342Z" fill="white"/>
<path d="M12.973 5.85943L12.7504 5.11747L12.438 5.21119L12.6606 5.95315L12.973 5.85943Z" fill="white"/>
<path d="M12.6957 7.60498L12.7192 7.63232L13.2268 8.16731L13.465 7.94472L12.93 7.38239L12.6957 7.60498Z" fill="white"/>
<path d="M11.8874 6.09373L12.2115 6.05077L12.11 5.28538L11.7898 5.32443L11.8835 6.05468L11.8874 6.09373Z" fill="white"/>
<path d="M12.2232 8.23369L12.8129 8.67496L13.0081 8.41332L12.3872 7.94863L12.192 8.21026L12.2232 8.23369Z" fill="white"/>
<path d="M11.136 5.32522L11.1035 6.10165L11.4273 6.11522L11.4598 5.3388L11.136 5.32522Z" fill="white"/>
<path d="M11.7976 8.89755L11.8405 8.91708L12.4927 9.2451L12.6372 8.95222L11.946 8.60858L11.7976 8.89755Z" fill="white"/>
<path d="M10.6495 6.00001L10.8096 5.28538L10.4894 5.21509L10.3293 5.92581L10.3215 5.97267L10.6378 6.04296L10.6495 6.00001Z" fill="white"/>
<path d="M12.3794 9.54188L11.6297 9.33882L11.5437 9.65122L12.2896 9.85819L12.3794 9.54188Z" fill="white"/>
<path d="M10.1887 5.11356L9.89191 4.98079L9.61075 5.6056L9.5756 5.6876L9.87239 5.82037L10.1887 5.11356Z" fill="white"/>
<path d="M33.123 5.63293C33.0645 4.44189 32.5451 3.35239 31.6586 2.55966C30.8737 1.85285 29.8662 1.45844 28.8197 1.45844C28.7025 1.45844 28.5815 1.46234 28.4643 1.47406C27.3045 1.56778 26.2619 2.13011 25.5316 3.0517L2.2224 33.6282C1.95295 33.472 1.66007 33.3822 1.3672 33.3744C1.34767 33.3744 1.32424 33.3744 1.30081 33.3744C0.890781 33.3744 0.539326 33.5345 0.305024 33.8235C0.0629109 34.1202 -0.01519 34.5303 0.0824361 34.9481C0.172252 35.3308 0.406555 35.694 0.738484 35.9712L3.53059 38.2908C3.64774 38.3885 3.7688 38.4705 3.89767 38.5368C4.16711 38.6774 4.45999 38.7516 4.74506 38.7516C5.14338 38.7516 5.49092 38.6032 5.72523 38.3377C5.98296 38.0487 6.08059 37.6543 5.99468 37.2326C5.9361 36.9631 5.81114 36.7093 5.6276 36.4828L31.9906 8.7843C32.7755 7.933 33.1738 6.81226 33.1191 5.63293H33.123ZM4.7763 37.5254C4.72163 37.5879 4.63572 37.6192 4.5459 37.6192C4.43656 37.6192 4.31941 37.5762 4.21788 37.4942L1.41406 35.159C1.32424 35.0848 1.25785 34.9872 1.23442 34.8856C1.20709 34.7802 1.22661 34.6865 1.28129 34.6162C1.33596 34.5498 1.42187 34.5186 1.51559 34.5186C1.62102 34.5186 1.73818 34.5615 1.8358 34.6435L4.65915 36.9944C4.74897 37.0686 4.81145 37.1662 4.83488 37.2677C4.8544 37.3692 4.83488 37.463 4.7763 37.5293V37.5254ZM30.5965 7.49173L4.53028 35.4987L3.35877 34.5732L27.0038 4.27007C27.4021 3.77413 27.9801 3.46954 28.6205 3.41487C28.6752 3.41096 28.7377 3.40706 28.7962 3.40706C29.3898 3.40706 29.9404 3.61793 30.3817 4.01624C30.8776 4.46142 31.1705 5.07061 31.2057 5.73837C31.2408 6.39442 31.0221 7.01922 30.5965 7.48783V7.49173Z" fill="white"/>
</svg>
