<svg width="39" height="39" viewBox="0 0 39 39" fill="none" xmlns="http://www.w3.org/2000/svg">
<path d="M19.1694 0.744141C8.73843 0.744141 0.169434 9.24094 0.169434 19.7441C0.169434 30.2473 8.66623 38.7441 19.1694 38.7441C29.6726 38.7441 38.1694 30.2473 38.1694 19.7441C38.1694 9.24094 29.6726 0.744141 19.1694 0.744141ZM17.0946 36.8783C13.9862 36.5325 11.083 35.2899 8.73463 33.4241C9.77203 33.0099 11.5656 32.1093 13.363 30.7299C17.0262 27.9673 19.3062 24.3725 19.994 20.2989C22.4108 19.4021 25.0366 19.1931 27.6624 19.8163C27.4534 20.8537 26.9708 22.9931 25.9334 25.4821C24.5502 28.7995 21.9244 33.4279 17.0908 36.8821L17.0946 36.8783ZM19.3062 18.7751C17.3036 17.1183 15.852 14.9751 15.0236 12.3493C16.061 12.0035 18.132 11.3119 20.8262 10.9661C24.3488 10.5519 29.6004 10.5519 35.0572 12.9687C36.2998 15.8719 36.714 19.0487 36.2998 22.0203C35.3346 21.3287 33.7424 20.2229 31.8082 19.3945C27.4534 17.5287 23.1708 17.2513 19.3024 18.7713L19.3062 18.7751ZM33.8184 10.6241C28.7074 8.82674 23.87 8.82674 20.5526 9.31314C17.79 9.65894 15.7152 10.2783 14.541 10.6925C13.7126 7.03314 14.1268 3.98934 14.1952 3.22934C21.6584 0.949341 29.6726 3.98934 33.8184 10.6203V10.6241ZM12.4662 3.78414C12.3294 5.37254 12.1888 8.48094 13.1578 12.0073C14.0584 15.3247 15.7836 18.0873 18.2688 20.0899C17.8546 22.7157 16.7488 24.9957 14.883 27.0667C14.0546 26.3751 12.394 24.8551 10.7372 22.6435C8.59403 19.8125 5.96823 15.2525 5.34883 9.37774C7.14623 6.96094 9.63143 5.02674 12.4662 3.78034V3.78414ZM3.90103 11.5931C4.86623 16.9131 7.35523 21.0589 9.35783 23.7531C11.0868 26.0331 12.7436 27.5531 13.6404 28.3131C13.2262 28.6589 12.812 29.0731 12.3294 29.4189C9.91263 31.2847 7.56043 32.1131 7.21843 32.2499C1.48423 26.7209 0.378433 18.2925 3.90103 11.5931ZM19.7204 37.0151C23.8662 33.4925 26.2146 29.2783 27.5294 26.1699C28.5668 23.6125 29.1178 21.4731 29.3268 20.2951C29.8778 20.5041 30.4326 20.7093 31.0558 20.9183C33.5448 22.0241 35.3384 23.3351 35.9616 23.8899C34.0958 31.2809 27.5332 36.7415 19.7242 37.0151H19.7204Z" fill="white"/>
</svg>
