<svg width="38" height="38" viewBox="0 0 38 38" fill="none" xmlns="http://www.w3.org/2000/svg">
<path d="M23.008 0.426134C13.1626 -1.6752 3.52991 4.19562 0.778805 13.6155C-1.10593 19.9917 0.417817 27.1659 5.41465 32.2388C12.8738 39.8461 25.1816 39.9943 32.6407 32.2388C35.9732 28.7619 37.9985 24.1222 37.9985 18.9772C37.9985 9.99044 31.6262 2.31088 23.008 0.426134ZM33.9441 19.1938L35.8972 15.7891C36.3304 18.0348 36.2582 20.3527 35.825 22.4541C35.6806 22.3097 34.0163 19.4104 33.9441 19.1938ZM31.554 30.791H26.4127L23.3728 25.5738L26.4127 20.3565H32.4241L35.103 24.9924C34.3051 27.0937 33.0739 29.1229 31.554 30.791ZM13.0182 19.1938C15.4805 14.8467 15.9137 14.1931 15.9859 13.9765H22.0695L24.965 19.0494L21.9251 24.2666H15.9137L13.0182 19.1938ZM32.4963 18.107H26.5571L23.6616 12.962C24.3152 11.803 26.1961 8.61489 26.7737 7.67251H31.9149C33.3627 9.33686 34.5217 11.2938 35.2474 13.3989L32.4963 18.107ZM26.4127 5.86377L24.6762 2.89226C26.6331 3.54584 28.3697 4.55661 29.9618 5.86377H26.4127ZM22.2139 2.16648C22.5027 2.67567 24.604 6.36915 24.8928 6.80614C24.7484 7.02273 25.2538 6.15256 21.9251 12.0234H15.7693L12.8016 6.95054L15.5527 2.16648C17.7984 1.73329 20.0403 1.73329 22.2139 2.16648ZM13.1626 2.81626L11.2094 6.22096H7.51597C9.10812 4.7732 11.0651 3.61044 13.1626 2.81626ZM5.70344 8.0373H11.2778L14.2455 13.1101C13.3754 14.5579 11.7832 17.4572 11.1335 18.4718H5.26645L2.58754 13.7599C3.23732 11.7308 4.32408 9.77385 5.69964 8.0335L5.70344 8.0373ZM1.93777 16.3705C2.66354 17.6016 3.09673 18.3274 3.67431 19.4142L2.00996 22.2413C1.72117 20.3565 1.64898 18.3274 1.93777 16.3705ZM5.27025 20.3527H11.2816C11.6426 20.9341 13.8884 24.8442 14.1771 25.4256L11.1373 30.7872H6.28482C4.69267 29.0469 3.38932 27.0177 2.66354 24.772L5.27025 20.3527ZM11.4944 32.5998L12.9422 35.2065C11.2778 34.5529 9.6819 33.6865 8.30635 32.5998H11.4906H11.4944ZM15.4805 35.9361L13.0182 31.5168C14.0328 29.7764 15.0473 27.9677 16.0581 26.1552H21.7047L24.6724 31.3724L22.0657 35.9361C19.8922 36.3692 17.578 36.3692 15.4767 35.9361H15.4805ZM24.4596 35.3547L26.0517 32.5998H29.6008C28.0809 33.7587 26.3405 34.7011 24.4596 35.3547Z" fill="white"/>
</svg>
