<svg width="20" height="20" viewBox="0 0 20 20" fill="none" xmlns="http://www.w3.org/2000/svg">
<path d="M10 0C4.4852 0 0 4.4852 0 10C0 15.5148 4.4852 20 10 20C15.5148 20 20 15.5148 20 10C20 4.4852 15.5148 0 10 0ZM15.3831 9.59465C15.3587 8.38468 15.2229 7.23754 14.9939 6.18362C17.2801 6.9396 18.8873 8.18606 19.1488 9.59465H15.3831ZM14.5724 9.59465H10.4054V5.42765C11.7126 5.45805 12.9591 5.63235 14.0819 5.91812C14.3677 7.04094 14.542 8.28739 14.5724 9.59465ZM10.4054 4.61694V0.851236C11.8139 1.11269 13.0604 2.7199 13.8164 5.00608C12.7625 4.77706 11.6153 4.64329 10.4054 4.61694ZM9.59465 0.851236V4.61694C8.38468 4.64126 7.23754 4.77706 6.18362 5.00608C6.9396 2.7199 8.18606 1.11269 9.59465 0.851236ZM9.59465 5.42765V9.59465H5.42765C5.45805 8.28739 5.63235 7.04094 5.91812 5.91812C7.04094 5.63235 8.28739 5.45805 9.59465 5.42765ZM4.61694 9.59465H0.851236C1.11269 8.18606 2.71788 6.9396 5.00608 6.18362C4.77706 7.23754 4.64329 8.38468 4.61694 9.59465ZM4.61694 10.4054C4.64126 11.6153 4.77706 12.7625 5.00608 13.8164C2.7199 13.0604 1.11269 11.8139 0.851236 10.4054H4.61694ZM5.42765 10.4054H9.59465V14.5724C8.28739 14.542 7.04094 14.3677 5.91812 14.0819C5.63235 12.9591 5.45805 11.7126 5.42765 10.4054ZM9.59465 15.3831V19.1488C8.18606 18.8873 6.9396 17.2801 6.18362 14.9939C7.23754 15.2229 8.38468 15.3567 9.59465 15.3831ZM10.4054 19.1488V15.3831C11.6153 15.3587 12.7625 15.2229 13.8164 14.9939C13.0604 17.2801 11.8139 18.8873 10.4054 19.1488ZM10.4054 14.5724V10.4054H14.5724C14.542 11.7126 14.3677 12.9591 14.0819 14.0819C12.9591 14.3677 11.7126 14.542 10.4054 14.5724ZM15.3831 10.4054H19.1488C18.8873 11.8139 17.2801 13.0604 14.9939 13.8164C15.2229 12.7625 15.3567 11.6153 15.3831 10.4054ZM18.8184 7.41994C17.8983 6.49169 16.4876 5.73368 14.7608 5.24118C14.2683 3.51439 13.5103 2.10377 12.5821 1.18362C15.5776 2.06121 17.9408 4.42643 18.8204 7.42197L18.8184 7.41994ZM7.41994 1.1816C6.49169 2.10174 5.73368 3.51236 5.24118 5.23916C3.51439 5.73166 2.10377 6.48966 1.18362 7.41792C2.06121 4.42238 4.42643 2.05918 7.42197 1.17957L7.41994 1.1816ZM1.1816 12.5801C2.10174 13.5083 3.51236 14.2663 5.23916 14.7588C5.73166 16.4856 6.48966 17.8962 7.41792 18.8164C4.42238 17.9388 2.05918 15.5736 1.17957 12.578L1.1816 12.5801ZM12.5801 18.8184C13.5083 17.8983 14.2663 16.4876 14.7588 14.7608C16.4856 14.2683 17.8962 13.5103 18.8164 12.5821C17.9388 15.5776 15.5736 17.9408 12.578 18.8204L12.5801 18.8184Z" fill="white"/>
</svg>
