<svg width="36" height="24" viewBox="0 0 36 24" fill="none" xmlns="http://www.w3.org/2000/svg">
<g filter="url(#filter0_f_75_30506)">
<path d="M30.1751 2H5.35616C4.60518 2 4.00073 2.60229 4.00073 3.35059V20.3607C4.00073 21.109 4.60518 21.7113 5.35616 21.7113H30.1751C30.9261 21.7113 31.5305 21.109 31.5305 20.3607V3.35059C31.5305 2.60229 30.9261 2 30.1751 2ZM17.2986 14.7941C15.8332 14.575 14.6976 13.334 14.6976 11.8556C14.6976 10.3773 15.8332 9.1362 17.2986 8.91719V14.8123V14.7941ZM18.251 8.89894C19.7163 9.11795 20.852 10.359 20.852 11.8374C20.852 13.3157 19.7163 14.5568 18.251 14.7758V8.88069V8.89894ZM4.95319 8.29665H7.93879C7.93879 8.29665 8.04869 8.3514 8.04869 8.40616V15.2868C8.04869 15.2868 7.99374 15.3963 7.93879 15.3963H4.95319V8.29665ZM4.95319 20.3424V16.3272H7.93879C8.52492 16.3272 9.00115 15.8526 9.00115 15.2686V8.38791C9.00115 7.80387 8.52492 7.32934 7.93879 7.32934H4.95319V3.31408C4.95319 3.09507 5.13636 2.91256 5.35616 2.91256H17.2986V7.93163C15.3021 8.16889 13.7635 9.81149 13.7635 11.8191C13.7635 13.8267 15.3204 15.4876 17.2986 15.7066V20.7257H5.35616C5.13636 20.7257 4.95319 20.5432 4.95319 20.3242V20.3424ZM30.5964 15.3963H27.6108C27.6108 15.3963 27.5009 15.3416 27.5009 15.2868V8.40616C27.5009 8.40616 27.5558 8.29665 27.6108 8.29665H30.5964V15.3963ZM27.6108 7.36584C27.0246 7.36584 26.5484 7.84037 26.5484 8.42441V15.3051C26.5484 15.8891 27.0246 16.3637 27.6108 16.3637H30.5964V20.3789C30.5964 20.5979 30.4132 20.7804 30.1934 20.7804H18.251V15.7614C20.2475 15.5241 21.7861 13.8815 21.7861 11.8739C21.7861 9.86625 20.2292 8.20539 18.251 7.98638V2.96731H30.1934C30.4132 2.96731 30.5964 3.14982 30.5964 3.36884V7.38409H27.6108V7.36584Z" fill="#FF5500"/>
</g>
<path d="M30.1751 2H5.35616C4.60518 2 4.00073 2.60229 4.00073 3.35059V20.3607C4.00073 21.109 4.60518 21.7113 5.35616 21.7113H30.1751C30.9261 21.7113 31.5305 21.109 31.5305 20.3607V3.35059C31.5305 2.60229 30.9261 2 30.1751 2ZM17.2986 14.7941C15.8332 14.575 14.6976 13.334 14.6976 11.8556C14.6976 10.3773 15.8332 9.1362 17.2986 8.91719V14.8123V14.7941ZM18.251 8.89894C19.7163 9.11795 20.852 10.359 20.852 11.8374C20.852 13.3157 19.7163 14.5568 18.251 14.7758V8.88069V8.89894ZM4.95319 8.29665H7.93879C7.93879 8.29665 8.04869 8.3514 8.04869 8.40616V15.2868C8.04869 15.2868 7.99374 15.3963 7.93879 15.3963H4.95319V8.29665ZM4.95319 20.3424V16.3272H7.93879C8.52492 16.3272 9.00115 15.8526 9.00115 15.2686V8.38791C9.00115 7.80387 8.52492 7.32934 7.93879 7.32934H4.95319V3.31408C4.95319 3.09507 5.13636 2.91256 5.35616 2.91256H17.2986V7.93163C15.3021 8.16889 13.7635 9.81149 13.7635 11.8191C13.7635 13.8267 15.3204 15.4876 17.2986 15.7066V20.7257H5.35616C5.13636 20.7257 4.95319 20.5432 4.95319 20.3242V20.3424ZM30.5964 15.3963H27.6108C27.6108 15.3963 27.5009 15.3416 27.5009 15.2868V8.40616C27.5009 8.40616 27.5558 8.29665 27.6108 8.29665H30.5964V15.3963ZM27.6108 7.36584C27.0246 7.36584 26.5484 7.84037 26.5484 8.42441V15.3051C26.5484 15.8891 27.0246 16.3637 27.6108 16.3637H30.5964V20.3789C30.5964 20.5979 30.4132 20.7804 30.1934 20.7804H18.251V15.7614C20.2475 15.5241 21.7861 13.8815 21.7861 11.8739C21.7861 9.86625 20.2292 8.20539 18.251 7.98638V2.96731H30.1934C30.4132 2.96731 30.5964 3.14982 30.5964 3.36884V7.38409H27.6108V7.36584Z" fill="#FFFBF9"/>
<defs>
<filter id="filter0_f_75_30506" x="2.00073" y="0" width="31.5298" height="23.7112" filterUnits="userSpaceOnUse" color-interpolation-filters="sRGB">
<feFlood flood-opacity="0" result="BackgroundImageFix"/>
<feBlend mode="normal" in="SourceGraphic" in2="BackgroundImageFix" result="shape"/>
<feGaussianBlur stdDeviation="1" result="effect1_foregroundBlur_75_30506"/>
</filter>
</defs>
</svg>
