<svg width="20" height="20" viewBox="0 0 20 20" fill="none" xmlns="http://www.w3.org/2000/svg">
<path d="M19.6197 0.940109L18.3026 0.073802C18.1301 -0.0653559 17.8518 0.00520309 17.7126 0.17768L7.315 13.7642C6.82893 14.3875 6.10178 14.7344 5.33935 14.7344H2.08188C1.31945 14.7344 0.69618 15.2538 0.521742 15.9476L0.245386 17.0217C0.00235008 18.0604 0.764778 19.0326 1.80552 19.0326H5.27075C6.34481 19.0326 7.35028 18.5132 8.00883 17.6469L19.6883 1.5281C19.8627 1.35562 19.8274 1.07731 19.6197 0.938149V0.940109ZM14.2121 7.66281C13.5536 7.00426 13.6222 7.03954 13.5536 7.03954L13.9691 6.52014L14.5924 7.14342L14.2102 7.66281H14.2121ZM2.67183 18.1996L3.64201 15.6007H4.43972L3.46954 18.1996H2.67183ZM1.07837 17.2627L1.35473 16.1887C1.42333 15.8418 1.73496 15.5987 2.08188 15.5987H2.70515L1.73496 18.1976C1.28417 18.129 0.972535 17.7116 1.07641 17.2608L1.07837 17.2627ZM7.315 17.1589C6.82893 17.8174 6.10178 18.1976 5.30407 18.1976H4.40248L5.37267 15.5987C6.41145 15.5987 7.3836 15.1127 8.04215 14.2816L13.0322 7.73141L13.6908 8.38996L7.31304 17.1589H7.315ZM14.4905 5.793L18.1301 1.01067L18.7201 1.39286L15.1157 6.41823L14.4905 5.793Z" fill="white"/>
<path d="M2.66007 8.19396V9.92657C2.66007 10.7929 3.90857 11.2437 5.12179 11.2437C6.33501 11.2437 7.58156 10.7929 7.58156 9.92657V8.19396C7.58156 7.32765 6.33305 6.87686 5.12179 6.87686C3.91053 6.87686 2.66007 7.32765 2.66007 8.19396ZM6.71525 9.92657C6.64665 10.0657 6.1253 10.3774 5.12179 10.3774C4.11829 10.3774 3.59694 10.0657 3.52638 9.92657V9.19942C4.42796 9.58162 5.81366 9.58162 6.71525 9.19942V9.92657ZM6.71525 8.19396C6.67997 8.26256 6.61137 8.29784 6.54081 8.33312C5.95086 8.68003 4.66904 8.74863 3.87133 8.40172C3.76745 8.36644 3.59498 8.26256 3.52442 8.19396C3.59302 8.0548 4.14769 7.77844 5.11983 7.77844C6.09198 7.77844 6.60941 8.0548 6.71329 8.19396H6.71525Z" fill="white"/>
</svg>
