<svg width="17" height="20" viewBox="0 0 17 20" fill="none" xmlns="http://www.w3.org/2000/svg">
<path d="M15.8702 1.06917C11.3671 1.74658 7.20057 0.0958988 2.70149 0.773312C2.46888 0.846766 2.27709 1.11202 2.27709 1.34462V9.41645C2.27709 9.64905 2.46888 9.7674 2.70149 9.69394C7.20261 9.01653 11.3671 10.6672 15.8723 9.9898C16.1049 9.91634 16.2967 9.65109 16.2967 9.41849C16.2967 6.7272 16.2967 4.03795 16.2967 1.34666C16.2967 1.11406 16.1049 0.995715 15.8723 1.06917H15.8702Z" fill="#F6D04E"/>
<path d="M0.71414 0C0.320343 0 0 0.320343 0 0.71414V19.2859C0 19.6797 0.320343 20 0.71414 20C1.10794 20 1.42828 19.6797 1.42828 19.2859V0.71414C1.42828 0.320343 1.10794 0 0.71414 0Z" fill="#F6D04E"/>
</svg>
