<svg width="30" height="38" viewBox="0 0 30 38" fill="none" xmlns="http://www.w3.org/2000/svg">
<path d="M24.2729 27.4618C23.9491 27.0046 23.4614 26.6846 22.9014 26.5551C20.3144 23.5414 20.604 20.2573 20.665 19.7772C21.1793 18.5771 21.4269 17.2017 21.3927 15.6892C21.3317 12.6984 20.1849 9.49049 18.1657 6.65973C16.1502 3.82897 13.4909 1.69923 10.6792 0.662938C7.77985 -0.396215 5.0672 -0.182861 3.04033 1.26871C-1.07818 4.20615 -1.00198 11.4107 3.21559 17.3237C5.24246 20.1582 7.90177 22.2842 10.7021 23.3128C11.8869 23.751 13.0566 23.9758 14.1729 23.9796C14.6567 24.1015 18.059 25.0806 20.1049 28.6048C20.0554 29.161 20.2001 29.702 20.5164 30.144L25.435 37.0399C25.7969 37.5428 26.3265 37.8743 26.9284 37.9695C27.058 37.9924 27.1875 38 27.3171 38C27.7971 38 28.2581 37.8514 28.6505 37.5733C28.9096 37.3866 29.1229 37.1542 29.283 36.8875C29.4354 36.6361 29.5344 36.3618 29.5839 36.0722C29.6868 35.4626 29.5458 34.853 29.1877 34.3539L24.2729 27.458V27.4618ZM11.1288 22.1584C8.54946 21.2098 6.09588 19.2362 4.2214 16.6036C1.15062 12.306 0.335299 7.09025 2.23644 3.92803C2.63648 3.26129 3.14701 2.70505 3.75659 2.27453C4.72431 1.58494 5.89014 1.23823 7.17789 1.23823C8.14561 1.23823 9.17809 1.43254 10.2487 1.82877C12.8318 2.78125 15.2854 4.75097 17.1598 7.3798C19.0381 10.0163 20.1049 12.9766 20.162 15.7159C20.2192 18.379 19.3162 20.5087 17.6247 21.7127C15.9331 22.9166 13.6281 23.0766 11.1326 22.1622L11.1288 22.1584ZM20.7031 27.2408C19.4229 25.3778 17.8304 24.2577 16.5769 23.61C17.2094 23.4005 17.7999 23.1033 18.3409 22.7185C18.7448 22.4251 19.1181 22.0898 19.4458 21.7165C19.602 23.0652 20.0897 24.8901 21.4384 26.7113C21.2936 26.7722 21.1679 26.8446 21.0498 26.9246C20.9278 27.0122 20.8097 27.1189 20.6992 27.2408H20.7031ZM28.3648 35.8741C28.3191 36.156 28.1667 36.4037 27.9381 36.5675C27.7019 36.7351 27.4161 36.7999 27.1342 36.7504C26.8484 36.7046 26.6046 36.5484 26.4408 36.316L21.5222 29.4239C21.3546 29.1915 21.2898 28.9096 21.3393 28.6238C21.3584 28.4981 21.4079 28.3724 21.4803 28.2467C21.5565 28.1209 21.6517 28.0143 21.7698 27.9304C21.9527 27.8009 22.1699 27.7323 22.3908 27.7323C22.4518 27.7323 22.509 27.7361 22.5699 27.7476C22.8518 27.7933 23.0995 27.9495 23.2633 28.1819L28.1857 35.074C28.3495 35.3026 28.4143 35.5845 28.3648 35.8741Z" fill="white"/>
<path d="M25.9341 9.68098C26.7303 9.68098 27.5342 9.44096 28.2314 8.94567C28.6734 8.63326 29.0429 8.23322 29.3249 7.7646C30.1402 6.41209 30.0716 4.70144 29.1572 3.41369C28.5438 2.55265 27.6295 1.98117 26.5856 1.80972C25.5454 1.63446 24.4939 1.87449 23.6291 2.49169C22.7642 3.10128 22.1927 4.01566 22.0175 5.06719C21.8422 6.1111 22.0822 7.15883 22.6994 8.02368C23.4729 9.10569 24.6958 9.68479 25.9341 9.68479V9.68098ZM23.2366 5.2653C23.2938 4.92241 23.4119 4.60238 23.5872 4.30902C23.7815 3.98899 24.0329 3.71467 24.3415 3.4937C24.8101 3.15843 25.3588 2.98698 25.9226 2.98698C26.075 2.98698 26.2236 2.99841 26.376 3.02508C27.0961 3.147 27.7247 3.53942 28.1476 4.13376C28.5705 4.7243 28.7343 5.44818 28.6162 6.16825C28.4943 6.88832 28.1057 7.51696 27.5114 7.93986C26.9208 8.36276 26.2008 8.53039 25.4769 8.40848C24.7568 8.28656 24.1244 7.89414 23.7015 7.29979C23.2786 6.70926 23.1109 5.98919 23.2328 5.2653H23.2366Z" fill="white"/>
<path d="M18.6 19.701C19.3086 18.52 19.621 16.9579 19.5029 15.1863C19.3429 12.687 18.3257 9.9553 16.7141 7.69221C15.0987 5.43294 12.847 3.58133 10.5344 2.61742C8.03893 1.57351 5.76441 1.63827 4.12996 2.80411C2.49933 3.96613 1.69543 6.09586 1.87069 8.8009C2.03833 11.3078 3.05176 14.0395 4.65954 16.2912C6.31685 18.6152 8.63327 20.4859 11.0183 21.4231C12.127 21.8613 13.209 22.0784 14.1995 22.0784C15.3654 22.0784 16.4093 21.7774 17.2399 21.1831C17.7809 20.7945 18.238 20.2992 18.5962 19.7048L18.6 19.701ZM16.3521 20.2878L14.9501 18.1047L15.8492 15.9788L17.278 18.2037L16.4131 20.2497C16.3941 20.2611 16.375 20.2763 16.3521 20.2878ZM10.1039 19.6439L9.0295 17.9751L9.92864 15.8492L11.3574 18.0742L10.5839 19.9068C10.4239 19.8268 10.2639 19.7391 10.1039 19.6477V19.6439ZM3.1051 8.71708C3.03271 7.60078 3.15463 6.60258 3.44799 5.76821L4.15663 6.86928L3.2575 8.9952L3.11272 8.76661C3.11272 8.76661 3.10891 8.73613 3.10891 8.72089L3.1051 8.71708ZM3.36798 10.1801L4.7967 12.4051L4.38523 13.3804C3.90137 12.3708 3.54324 11.3192 3.32607 10.283L3.36798 10.1801ZM3.62706 9.5705L4.5262 7.44457L5.95491 9.66956L5.05577 11.7955L3.62706 9.5705ZM5.68441 4.70906L7.11312 6.93404L6.21398 9.05997L4.78527 6.83499L5.68441 4.70906ZM5.57011 3.52037L5.52058 3.44036C5.55487 3.42512 5.58916 3.40988 5.62345 3.39464L5.57011 3.52037ZM8.64089 4.77383L10.0696 6.99881L9.17047 9.12474L7.74176 6.90356L8.64089 4.77764V4.77383ZM8.53041 3.58514L8.30181 3.23081C8.41992 3.25367 8.53422 3.27272 8.65232 3.29939L8.53041 3.58895V3.58514ZM17.5523 11.9479C17.7885 12.6032 17.9675 13.2661 18.0895 13.9214L17.2627 12.6337L17.5523 11.9479ZM18.2647 15.2053C18.2647 15.2244 18.2685 15.2473 18.2723 15.2663C18.2838 15.4568 18.2838 15.6359 18.2838 15.8187L17.5332 17.5903L16.1045 15.3654L17.0036 13.2394L18.2647 15.2015V15.2053ZM15.7311 14.7901L14.3024 12.5651L15.2016 10.4392L16.6303 12.6641L15.7311 14.7901ZM13.9329 11.9898L12.5041 9.7648L13.4033 7.63888L14.832 9.86386L13.9329 11.9898ZM11.0869 13.1137L12.5156 15.3387L11.6164 17.4646L10.1877 15.2396L11.0869 13.1137ZM9.81434 14.6605L8.38563 12.4355L9.28477 10.3096L10.7135 12.5346L9.81434 14.6605ZM11.3459 12.5041L12.2451 10.3782L13.6738 12.6032L12.7746 14.7291L11.3459 12.5041ZM13.289 6.45019L12.4165 5.09386C12.7861 5.36055 13.1442 5.65392 13.4947 5.96252L13.289 6.44638V6.45019ZM13.0299 7.06358L12.1308 9.18951L10.7021 6.96833L11.6012 4.84241L13.0299 7.06739V7.06358ZM11.8717 9.79909L10.9726 11.925L9.54384 9.70004L10.443 7.57411L11.8717 9.79909ZM8.88473 9.6848L8.91521 9.73432L8.01607 11.8603L6.58735 9.63527L7.48649 7.50934L8.88473 9.6848ZM6.32828 10.2449L7.75699 12.466L6.85786 14.592L5.42914 12.3708L6.32828 10.2449ZM8.12656 13.0489L9.55527 15.2739L8.65613 17.3999L7.22742 15.1787L8.12656 13.0528V13.0489ZM8.77043 18.5847L8.9914 18.9276C8.89997 18.859 8.80472 18.7905 8.71328 18.7219L8.77043 18.5847ZM11.7307 18.6533L13.0985 20.7792C12.4508 20.6649 11.7764 20.4516 11.0983 20.1506L11.7307 18.6533ZM11.9898 18.0399L12.8889 15.914L14.3177 18.1352L13.4185 20.2611L11.9898 18.0361V18.0399ZM13.1442 15.3044L14.0433 13.1785L15.4721 15.4035L14.5729 17.5294L13.1442 15.3044ZM17.6475 18.7829L17.6742 18.8248C17.6323 18.9086 17.5789 18.981 17.5332 19.0572L17.6475 18.7829ZM17.9066 18.1695L18.0323 17.8685C17.998 17.9828 17.9714 18.1047 17.9333 18.2152L17.9066 18.1695ZM17.2551 11.1935L16.8893 12.0546L15.4606 9.83338L15.9254 8.73994C16.4474 9.51716 16.897 10.3439 17.2551 11.1973V11.1935ZM15.5368 8.19131L15.0873 9.25428L13.6585 7.02929L13.9367 6.37018C14.5158 6.92642 15.053 7.53982 15.5368 8.1875V8.19131ZM11.2011 4.32426L10.3287 6.38542L8.89997 4.16424L9.20095 3.44798C9.48288 3.53561 9.76863 3.63466 10.0582 3.75658C10.443 3.9166 10.824 4.11471 11.2011 4.32426ZM7.20456 3.11652C7.33029 3.11652 7.46363 3.13176 7.59317 3.13938L8.21037 4.09566L8.27514 4.19472L7.376 6.32065L5.94729 4.09566L6.32828 3.19653C6.61021 3.14319 6.90358 3.11271 7.20837 3.11271L7.20456 3.11652ZM4.85385 3.80992C4.911 3.76801 4.97195 3.73372 5.03291 3.69562L5.31485 4.13376L4.41571 6.25969L3.71468 5.16625C3.75659 5.08243 3.7985 4.99861 3.84422 4.92241C4.11473 4.47284 4.45381 4.09947 4.85766 3.81373L4.85385 3.80992ZM4.7205 14.0433L5.17007 12.9804L6.59878 15.2053L6.16445 16.2264C5.99301 16.0131 5.82537 15.7959 5.66536 15.5711C5.31866 15.0834 5.00243 14.5691 4.71669 14.0433H4.7205ZM6.57592 16.7179L6.97215 15.7845L8.40087 18.0094L8.25228 18.3599C7.66556 17.8761 7.10169 17.3275 6.57592 16.7217V16.7179ZM13.7995 20.8592L13.7881 20.8402L14.6872 18.7143L15.8607 20.5392C15.2473 20.8021 14.5462 20.905 13.7995 20.8592Z" fill="white"/>
</svg>
