<svg width="20" height="20" viewBox="0 0 20 20" fill="none" xmlns="http://www.w3.org/2000/svg">
<path d="M19.6369 1.99565L19.6247 1.90166C19.5781 1.54174 18.8822 0.867876 18.5474 0.867876L15.1694 1.47575L15.2323 0.200012H4.76354L4.82643 1.47575L1.45046 0.867876C1.1157 0.867876 0.419815 1.54174 0.373152 1.90166L0.360979 1.99565C-0.0873928 5.48293 0.401555 7.39454 1.81565 8.47632C3.08367 9.44613 4.71282 8.93823 5.58522 8.62029C6.11474 9.40213 6.9283 10.136 7.51261 10.5919C7.92649 10.9178 8.13343 11.4697 8.04619 12.0176L7.39899 15.123H12.6009L11.9537 12.0176C11.8685 11.4697 12.0734 10.9178 12.4873 10.5919C13.0716 10.134 13.8831 9.40213 14.4147 8.62029C15.2871 8.93823 16.9162 9.44413 18.1843 8.47632C19.5983 7.39454 20.0873 5.48293 19.6389 1.99565H19.6369ZM2.70225 7.1026C1.94752 6.52272 1.63103 5.52093 1.77507 3.40536C1.79333 3.14941 1.98607 2.54353 2.22344 2.54353L4.85687 3.14941C4.73717 4.95304 4.90759 5.81487 5.24032 6.98663C4.53834 7.31456 3.54827 7.75247 2.70428 7.1026H2.70225ZM17.2956 7.1026C16.4516 7.75247 15.4616 7.31456 14.7596 6.98663C15.0923 5.81487 15.2607 4.95304 15.143 3.14941L17.7765 2.54353C18.0118 2.54353 18.2066 3.14941 18.2248 3.40536C18.3668 5.51893 18.0524 6.52072 17.2977 7.1026H17.2956Z" fill="#F6D04E"/>
<path d="M13.4043 15.9088H6.59152C6.1366 15.9088 5.76781 16.2723 5.76781 16.7206V18.9882C5.76781 19.4365 6.1366 19.8 6.59152 19.8H13.4043C13.8592 19.8 14.228 19.4365 14.228 18.9882V16.7206C14.228 16.2723 13.8592 15.9088 13.4043 15.9088Z" fill="#F6D04E"/>
</svg>
