<svg width="34" height="38" viewBox="0 0 34 38" fill="none" xmlns="http://www.w3.org/2000/svg">
<path d="M11.965 10.6061C12.5468 10.8053 13.1443 10.9029 13.7418 10.9029C14.5618 10.9029 15.3741 10.7155 16.1317 10.3445C18.834 9.02069 19.9547 5.74827 18.6309 3.04598C18.1232 2.00723 17.3149 1.17546 16.2918 0.632657C16.2762 0.624847 16.2644 0.617037 16.2488 0.609227C14.7141 -0.187403 12.8827 -0.206928 11.3363 0.546746C8.63789 1.87056 7.51714 5.14298 8.83705 7.84137C9.47748 9.14956 10.5904 10.1297 11.9689 10.6022L11.965 10.6061ZM9.45014 4.69781L9.6493 3.96757C10.0359 2.90149 10.8052 2.04238 11.8205 1.54644C12.4297 1.24965 13.0818 1.10126 13.734 1.10126C14.2143 1.10126 14.6907 1.18327 15.1515 1.34338L15.8076 1.63235C16.6042 2.0619 17.2368 2.72186 17.639 3.53801C18.01 4.29168 18.1506 5.13517 18.053 5.94352L17.9514 6.49804C17.639 7.74765 16.7994 8.78639 15.6474 9.34872C14.4095 9.954 12.9413 9.93057 11.719 9.29405L11.5471 9.20033C10.8052 8.76687 10.2116 8.13035 9.83284 7.35715C9.4189 6.51366 9.29394 5.58425 9.45795 4.6939L9.45014 4.69781Z" fill="white"/>
<path d="M18.0256 5.80294L17.7249 5.67017L17.4125 6.37698L17.7093 6.50975L18.0256 5.80294Z" fill="white"/>
<path d="M16.0536 1.83932L15.3077 1.63235L15.2218 1.94866L15.9677 2.15562L16.0536 1.83932Z" fill="white"/>
<path d="M17.2798 5.52177L16.9595 5.44758L16.7877 6.20516L17.1079 6.27545L17.2798 5.52177Z" fill="white"/>
<path d="M15.1065 2.24631L14.9596 2.53961L15.651 2.88582L15.7978 2.59251L15.1065 2.24631Z" fill="white"/>
<path d="M16.4987 5.39291L16.1707 5.38119L16.1434 6.15439L16.4675 6.16611L16.4987 5.39291Z" fill="white"/>
<path d="M14.7855 2.81711L14.5911 3.07647L15.2098 3.54018L15.4042 3.28082L14.7855 2.81711Z" fill="white"/>
<path d="M15.7141 5.39834L15.3888 5.44098L15.4898 6.21149L15.8151 6.16885L15.7141 5.39834Z" fill="white"/>
<path d="M14.3727 3.32531L14.1348 3.5511L14.667 4.11196L14.905 3.88617L14.3727 3.32531Z" fill="white"/>
<path d="M14.9399 5.54054L14.6294 5.6333L14.8507 6.37416L15.1612 6.2814L14.9399 5.54054Z" fill="white"/>
<path d="M14.3119 4.39712L13.8746 3.75669L13.6051 3.94414L14.0425 4.58066L14.3119 4.39712Z" fill="white"/>
<path d="M14.2026 5.79513L13.9097 5.93571L14.2416 6.63471L14.5345 6.49413L14.2182 5.83027L14.2026 5.79513Z" fill="white"/>
<path d="M13.6481 4.80715L13.6324 4.77591L13.3122 4.10815L13.0194 4.24873L13.3552 4.94773L13.6481 4.80715Z" fill="white"/>
<path d="M13.2419 6.34574L13.6793 6.98617L13.9488 6.80263L13.5114 6.1622L13.2419 6.34574Z" fill="white"/>
<path d="M12.9295 5.11174L12.7069 4.36979L12.3945 4.46351L12.6171 5.20547L12.9295 5.11174Z" fill="white"/>
<path d="M12.6523 6.8573L12.6757 6.88463L13.1834 7.41963L13.4216 7.19704L12.8866 6.63471L12.6523 6.8573Z" fill="white"/>
<path d="M11.8439 5.34605L12.1681 5.30309L12.0665 4.5377L11.7463 4.57675L11.84 5.307L11.8439 5.34605Z" fill="white"/>
<path d="M12.1798 7.48601L12.7694 7.92728L12.9647 7.66564L12.3438 7.20094L12.1485 7.46258L12.1798 7.48601Z" fill="white"/>
<path d="M11.0925 4.57754L11.06 5.35396L11.3838 5.36754L11.4164 4.59111L11.0925 4.57754Z" fill="white"/>
<path d="M11.7541 8.14987L11.7971 8.1694L12.4492 8.49742L12.5937 8.20454L11.9025 7.8609L11.7541 8.14987Z" fill="white"/>
<path d="M10.606 5.25233L10.7661 4.5377L10.4459 4.46741L10.2858 5.17813L10.278 5.22499L10.5943 5.29528L10.606 5.25233Z" fill="white"/>
<path d="M12.336 8.7942L11.5862 8.59114L11.5003 8.90354L12.2462 9.11051L12.336 8.7942Z" fill="white"/>
<path d="M10.1452 4.36588L9.84845 4.23311L9.56729 4.85792L9.53215 4.93992L9.82893 5.07269L10.1452 4.36588Z" fill="white"/>
<path d="M33.0796 4.88525C33.021 3.69421 32.5016 2.6047 31.6152 1.81198C30.8303 1.10517 29.8228 0.710758 28.7762 0.710758C28.6591 0.710758 28.538 0.714663 28.4209 0.726378C27.2611 0.820099 26.2184 1.38243 25.4882 2.30402L2.17894 32.8805C1.9095 32.7243 1.61662 32.6345 1.32374 32.6267C1.30421 32.6267 1.28078 32.6267 1.25735 32.6267C0.847324 32.6267 0.495869 32.7868 0.261567 33.0758C0.0194539 33.3726 -0.0586471 33.7826 0.0389791 34.2004C0.128795 34.5831 0.363098 34.9463 0.695027 35.2236L3.48713 37.5431C3.60429 37.6408 3.72534 37.7228 3.85421 37.7892C4.12366 37.9297 4.41654 38.0039 4.7016 38.0039C5.09992 38.0039 5.44747 37.8556 5.68177 37.59C5.9395 37.301 6.03713 36.9066 5.95122 36.4849C5.89264 36.2154 5.76768 35.9616 5.58414 35.7351L31.9471 8.03662C32.732 7.18532 33.1303 6.06458 33.0757 4.88525H33.0796ZM4.73284 36.7778C4.67817 36.8402 4.59226 36.8715 4.50245 36.8715C4.39311 36.8715 4.27595 36.8285 4.17442 36.7465L1.3706 34.4113C1.28078 34.3371 1.2144 34.2395 1.19097 34.1379C1.16363 34.0325 1.18316 33.9388 1.23783 33.8685C1.2925 33.8021 1.37841 33.7709 1.47213 33.7709C1.57757 33.7709 1.69472 33.8138 1.79234 33.8958L4.61569 36.2467C4.70551 36.3209 4.76799 36.4185 4.79142 36.52C4.81095 36.6216 4.79142 36.7153 4.73284 36.7817V36.7778ZM30.553 6.74405L4.48683 34.751L3.31531 33.8255L26.9604 3.52239C27.3587 3.02645 27.9366 2.72186 28.5771 2.66719C28.6317 2.66328 28.6942 2.65938 28.7528 2.65938C29.3463 2.65938 29.897 2.87025 30.3382 3.26856C30.8342 3.71374 31.1271 4.32293 31.1622 4.99069C31.1973 5.64674 30.9787 6.27154 30.553 6.74015V6.74405Z" fill="white"/>
</svg>
