<svg width="20" height="20" viewBox="0 0 20 20" fill="none" xmlns="http://www.w3.org/2000/svg">
<path d="M12.1103 0.224281C6.92845 -0.881685 1.85862 2.20822 0.410668 7.16607C-0.581298 10.522 0.220675 14.2979 2.85058 16.9678C6.77645 20.9717 13.2542 21.0496 17.1801 16.9678C18.934 15.1378 20 12.6959 20 9.98798C20 5.25813 16.6461 1.21625 12.1103 0.224281ZM17.8661 10.102L18.894 8.31003C19.122 9.492 19.084 10.712 18.856 11.8179C18.78 11.7419 17.9041 10.216 17.8661 10.102ZM16.6081 16.2058H13.9022L12.3023 13.4599L13.9022 10.714H17.0661L18.4761 13.1539C18.0561 14.2599 17.4081 15.3278 16.6081 16.2058ZM6.85245 10.102C8.1484 7.81405 8.3764 7.47006 8.4144 7.35606H11.6163L13.1402 10.026L11.5403 12.7719H8.3764L6.85245 10.102ZM17.1041 9.53H13.9782L12.4543 6.82208C12.7982 6.2121 13.7882 4.53415 14.0922 4.03817H16.7981C17.5601 4.91414 18.1701 5.94411 18.552 7.05207L17.1041 9.53ZM13.9022 3.08619L12.9882 1.52224C14.0182 1.86623 14.9322 2.39822 15.7701 3.08619H13.9022ZM11.6923 1.14025C11.8443 1.40825 12.9502 3.35219 13.1022 3.58218C13.0262 3.69618 13.2922 3.23819 11.5403 6.3281H8.3004L6.73845 3.65818L8.1864 1.14025C9.36836 0.91226 10.5483 0.91226 11.6923 1.14025ZM6.92845 1.48224L5.90048 3.27419H3.95655C4.79452 2.51221 5.82448 1.90023 6.92845 1.48224ZM3.00258 4.23016H5.93648L7.49843 6.90008C7.04044 7.66206 6.20247 9.18801 5.86048 9.72199H2.77259L1.36264 7.24207C1.70462 6.1741 2.2766 5.14413 3.00058 4.22816L3.00258 4.23016ZM1.02065 8.61603C1.40263 9.26401 1.63063 9.64599 1.93462 10.218L1.05865 11.7059C0.906651 10.714 0.868653 9.646 1.02065 8.61603ZM2.77459 10.712H5.93848C6.12847 11.018 7.31043 13.0759 7.46243 13.3819L5.86248 16.2038H3.30857C2.4706 15.2878 1.78462 14.2199 1.40263 13.0379L2.77459 10.712ZM6.05048 17.1578L6.81245 18.5297C5.93648 18.1857 5.09651 17.7297 4.37253 17.1578H6.04848H6.05048ZM8.1484 18.9137L6.85245 16.5878C7.38643 15.6718 7.92041 14.7198 8.45239 13.7659H11.4243L12.9862 16.5118L11.6143 18.9137C10.4703 19.1417 9.25237 19.1417 8.1464 18.9137H8.1484ZM12.8742 18.6077L13.7122 17.1578H15.5802C14.7802 17.7677 13.8642 18.2637 12.8742 18.6077Z" fill="white"/>
</svg>
