<svg width="17" height="20" viewBox="0 0 17 20" fill="none" xmlns="http://www.w3.org/2000/svg">
<path d="M15.7158 1.2478C11.3027 1.91166 7.21952 0.293993 2.81042 0.957858C2.58247 1.02984 2.39451 1.28979 2.39451 1.51774V9.42813C2.39451 9.65608 2.58247 9.77206 2.81042 9.70007C7.22152 9.03621 11.3027 10.6539 15.7178 9.99002C15.9457 9.91803 16.1337 9.65808 16.1337 9.43013C16.1337 6.79267 16.1337 4.1572 16.1337 1.51974C16.1337 1.29179 15.9457 1.17581 15.7178 1.2478H15.7158Z" fill="#F6D04E"/>
<path d="M0.862821 0.200012C0.4769 0.200012 0.162964 0.513948 0.162964 0.899869V19.1002C0.162964 19.4861 0.4769 19.8 0.862821 19.8C1.24874 19.8 1.56268 19.4861 1.56268 19.1002V0.899869C1.56268 0.513948 1.24874 0.200012 0.862821 0.200012Z" fill="#F6D04E"/>
</svg>
