<svg width="20" height="20" viewBox="0 0 20 20" fill="none" xmlns="http://www.w3.org/2000/svg">
<path d="M14.3889 1.2409C9.55176 -1.17962 3.65824 0.762678 1.23968 5.59979C-1.17887 10.4369 0.763421 16.3304 5.60054 18.749C10.4729 21.2028 16.3312 19.1919 18.7517 14.3881C21.2036 9.51574 19.1946 3.6575 14.3908 1.23894L14.3889 1.2409ZM18.885 10.8818C17.9305 8.56517 16.0921 6.62288 13.6049 5.56647L12.6171 5.12353C11.9703 4.81778 11.3902 4.40815 10.9139 3.89661C12.9914 2.80689 14.6946 2.46586 14.7299 2.46586H14.7632C17.6933 4.27096 19.226 7.57541 18.885 10.8799V10.8818ZM13.6735 1.8524C12.9228 2.09151 11.6979 2.49918 10.3691 3.21456C9.95943 2.56778 9.687 1.8524 9.58508 1.06843C10.9825 0.99983 12.378 1.23894 13.6735 1.8524ZM8.73447 1.13703C8.83639 2.05623 9.14214 2.90881 9.65368 3.62418C8.66587 4.20236 7.74666 4.88442 6.92937 5.63507C5.29479 4.88638 3.93067 4.40815 3.18198 4.20432C4.61273 2.50114 6.62362 1.44474 8.73447 1.13899V1.13703ZM12.9914 18.4099C12.9562 18.4099 12.9228 18.3766 12.8895 18.3766C12.8895 18.3766 11.2549 18.2061 9.41457 16.8439C8.15433 15.8894 7.13124 14.5959 6.45115 13.0965L6.0082 12.1087C5.66717 11.3248 5.15563 10.6094 4.50885 10.0645C5.15563 8.80429 5.97292 7.67928 7.02933 6.65816C11.2883 8.73569 15.069 12.0401 15.8863 16.7087C15.0337 17.4574 14.0459 18.0375 12.9914 18.4119V18.4099ZM2.60184 4.95302C3.1467 5.09021 4.54413 5.5312 6.24731 6.28185C5.29283 7.26966 4.51081 8.35938 3.86208 9.55298C3.04478 9.00812 2.12557 8.66709 1.13777 8.56517C1.37688 7.27162 1.85314 6.0447 2.60184 4.95498V4.95302ZM1.06917 9.41578C1.95506 9.5177 2.80567 9.82541 3.48773 10.3017C2.90955 11.5952 2.49992 12.9927 2.29609 14.5253C1.4102 13.026 0.967254 11.2209 1.06917 9.41578ZM3.04478 15.617V15.5484C3.18198 13.8452 3.55633 12.2773 4.16979 10.8818C4.61273 11.3248 4.98708 11.8696 5.25951 12.4831L5.70245 13.4709C6.41783 15.1055 7.54283 16.5029 8.9383 17.5593C9.79087 18.2061 10.6415 18.6157 11.2883 18.8529C8.11905 19.2958 4.98512 18.0356 3.04478 15.617ZM16.6369 15.9914C15.6138 11.4267 11.935 8.19083 7.7447 6.04274C8.46008 5.42928 9.27737 4.81582 10.1633 4.30428C10.7414 4.98633 11.4568 5.49592 12.3094 5.87222L13.2972 6.31517C14.8299 6.99723 16.1587 8.05363 17.1132 9.38051C18.2029 10.9132 18.5106 12.3106 18.5439 12.6516C18.1343 13.8786 17.4875 15.0369 16.6369 15.9894V15.9914Z" fill="white"/>
</svg>
