<svg width="19" height="18" viewBox="0 0 19 18" fill="none" xmlns="http://www.w3.org/2000/svg">
<path d="M8.7875 17.4655C8.7875 17.762 8.54425 18 8.24546 18H1.71804C1.41734 18 1.17601 17.7601 1.17601 17.4655V8.40175H8.78941V17.4655H8.7875Z" fill="#F6D04E"/>
<path d="M17.824 17.4655C17.824 17.762 17.5807 18 17.282 18H10.7545C10.4538 18 10.2125 17.7601 10.2125 17.4655V8.40175H17.824V17.4655Z" fill="#F6D04E"/>
<path d="M0.540121 3.5913H7.66512C7.05988 3.45909 6.3244 3.34766 5.56018 3.34766C2.78296 3.34766 1.59738 2.80561 1.59738 1.53453C1.59738 1.323 1.67208 1.00948 2.02641 0.70918C2.73508 0.108581 4.21754 -0.144501 5.71341 0.0821396C7.55595 0.359775 8.92157 2.29756 9.42913 3.12668C9.97117 2.307 11.4421 0.359775 13.2847 0.0821396C14.7805 -0.142613 16.263 0.108581 16.9717 0.70918C17.326 1.00948 17.4007 1.323 17.4007 1.53453C17.4007 2.80561 16.2151 3.34766 13.4379 3.34766C12.6737 3.34766 11.9114 3.45909 11.2736 3.5913H18.458C18.7587 3.5913 19 3.83116 19 4.12579V7.30443C19 7.60095 18.7568 7.83893 18.458 7.83893H0.542034C0.241329 7.83893 0 7.59907 0 7.30443V4.12579C0 3.82927 0.243244 3.5913 0.542034 3.5913H0.540121ZM5.59657 0.830055C5.25947 0.779061 4.93579 0.756397 4.63125 0.756397C3.65444 0.756397 2.87298 0.988704 2.52631 1.28334C2.45353 1.34566 2.36542 1.4401 2.36542 1.53642C2.36542 1.85183 2.36542 2.59408 5.5621 2.59408C6.66915 2.59408 7.70343 2.80183 8.42742 2.99636C7.83941 2.17101 6.81855 1.01326 5.6004 0.830055H5.59657ZM16.6346 1.53642C16.6346 1.4401 16.5465 1.34566 16.4737 1.28334C16.1251 0.988704 15.3456 0.756397 14.3687 0.756397C14.0642 0.756397 13.7386 0.779061 13.4034 0.830055C12.1815 1.01326 11.0935 2.1729 10.4577 3.00203C11.2238 2.80561 12.3174 2.59219 13.4398 2.59219C16.6365 2.59219 16.6365 1.85183 16.6365 1.53453L16.6346 1.53642Z" fill="#F6D04E"/>
</svg>
