<svg width="20" height="20" viewBox="0 0 20 20" fill="none" xmlns="http://www.w3.org/2000/svg">
<path d="M14.4784 1.06219C9.54262 -1.40772 3.52882 0.574211 1.06091 5.51004C-1.40701 10.4459 0.574922 16.4597 5.51075 18.9276C10.4826 21.4315 16.4604 19.3796 18.9303 14.4777C21.4322 9.50591 19.3823 3.52811 14.4804 1.06019L14.4784 1.06219ZM19.0663 10.8999C18.0923 8.53594 16.2164 6.55401 13.6785 5.47605L12.6705 5.02406C12.0105 4.71207 11.4186 4.29409 10.9326 3.7721C13.0525 2.66014 14.7904 2.31215 14.8264 2.31215H14.8604C17.8503 4.15409 19.4143 7.52598 19.0663 10.8979V10.8999ZM13.7485 1.68617C12.9825 1.93017 11.7325 2.34615 10.3766 3.07613C9.9586 2.41615 9.68061 1.68617 9.57662 0.886201C11.0026 0.816203 12.4265 1.06019 13.7485 1.68617ZM8.70865 0.956199C8.81264 1.89417 9.12463 2.76414 9.64661 3.49411C8.63865 4.08409 7.70068 4.78007 6.86671 5.54604C5.19877 4.78207 3.80681 4.29409 3.04284 4.08609C4.50279 2.34815 6.55472 1.27019 8.70865 0.958198V0.956199ZM13.0525 18.5816C13.0165 18.5816 12.9825 18.5476 12.9485 18.5476C12.9485 18.5476 11.2806 18.3736 9.40262 16.9837C8.11667 16.0097 7.0727 14.6897 6.37873 13.1598L5.92674 12.1518C5.57875 11.3518 5.05677 10.6219 4.39679 10.0659C5.05677 8.77993 5.89074 7.63197 6.9687 6.59001C11.3146 8.70994 15.1724 12.0818 16.0064 16.8457C15.1364 17.6096 14.1285 18.2016 13.0525 18.5836V18.5816ZM2.45086 4.85007C3.00684 4.99006 4.43279 5.44005 6.17073 6.20602C5.19677 7.21399 4.39879 8.32595 3.73681 9.54391C2.90284 8.98793 1.96487 8.63994 0.956909 8.53594C1.2009 7.21599 1.68688 5.96403 2.45086 4.85207V4.85007ZM0.886912 9.40391C1.79088 9.50791 2.65885 9.8219 3.35483 10.3079C2.76485 11.6278 2.34686 13.0538 2.13887 14.6177C1.2349 13.0878 0.782915 11.2459 0.886912 9.40391ZM2.90284 15.7317V15.6617C3.04284 13.9238 3.42483 12.3238 4.0508 10.8999C4.50279 11.3518 4.88478 11.9078 5.16277 12.5338L5.61475 13.5418C6.34473 15.2097 7.49269 16.6357 8.91664 17.7136C9.78661 18.3736 10.6546 18.7916 11.3146 19.0336C8.08067 19.4856 4.88278 18.1996 2.90284 15.7317ZM16.7724 16.1137C15.7284 11.4558 11.9745 8.15395 7.69868 5.96203C8.42866 5.33605 9.26263 4.71007 10.1666 4.18809C10.7566 4.88407 11.4866 5.40405 12.3565 5.78803L13.3645 6.24002C14.9284 6.936 16.2844 8.01396 17.2584 9.36791C18.3703 10.9319 18.6843 12.3578 18.7183 12.7058C18.3003 13.9578 17.6403 15.1397 16.7724 16.1117V16.1137Z" fill="white"/>
</svg>
