<svg width="16" height="20" viewBox="0 0 16 20" fill="none" xmlns="http://www.w3.org/2000/svg">
<path d="M12.7743 14.4537C12.6039 14.2131 12.3472 14.0446 12.0525 13.9765C10.691 12.3904 10.8434 10.6619 10.8754 10.4093C11.1461 9.77762 11.2765 9.05375 11.2584 8.2577C11.2263 6.68364 10.6228 4.99528 9.56004 3.50544C8.49931 2.01559 7.09969 0.894701 5.61987 0.349294C4.09394 -0.208145 2.66625 -0.0958551 1.5995 0.668116C-0.568093 2.21411 -0.527989 6.00589 1.69174 9.11792C2.75849 10.6098 4.1581 11.7287 5.63191 12.2701C6.25552 12.5006 6.8711 12.619 7.45862 12.621C7.71328 12.6851 9.5039 13.2005 10.5807 15.0552C10.5546 15.348 10.6308 15.6327 10.7972 15.8653L13.3859 19.4947C13.5764 19.7594 13.8551 19.9338 14.1719 19.984C14.2401 19.996 14.3083 20 14.3765 20C14.6291 20 14.8717 19.9218 15.0783 19.7754C15.2146 19.6772 15.3269 19.5549 15.4111 19.4145C15.4913 19.2821 15.5435 19.1378 15.5695 18.9854C15.6237 18.6646 15.5495 18.3437 15.361 18.081L12.7743 14.4517V14.4537ZM5.85648 11.6625C4.49898 11.1632 3.20765 10.1245 2.2211 8.73894C0.604934 6.47711 0.175827 3.73202 1.17641 2.06773C1.38695 1.71682 1.65565 1.42407 1.97647 1.19748C2.48579 0.834546 3.09937 0.652075 3.77712 0.652075C4.28643 0.652075 4.82984 0.754339 5.39329 0.962877C6.7528 1.46417 8.04413 2.50085 9.03068 3.88442C10.0192 5.272 10.5807 6.83002 10.6108 8.27174C10.6408 9.67335 10.1656 10.7942 9.27531 11.4279C8.38501 12.0615 7.17188 12.1457 5.85849 11.6645L5.85648 11.6625ZM10.8955 14.3374C10.2218 13.3569 9.38359 12.7673 8.72388 12.4265C9.05674 12.3162 9.36755 12.1598 9.65228 11.9572C9.86483 11.8028 10.0613 11.6264 10.2338 11.4299C10.316 12.1397 10.5727 13.1002 11.2825 14.0587C11.2063 14.0908 11.1401 14.1289 11.078 14.171C11.0138 14.2171 10.9516 14.2732 10.8935 14.3374H10.8955ZM14.9279 18.8811C14.9038 19.0295 14.8236 19.1598 14.7033 19.2461C14.579 19.3343 14.4286 19.3684 14.2802 19.3423C14.1298 19.3182 14.0015 19.236 13.9153 19.1137L11.3266 15.4864C11.2384 15.364 11.2043 15.2157 11.2304 15.0653C11.2404 14.9991 11.2664 14.9329 11.3045 14.8668C11.3446 14.8006 11.3948 14.7444 11.4569 14.7003C11.5532 14.6321 11.6675 14.5961 11.7838 14.5961C11.8159 14.5961 11.8459 14.5981 11.878 14.6041C12.0264 14.6281 12.1567 14.7104 12.243 14.8327L14.8337 18.46C14.9199 18.5803 14.954 18.7287 14.9279 18.8811Z" fill="white"/>
<path d="M13.6486 5.09554C14.0677 5.09554 14.4908 4.96921 14.8577 4.70854C15.0903 4.54412 15.2848 4.33357 15.4332 4.08694C15.8623 3.3751 15.8262 2.47478 15.345 1.79703C15.0221 1.34386 14.5409 1.04308 13.9915 0.952851C13.4441 0.860613 12.8906 0.986939 12.4355 1.31178C11.9803 1.63261 11.6795 2.11385 11.5873 2.66727C11.495 3.21669 11.6214 3.76812 11.9462 4.22329C12.3533 4.79276 12.9969 5.09755 13.6486 5.09755V5.09554ZM12.2289 2.77154C12.259 2.59108 12.3212 2.42264 12.4134 2.26825C12.5157 2.09981 12.648 1.95544 12.8104 1.83914C13.0571 1.66268 13.3458 1.57245 13.6426 1.57245C13.7228 1.57245 13.801 1.57847 13.8812 1.5925C14.2602 1.65667 14.591 1.8632 14.8136 2.17601C15.0362 2.48681 15.1224 2.86779 15.0602 3.24677C14.9961 3.62575 14.7915 3.9566 14.4787 4.17918C14.1679 4.40175 13.789 4.48998 13.408 4.42581C13.029 4.36165 12.6961 4.15511 12.4736 3.84231C12.251 3.5315 12.1628 3.15253 12.2269 2.77154H12.2289Z" fill="white"/>
<path d="M9.78863 10.3691C10.1616 9.74754 10.326 8.92542 10.2639 7.99302C10.1796 6.67762 9.64426 5.23991 8.79607 4.04884C7.94588 2.85977 6.76082 1.88526 5.54368 1.37795C4.23029 0.82853 3.0332 0.862618 2.17298 1.4762C1.31477 2.08778 0.891674 3.20867 0.983912 4.63235C1.07214 5.95175 1.60552 7.38946 2.4517 8.57452C3.32395 9.79767 4.5431 10.7822 5.79834 11.2755C6.38184 11.5061 6.95131 11.6204 7.47266 11.6204C8.08624 11.6204 8.63566 11.462 9.07278 11.1492C9.35752 10.9446 9.59814 10.684 9.78663 10.3712L9.78863 10.3691ZM8.60558 10.6779L7.86768 9.52898L8.3409 8.41009L9.09284 9.58111L8.63766 10.6579C8.62764 10.6639 8.61761 10.6719 8.60558 10.6779ZM5.31709 10.3391L4.75163 9.4608L5.22485 8.34192L5.9768 9.51294L5.56975 10.4774C5.48553 10.4353 5.40131 10.3892 5.31709 10.3411V10.3391ZM1.63359 4.58823C1.59549 4.00072 1.65966 3.47536 1.81405 3.03623L2.18702 3.61572L1.7138 4.73461L1.6376 4.6143C1.6376 4.6143 1.63559 4.59826 1.63559 4.59024L1.63359 4.58823ZM1.77195 5.35822L2.52389 6.52924L2.30733 7.04256C2.05267 6.51119 1.86418 5.95777 1.74989 5.41236L1.77195 5.35822ZM1.9083 5.03739L2.38152 3.9185L3.13346 5.08953L2.66024 6.20841L1.9083 5.03739ZM2.99109 2.47879L3.74303 3.64981L3.26981 4.7687L2.51787 3.59768L2.99109 2.47879ZM2.93094 1.85317L2.90487 1.81107C2.92292 1.80304 2.94096 1.79502 2.95901 1.787L2.93094 1.85317ZM4.54711 2.51288L5.29905 3.6839L4.82583 4.80279L4.07389 3.63377L4.54711 2.51488V2.51288ZM4.48896 1.88726L4.36865 1.70078C4.43081 1.71281 4.49096 1.72284 4.55312 1.73687L4.48896 1.88927V1.88726ZM9.23721 6.28862C9.36153 6.63351 9.45577 6.98241 9.51994 7.3273L9.08482 6.64955L9.23721 6.28862ZM9.61218 8.00304C9.61218 8.01307 9.61418 8.0251 9.61619 8.03513C9.6222 8.13538 9.6222 8.22963 9.6222 8.32588L9.22718 9.25828L8.47524 8.08726L8.94846 6.96837L9.61218 8.00104V8.00304ZM8.27874 7.78448L7.5268 6.61346L8.00002 5.49457L8.75196 6.66559L8.27874 7.78448ZM7.33229 6.31068L6.58035 5.13965L7.05357 4.02077L7.80551 5.19179L7.33229 6.31068ZM5.83443 6.9022L6.58637 8.07322L6.11315 9.19211L5.36121 8.02109L5.83443 6.9022ZM5.1647 7.7163L4.41276 6.54528L4.88598 5.42639L5.63792 6.59742L5.1647 7.7163ZM5.97078 6.58138L6.444 5.46249L7.19594 6.63351L6.72272 7.7524L5.97078 6.58138ZM6.99342 3.39515L6.53423 2.68131C6.72874 2.82167 6.91722 2.97607 7.1017 3.13849L6.99342 3.39315V3.39515ZM6.85707 3.71799L6.38385 4.83687L5.63191 3.66786L6.10513 2.54897L6.85707 3.71999V3.71799ZM6.24749 5.1577L5.77427 6.27659L5.02233 5.10557L5.49555 3.98668L6.24749 5.1577ZM4.67544 5.09755L4.69148 5.12361L4.21826 6.2425L3.46632 5.07148L3.93954 3.95259L4.67544 5.09755ZM3.32997 5.39231L4.08191 6.56132L3.60868 7.68021L2.85674 6.51119L3.32997 5.39231ZM4.27641 6.86811L5.02835 8.03914L4.55513 9.15802L3.80319 7.98901L4.27641 6.87012V6.86811ZM4.61528 9.78163L4.73158 9.9621C4.68346 9.92601 4.63333 9.88991 4.58521 9.85382L4.61528 9.78163ZM6.1733 9.81773L6.89316 10.9366C6.55228 10.8765 6.19736 10.7642 5.84044 10.6058L6.1733 9.81773ZM6.30965 9.49489L6.78288 8.37601L7.53482 9.54502L7.06159 10.6639L6.30965 9.49289V9.49489ZM6.91722 8.05518L7.39044 6.93629L8.14238 8.10731L7.66916 9.2262L6.91722 8.05518ZM9.28734 9.8859L9.30137 9.90796C9.27932 9.95207 9.25125 9.99017 9.22718 10.0303L9.28734 9.8859ZM9.42369 9.56307L9.48986 9.40466C9.47181 9.46482 9.45778 9.52898 9.43773 9.58713L9.42369 9.56307ZM9.08081 5.8916L8.88831 6.34476L8.13637 5.17575L8.381 4.60026C8.65571 5.00932 8.89232 5.44444 9.08081 5.8936V5.8916ZM8.17647 4.31152L7.93986 4.87096L7.18792 3.69994L7.3343 3.35304C7.63909 3.6458 7.92181 3.96863 8.17647 4.30951V4.31152ZM5.89458 2.27627L5.4354 3.36107L4.68346 2.19205L4.84187 1.81508C4.99025 1.86119 5.14064 1.91333 5.29303 1.97749C5.49555 2.06171 5.69607 2.16598 5.89458 2.27627ZM3.79116 1.64063C3.85733 1.64063 3.92751 1.64865 3.99568 1.65266L4.32052 2.15596L4.35461 2.20809L3.88139 3.32698L3.12945 2.15596L3.32997 1.68273C3.47835 1.65466 3.63275 1.63862 3.79316 1.63862L3.79116 1.64063ZM2.55396 2.00557C2.58404 1.98351 2.61612 1.96546 2.64821 1.94541L2.79659 2.17601L2.32337 3.29489L1.95442 2.71941C1.97647 2.6753 1.99853 2.63118 2.02259 2.59108C2.16496 2.35447 2.34342 2.15796 2.55597 2.00757L2.55396 2.00557ZM2.48378 7.39147L2.72039 6.83202L3.47233 8.00304L3.24374 8.54043C3.15351 8.42814 3.06528 8.31385 2.98107 8.19554C2.79859 7.93888 2.63217 7.66818 2.48178 7.39147H2.48378ZM3.4603 8.7991L3.66884 8.30783L4.42078 9.47885L4.34258 9.66333C4.03378 9.40867 3.73702 9.11993 3.4603 8.8011V8.7991ZM7.26211 10.9787L7.2561 10.9687L7.72932 9.84981L8.34691 10.8103C8.02408 10.9486 7.65513 11.0028 7.26211 10.9787Z" fill="white"/>
</svg>
