<svg width="20" height="20" viewBox="0 0 20 20" fill="none" xmlns="http://www.w3.org/2000/svg">
<path d="M12.0681 0.419747C6.98987 -0.6641 2.02144 2.36401 0.602452 7.2227C-0.369675 10.5115 0.416258 14.2118 2.99357 16.8284C6.84092 20.7522 13.1891 20.8286 17.0365 16.8284C18.7554 15.035 19.8 12.6419 19.8 9.98818C19.8 5.35292 16.5132 1.39188 12.0681 0.419747ZM17.7087 10.0999L18.7162 8.34379C18.9396 9.50211 18.9023 10.6977 18.6789 11.7815C18.6044 11.707 17.746 10.2116 17.7087 10.0999ZM16.476 16.0816H13.8242L12.2562 13.3906L13.8242 10.6996H16.9248L18.3065 13.0908C17.8949 14.1746 17.2599 15.2212 16.476 16.0816ZM6.9154 10.0999C8.18543 7.85772 8.40887 7.52061 8.4461 7.40889H11.584L13.0774 10.0254L11.5095 12.7164H8.40887L6.9154 10.0999ZM16.962 9.53935H13.8986L12.4052 6.88559C12.7423 6.28781 13.7124 4.64342 14.0104 4.15735H16.6621C17.4089 5.01581 18.0067 6.02518 18.381 7.11098L16.962 9.53935ZM13.8242 3.22442L12.9285 1.69175C13.9378 2.02886 14.8335 2.5502 15.6547 3.22442H13.8242ZM11.6584 1.3174C11.8074 1.58003 12.8912 3.48509 13.0402 3.71049C12.9657 3.8222 13.2264 3.37338 11.5095 6.40148H8.33439L6.80368 3.78496L8.22267 1.3174C9.38099 1.09397 10.5374 1.09397 11.6584 1.3174ZM6.98987 1.65255L5.98247 3.40866H4.07741C4.89863 2.66192 5.90799 2.06218 6.98987 1.65255ZM3.14253 4.34551H6.01775L7.54846 6.96203C7.09963 7.70877 6.27842 9.2042 5.94327 9.7275H2.91713L1.53538 7.29718C1.87053 6.25057 2.43107 5.2412 3.14057 4.34355L3.14253 4.34551ZM1.20023 8.64366C1.57458 9.27868 1.79801 9.65303 2.09592 10.2136L1.23747 11.6718C1.08852 10.6996 1.05128 9.65303 1.20023 8.64366ZM2.91909 10.6977H6.01971C6.2059 10.9975 7.36422 13.0143 7.51318 13.3142L5.94523 16.0797H3.44239C2.62118 15.182 1.94893 14.1354 1.57458 12.9771L2.91909 10.6977ZM6.12946 17.0146L6.8762 18.3591C6.01775 18.022 5.19458 17.5751 4.48508 17.0146H6.1275H6.12946ZM8.18543 18.7354L6.9154 16.456C7.4387 15.5583 7.962 14.6254 8.48334 13.6905H11.3958L12.9265 16.3815L11.582 18.7354C10.4609 18.9588 9.26732 18.9588 8.18347 18.7354H8.18543ZM12.8168 18.4355L13.638 17.0146H15.4685C14.6846 17.6123 13.7869 18.0984 12.8168 18.4355Z" fill="white"/>
</svg>
