<svg width="20" height="11" viewBox="0 0 20 11" fill="none" xmlns="http://www.w3.org/2000/svg">
<path d="M10.0346 3.30689C9.00923 3.30689 8.1775 4.13862 8.1775 5.16396C8.1775 6.1893 9.00923 7.02103 10.0346 7.02103C11.0599 7.02103 11.8916 6.1893 11.8916 5.16396C11.8916 4.13862 11.0599 3.30689 10.0346 3.30689Z" fill="#F6D04E"/>
<path d="M15.586 8.90773C15.4556 8.90773 15.3252 8.87217 15.2067 8.7971C14.8788 8.58769 14.782 8.15108 14.9914 7.82313C15.4971 7.02893 15.7658 6.11027 15.7658 5.16198C15.7658 4.21369 15.4971 3.29503 14.9914 2.50084C14.782 2.17289 14.8788 1.73628 15.2067 1.52687C15.5347 1.31745 15.9713 1.41426 16.1807 1.74221C16.8326 2.7636 17.1764 3.94501 17.1764 5.16198C17.1764 6.37896 16.8326 7.56037 16.1807 8.58176C16.0463 8.79315 15.8172 8.90773 15.586 8.90773Z" fill="#F6D04E"/>
<path d="M17.86 10.2215C17.7335 10.2215 17.6051 10.1879 17.4885 10.1148C17.1566 9.90937 17.0559 9.47473 17.2594 9.14283C17.9982 7.94957 18.3894 6.57257 18.3894 5.16198C18.3894 3.7514 17.9982 2.3744 17.2594 1.18113C17.0539 0.849232 17.1566 0.414598 17.4885 0.209135C17.8204 0.00367218 18.2551 0.106404 18.4605 0.438306C19.3377 1.85482 19.8 3.48864 19.8 5.16198C19.8 6.83532 19.3357 8.46915 18.4586 9.88566C18.3242 10.101 18.095 10.2195 17.858 10.2195L17.86 10.2215Z" fill="#F6D04E"/>
<path d="M13.3279 7.56432C13.1916 7.56432 13.0553 7.52481 12.9328 7.44381C12.6108 7.22649 12.5258 6.78791 12.7431 6.46391C13.0039 6.07866 13.1402 5.62823 13.1402 5.16198C13.1402 4.69574 12.998 4.22752 12.7273 3.83833C12.5061 3.51828 12.5851 3.07772 12.9051 2.85645C13.2252 2.63518 13.6657 2.71421 13.887 3.03425C14.3216 3.66052 14.5508 4.39742 14.5508 5.16198C14.5508 5.92654 14.3295 6.63381 13.9127 7.25415C13.7764 7.45566 13.5531 7.56432 13.3279 7.56432Z" fill="#F6D04E"/>
<path d="M4.41594 8.90773C4.18282 8.90773 3.95563 8.79315 3.82129 8.58176C3.16933 7.56037 2.82558 6.37896 2.82558 5.16198C2.82558 3.94501 3.16933 2.7636 3.82129 1.74221C4.0307 1.41426 4.46731 1.31745 4.79526 1.52687C5.12321 1.73628 5.22002 2.17289 5.0106 2.50084C4.50485 3.29503 4.23616 4.21567 4.23616 5.16198C4.23616 6.1083 4.50485 7.02893 5.0106 7.82313C5.22002 8.15108 5.12321 8.58769 4.79526 8.7971C4.67672 8.87217 4.54633 8.90773 4.41594 8.90773Z" fill="#F6D04E"/>
<path d="M2.14202 10.2215C1.90495 10.2215 1.67578 10.103 1.54143 9.88764C0.664265 8.47113 0.199997 6.8373 0.199997 5.16396C0.199997 3.49062 0.664265 1.85482 1.53946 0.438306C1.74492 0.106404 2.17956 0.00564779 2.51146 0.211111C2.84336 0.416574 2.94412 0.851208 2.74063 1.18311C2.00175 2.37638 1.61058 3.75338 1.61058 5.16396C1.61058 6.57454 2.00175 7.95154 2.74063 9.14481C2.94609 9.47671 2.84336 9.91134 2.51146 10.1168C2.3949 10.1879 2.26648 10.2235 2.14004 10.2235L2.14202 10.2215Z" fill="#F6D04E"/>
<path d="M6.67209 7.56432C6.44489 7.56432 6.22362 7.45566 6.08731 7.25415C5.66848 6.63579 5.44919 5.91271 5.44919 5.16198C5.44919 4.41125 5.67836 3.6625 6.11299 3.03425C6.33426 2.71421 6.77482 2.63321 7.09487 2.85645C7.41492 3.07772 7.49591 3.51828 7.27267 3.83833C7.00201 4.22752 6.85977 4.68586 6.85977 5.16198C6.85977 5.6381 6.99806 6.07866 7.25687 6.46391C7.47418 6.78593 7.38923 7.22452 7.06721 7.44381C6.9467 7.52481 6.8084 7.56432 6.67209 7.56432Z" fill="#F6D04E"/>
</svg>
