<svg width="20" height="11" viewBox="0 0 20 11" fill="none" xmlns="http://www.w3.org/2000/svg">
<path d="M10.0353 3.269C8.98901 3.269 8.14031 4.1177 8.14031 5.16397C8.14031 6.21023 8.98901 7.05894 10.0353 7.05894C11.0815 7.05894 11.9302 6.21023 11.9302 5.16397C11.9302 4.1177 11.0815 3.269 10.0353 3.269Z" fill="white"/>
<path d="M15.7 8.98415C15.567 8.98415 15.4339 8.94786 15.313 8.87125C14.9783 8.65757 14.8795 8.21205 15.0932 7.8774C15.6093 7.067 15.8835 6.12959 15.8835 5.16195C15.8835 4.19431 15.6093 3.2569 15.0932 2.4465C14.8795 2.11185 14.9783 1.66634 15.313 1.45265C15.6476 1.23896 16.0931 1.33774 16.3068 1.67238C16.9721 2.71462 17.3229 3.92014 17.3229 5.16195C17.3229 6.40376 16.9721 7.60928 16.3068 8.65152C16.1697 8.86722 15.9359 8.98415 15.7 8.98415Z" fill="white"/>
<path d="M18.0204 10.3247C17.8913 10.3247 17.7603 10.2905 17.6414 10.2159C17.3027 10.0062 17.1999 9.56272 17.4075 9.22404C18.1615 8.00642 18.5606 6.60132 18.5606 5.16195C18.5606 3.72258 18.1615 2.31748 17.4075 1.09986C17.1979 0.761184 17.3027 0.317681 17.6414 0.108024C17.98 -0.101632 18.4235 0.00319622 18.6332 0.341872C19.5283 1.78729 20 3.45446 20 5.16195C20 6.86944 19.5263 8.53661 18.6312 9.98203C18.4941 10.2018 18.2603 10.3227 18.0183 10.3227L18.0204 10.3247Z" fill="white"/>
<path d="M13.3958 7.61332C13.2567 7.61332 13.1176 7.573 12.9926 7.49035C12.664 7.26859 12.5774 6.82106 12.7991 6.49045C13.0652 6.09734 13.2043 5.63771 13.2043 5.16195C13.2043 4.68619 13.0592 4.20842 12.783 3.81128C12.5572 3.4847 12.6378 3.03515 12.9644 2.80937C13.291 2.58358 13.7406 2.66422 13.9663 2.9908C14.4098 3.62985 14.6437 4.38179 14.6437 5.16195C14.6437 5.94211 14.4179 6.66382 13.9925 7.29682C13.8534 7.50244 13.6256 7.61332 13.3958 7.61332Z" fill="white"/>
<path d="M4.30199 8.98415C4.06411 8.98415 3.83227 8.86722 3.69519 8.65152C3.02994 7.60928 2.67917 6.40376 2.67917 5.16195C2.67917 3.92014 3.02994 2.71462 3.69519 1.67238C3.90888 1.33774 4.3544 1.23896 4.68904 1.45265C5.02369 1.66634 5.12247 2.11185 4.90878 2.4465C4.3927 3.2569 4.11854 4.19632 4.11854 5.16195C4.11854 6.12758 4.3927 7.067 4.90878 7.8774C5.12247 8.21205 5.02369 8.65757 4.68904 8.87125C4.56809 8.94786 4.43504 8.98415 4.30199 8.98415Z" fill="white"/>
<path d="M1.98166 10.3247C1.73974 10.3247 1.5059 10.2038 1.36881 9.98405C0.473743 8.53863 0 6.87146 0 5.16397C0 3.45648 0.473743 1.78729 1.3668 0.341872C1.57645 0.00319622 2.01996 -0.099616 2.35863 0.11004C2.69731 0.319697 2.80012 0.7632 2.59248 1.10188C1.83852 2.31949 1.43937 3.7246 1.43937 5.16397C1.43937 6.60334 1.83852 8.00844 2.59248 9.22606C2.80214 9.56473 2.69731 10.0082 2.35863 10.2179C2.23969 10.2905 2.10866 10.3268 1.97964 10.3268L1.98166 10.3247Z" fill="white"/>
<path d="M6.60417 7.61332C6.37234 7.61332 6.14656 7.50244 6.00746 7.29682C5.58008 6.66583 5.35631 5.928 5.35631 5.16195C5.35631 4.3959 5.59016 3.63186 6.03367 2.9908C6.25945 2.66422 6.709 2.58157 7.03558 2.80937C7.36216 3.03515 7.44481 3.4847 7.21701 3.81128C6.94083 4.20842 6.79569 4.67611 6.79569 5.16195C6.79569 5.64779 6.9368 6.09734 7.20089 6.49045C7.42264 6.81904 7.33595 7.26658 7.00736 7.49035C6.88439 7.573 6.74327 7.61332 6.60417 7.61332Z" fill="white"/>
</svg>
